%TF.GenerationSoftware,KiCad,Pcbnew,7.0.10*%
%TF.CreationDate,2024-02-15T20:28:35+01:00*%
%TF.ProjectId,pico_game_console,7069636f-5f67-4616-9d65-5f636f6e736f,rev?*%
%TF.SameCoordinates,Original*%
%TF.FileFunction,Legend,Bot*%
%TF.FilePolarity,Positive*%
%FSLAX46Y46*%
G04 Gerber Fmt 4.6, Leading zero omitted, Abs format (unit mm)*
G04 Created by KiCad (PCBNEW 7.0.10) date 2024-02-15 20:28:35*
%MOMM*%
%LPD*%
G01*
G04 APERTURE LIST*
%ADD10C,0.150000*%
%ADD11C,0.100000*%
%ADD12C,0.120000*%
G04 APERTURE END LIST*
D10*
X186663220Y-52869819D02*
X186663220Y-51869819D01*
X186663220Y-51869819D02*
X186329887Y-52584104D01*
X186329887Y-52584104D02*
X185996554Y-51869819D01*
X185996554Y-51869819D02*
X185996554Y-52869819D01*
X185615601Y-51869819D02*
X184996554Y-51869819D01*
X184996554Y-51869819D02*
X185329887Y-52250771D01*
X185329887Y-52250771D02*
X185187030Y-52250771D01*
X185187030Y-52250771D02*
X185091792Y-52298390D01*
X185091792Y-52298390D02*
X185044173Y-52346009D01*
X185044173Y-52346009D02*
X184996554Y-52441247D01*
X184996554Y-52441247D02*
X184996554Y-52679342D01*
X184996554Y-52679342D02*
X185044173Y-52774580D01*
X185044173Y-52774580D02*
X185091792Y-52822200D01*
X185091792Y-52822200D02*
X185187030Y-52869819D01*
X185187030Y-52869819D02*
X185472744Y-52869819D01*
X185472744Y-52869819D02*
X185567982Y-52822200D01*
X185567982Y-52822200D02*
X185615601Y-52774580D01*
X133663220Y-52869819D02*
X133663220Y-51869819D01*
X133663220Y-51869819D02*
X133329887Y-52584104D01*
X133329887Y-52584104D02*
X132996554Y-51869819D01*
X132996554Y-51869819D02*
X132996554Y-52869819D01*
X132615601Y-51869819D02*
X131996554Y-51869819D01*
X131996554Y-51869819D02*
X132329887Y-52250771D01*
X132329887Y-52250771D02*
X132187030Y-52250771D01*
X132187030Y-52250771D02*
X132091792Y-52298390D01*
X132091792Y-52298390D02*
X132044173Y-52346009D01*
X132044173Y-52346009D02*
X131996554Y-52441247D01*
X131996554Y-52441247D02*
X131996554Y-52679342D01*
X131996554Y-52679342D02*
X132044173Y-52774580D01*
X132044173Y-52774580D02*
X132091792Y-52822200D01*
X132091792Y-52822200D02*
X132187030Y-52869819D01*
X132187030Y-52869819D02*
X132472744Y-52869819D01*
X132472744Y-52869819D02*
X132567982Y-52822200D01*
X132567982Y-52822200D02*
X132615601Y-52774580D01*
X95974819Y-37338095D02*
X96784342Y-37338095D01*
X96784342Y-37338095D02*
X96879580Y-37385714D01*
X96879580Y-37385714D02*
X96927200Y-37433333D01*
X96927200Y-37433333D02*
X96974819Y-37528571D01*
X96974819Y-37528571D02*
X96974819Y-37719047D01*
X96974819Y-37719047D02*
X96927200Y-37814285D01*
X96927200Y-37814285D02*
X96879580Y-37861904D01*
X96879580Y-37861904D02*
X96784342Y-37909523D01*
X96784342Y-37909523D02*
X95974819Y-37909523D01*
X96974819Y-38909523D02*
X96974819Y-38338095D01*
X96974819Y-38623809D02*
X95974819Y-38623809D01*
X95974819Y-38623809D02*
X96117676Y-38528571D01*
X96117676Y-38528571D02*
X96212914Y-38433333D01*
X96212914Y-38433333D02*
X96260533Y-38338095D01*
D11*
X73392419Y-36903884D02*
X74201942Y-36903884D01*
X74201942Y-36903884D02*
X74297180Y-36951503D01*
X74297180Y-36951503D02*
X74344800Y-36999122D01*
X74344800Y-36999122D02*
X74392419Y-37094360D01*
X74392419Y-37094360D02*
X74392419Y-37284836D01*
X74392419Y-37284836D02*
X74344800Y-37380074D01*
X74344800Y-37380074D02*
X74297180Y-37427693D01*
X74297180Y-37427693D02*
X74201942Y-37475312D01*
X74201942Y-37475312D02*
X73392419Y-37475312D01*
X74344800Y-37903884D02*
X74392419Y-38046741D01*
X74392419Y-38046741D02*
X74392419Y-38284836D01*
X74392419Y-38284836D02*
X74344800Y-38380074D01*
X74344800Y-38380074D02*
X74297180Y-38427693D01*
X74297180Y-38427693D02*
X74201942Y-38475312D01*
X74201942Y-38475312D02*
X74106704Y-38475312D01*
X74106704Y-38475312D02*
X74011466Y-38427693D01*
X74011466Y-38427693D02*
X73963847Y-38380074D01*
X73963847Y-38380074D02*
X73916228Y-38284836D01*
X73916228Y-38284836D02*
X73868609Y-38094360D01*
X73868609Y-38094360D02*
X73820990Y-37999122D01*
X73820990Y-37999122D02*
X73773371Y-37951503D01*
X73773371Y-37951503D02*
X73678133Y-37903884D01*
X73678133Y-37903884D02*
X73582895Y-37903884D01*
X73582895Y-37903884D02*
X73487657Y-37951503D01*
X73487657Y-37951503D02*
X73440038Y-37999122D01*
X73440038Y-37999122D02*
X73392419Y-38094360D01*
X73392419Y-38094360D02*
X73392419Y-38332455D01*
X73392419Y-38332455D02*
X73440038Y-38475312D01*
X73868609Y-39237217D02*
X73916228Y-39380074D01*
X73916228Y-39380074D02*
X73963847Y-39427693D01*
X73963847Y-39427693D02*
X74059085Y-39475312D01*
X74059085Y-39475312D02*
X74201942Y-39475312D01*
X74201942Y-39475312D02*
X74297180Y-39427693D01*
X74297180Y-39427693D02*
X74344800Y-39380074D01*
X74344800Y-39380074D02*
X74392419Y-39284836D01*
X74392419Y-39284836D02*
X74392419Y-38903884D01*
X74392419Y-38903884D02*
X73392419Y-38903884D01*
X73392419Y-38903884D02*
X73392419Y-39237217D01*
X73392419Y-39237217D02*
X73440038Y-39332455D01*
X73440038Y-39332455D02*
X73487657Y-39380074D01*
X73487657Y-39380074D02*
X73582895Y-39427693D01*
X73582895Y-39427693D02*
X73678133Y-39427693D01*
X73678133Y-39427693D02*
X73773371Y-39380074D01*
X73773371Y-39380074D02*
X73820990Y-39332455D01*
X73820990Y-39332455D02*
X73868609Y-39237217D01*
X73868609Y-39237217D02*
X73868609Y-38903884D01*
D10*
X108340868Y-23943998D02*
X108367805Y-23863185D01*
X108367805Y-23863185D02*
X108448618Y-23782373D01*
X108448618Y-23782373D02*
X108556367Y-23728498D01*
X108556367Y-23728498D02*
X108664117Y-23728498D01*
X108664117Y-23728498D02*
X108744929Y-23755436D01*
X108744929Y-23755436D02*
X108879616Y-23836248D01*
X108879616Y-23836248D02*
X108960428Y-23917060D01*
X108960428Y-23917060D02*
X109041241Y-24051747D01*
X109041241Y-24051747D02*
X109068178Y-24132560D01*
X109068178Y-24132560D02*
X109068178Y-24240309D01*
X109068178Y-24240309D02*
X109014303Y-24348059D01*
X109014303Y-24348059D02*
X108960428Y-24401934D01*
X108960428Y-24401934D02*
X108852679Y-24455808D01*
X108852679Y-24455808D02*
X108798804Y-24455808D01*
X108798804Y-24455808D02*
X108610242Y-24267247D01*
X108610242Y-24267247D02*
X108717992Y-24159497D01*
X108610242Y-24752120D02*
X108044557Y-24186434D01*
X108044557Y-24186434D02*
X107829057Y-24401934D01*
X107829057Y-24401934D02*
X107802120Y-24482746D01*
X107802120Y-24482746D02*
X107802120Y-24536621D01*
X107802120Y-24536621D02*
X107829057Y-24617433D01*
X107829057Y-24617433D02*
X107909870Y-24698245D01*
X107909870Y-24698245D02*
X107990682Y-24725182D01*
X107990682Y-24725182D02*
X108044557Y-24725182D01*
X108044557Y-24725182D02*
X108125369Y-24698245D01*
X108125369Y-24698245D02*
X108340868Y-24482746D01*
X107748245Y-25614117D02*
X108071494Y-25290868D01*
X107909870Y-25452492D02*
X107344184Y-24886807D01*
X107344184Y-24886807D02*
X107478871Y-24913744D01*
X107478871Y-24913744D02*
X107586621Y-24913744D01*
X107586621Y-24913744D02*
X107667433Y-24886807D01*
X107209497Y-26152865D02*
X107532746Y-25829616D01*
X107371121Y-25991240D02*
X106805436Y-25425555D01*
X106805436Y-25425555D02*
X106940123Y-25452492D01*
X106940123Y-25452492D02*
X107047873Y-25452492D01*
X107047873Y-25452492D02*
X107128685Y-25425555D01*
X91261240Y-50251873D02*
X90991866Y-50521247D01*
X91476739Y-50359623D02*
X90722492Y-49982499D01*
X90722492Y-49982499D02*
X91099615Y-50736746D01*
X90075994Y-50682871D02*
X90102932Y-50602059D01*
X90102932Y-50602059D02*
X90183744Y-50521247D01*
X90183744Y-50521247D02*
X90291494Y-50467372D01*
X90291494Y-50467372D02*
X90399243Y-50467372D01*
X90399243Y-50467372D02*
X90480055Y-50494310D01*
X90480055Y-50494310D02*
X90614742Y-50575122D01*
X90614742Y-50575122D02*
X90695555Y-50655934D01*
X90695555Y-50655934D02*
X90776367Y-50790621D01*
X90776367Y-50790621D02*
X90803304Y-50871433D01*
X90803304Y-50871433D02*
X90803304Y-50979183D01*
X90803304Y-50979183D02*
X90749429Y-51086932D01*
X90749429Y-51086932D02*
X90695555Y-51140807D01*
X90695555Y-51140807D02*
X90587805Y-51194682D01*
X90587805Y-51194682D02*
X90533930Y-51194682D01*
X90533930Y-51194682D02*
X90345368Y-51006120D01*
X90345368Y-51006120D02*
X90453118Y-50898371D01*
X90345368Y-51490993D02*
X89779683Y-50925308D01*
X89779683Y-50925308D02*
X90022120Y-51814242D01*
X90022120Y-51814242D02*
X89456434Y-51248557D01*
X89752746Y-52083616D02*
X89187060Y-51517931D01*
X89187060Y-51517931D02*
X89052373Y-51652618D01*
X89052373Y-51652618D02*
X88998498Y-51760367D01*
X88998498Y-51760367D02*
X88998498Y-51868117D01*
X88998498Y-51868117D02*
X89025436Y-51948929D01*
X89025436Y-51948929D02*
X89106248Y-52083616D01*
X89106248Y-52083616D02*
X89187060Y-52164428D01*
X89187060Y-52164428D02*
X89321747Y-52245241D01*
X89321747Y-52245241D02*
X89402560Y-52272178D01*
X89402560Y-52272178D02*
X89510309Y-52272178D01*
X89510309Y-52272178D02*
X89618059Y-52218303D01*
X89618059Y-52218303D02*
X89752746Y-52083616D01*
X115718431Y-50186435D02*
X115745368Y-50105623D01*
X115745368Y-50105623D02*
X115826180Y-50024811D01*
X115826180Y-50024811D02*
X115933930Y-49970936D01*
X115933930Y-49970936D02*
X116041680Y-49970936D01*
X116041680Y-49970936D02*
X116122492Y-49997873D01*
X116122492Y-49997873D02*
X116257179Y-50078685D01*
X116257179Y-50078685D02*
X116337991Y-50159498D01*
X116337991Y-50159498D02*
X116418803Y-50294185D01*
X116418803Y-50294185D02*
X116445741Y-50374997D01*
X116445741Y-50374997D02*
X116445741Y-50482746D01*
X116445741Y-50482746D02*
X116391866Y-50590496D01*
X116391866Y-50590496D02*
X116337991Y-50644371D01*
X116337991Y-50644371D02*
X116230241Y-50698246D01*
X116230241Y-50698246D02*
X116176367Y-50698246D01*
X116176367Y-50698246D02*
X115987805Y-50509684D01*
X115987805Y-50509684D02*
X116095554Y-50401934D01*
X115987805Y-50994557D02*
X115422119Y-50428872D01*
X115422119Y-50428872D02*
X115664556Y-51317806D01*
X115664556Y-51317806D02*
X115098871Y-50752120D01*
X115395182Y-51587180D02*
X114829497Y-51021494D01*
X114829497Y-51021494D02*
X114694810Y-51156181D01*
X114694810Y-51156181D02*
X114640935Y-51263931D01*
X114640935Y-51263931D02*
X114640935Y-51371680D01*
X114640935Y-51371680D02*
X114667872Y-51452493D01*
X114667872Y-51452493D02*
X114748685Y-51587180D01*
X114748685Y-51587180D02*
X114829497Y-51667992D01*
X114829497Y-51667992D02*
X114964184Y-51748804D01*
X114964184Y-51748804D02*
X115044996Y-51775741D01*
X115044996Y-51775741D02*
X115152746Y-51775741D01*
X115152746Y-51775741D02*
X115260495Y-51721867D01*
X115260495Y-51721867D02*
X115395182Y-51587180D01*
X77618431Y-50186435D02*
X77645368Y-50105623D01*
X77645368Y-50105623D02*
X77726180Y-50024811D01*
X77726180Y-50024811D02*
X77833930Y-49970936D01*
X77833930Y-49970936D02*
X77941680Y-49970936D01*
X77941680Y-49970936D02*
X78022492Y-49997873D01*
X78022492Y-49997873D02*
X78157179Y-50078685D01*
X78157179Y-50078685D02*
X78237991Y-50159498D01*
X78237991Y-50159498D02*
X78318803Y-50294185D01*
X78318803Y-50294185D02*
X78345741Y-50374997D01*
X78345741Y-50374997D02*
X78345741Y-50482746D01*
X78345741Y-50482746D02*
X78291866Y-50590496D01*
X78291866Y-50590496D02*
X78237991Y-50644371D01*
X78237991Y-50644371D02*
X78130241Y-50698246D01*
X78130241Y-50698246D02*
X78076367Y-50698246D01*
X78076367Y-50698246D02*
X77887805Y-50509684D01*
X77887805Y-50509684D02*
X77995554Y-50401934D01*
X77887805Y-50994557D02*
X77322119Y-50428872D01*
X77322119Y-50428872D02*
X77564556Y-51317806D01*
X77564556Y-51317806D02*
X76998871Y-50752120D01*
X77295182Y-51587180D02*
X76729497Y-51021494D01*
X76729497Y-51021494D02*
X76594810Y-51156181D01*
X76594810Y-51156181D02*
X76540935Y-51263931D01*
X76540935Y-51263931D02*
X76540935Y-51371680D01*
X76540935Y-51371680D02*
X76567872Y-51452493D01*
X76567872Y-51452493D02*
X76648685Y-51587180D01*
X76648685Y-51587180D02*
X76729497Y-51667992D01*
X76729497Y-51667992D02*
X76864184Y-51748804D01*
X76864184Y-51748804D02*
X76944996Y-51775741D01*
X76944996Y-51775741D02*
X77052746Y-51775741D01*
X77052746Y-51775741D02*
X77160495Y-51721867D01*
X77160495Y-51721867D02*
X77295182Y-51587180D01*
X113420868Y-24089998D02*
X113447805Y-24009185D01*
X113447805Y-24009185D02*
X113528618Y-23928373D01*
X113528618Y-23928373D02*
X113636367Y-23874498D01*
X113636367Y-23874498D02*
X113744117Y-23874498D01*
X113744117Y-23874498D02*
X113824929Y-23901436D01*
X113824929Y-23901436D02*
X113959616Y-23982248D01*
X113959616Y-23982248D02*
X114040428Y-24063060D01*
X114040428Y-24063060D02*
X114121241Y-24197747D01*
X114121241Y-24197747D02*
X114148178Y-24278560D01*
X114148178Y-24278560D02*
X114148178Y-24386309D01*
X114148178Y-24386309D02*
X114094303Y-24494059D01*
X114094303Y-24494059D02*
X114040428Y-24547934D01*
X114040428Y-24547934D02*
X113932679Y-24601808D01*
X113932679Y-24601808D02*
X113878804Y-24601808D01*
X113878804Y-24601808D02*
X113690242Y-24413247D01*
X113690242Y-24413247D02*
X113797992Y-24305497D01*
X113690242Y-24898120D02*
X113124557Y-24332434D01*
X113124557Y-24332434D02*
X112909057Y-24547934D01*
X112909057Y-24547934D02*
X112882120Y-24628746D01*
X112882120Y-24628746D02*
X112882120Y-24682621D01*
X112882120Y-24682621D02*
X112909057Y-24763433D01*
X112909057Y-24763433D02*
X112989870Y-24844245D01*
X112989870Y-24844245D02*
X113070682Y-24871182D01*
X113070682Y-24871182D02*
X113124557Y-24871182D01*
X113124557Y-24871182D02*
X113205369Y-24844245D01*
X113205369Y-24844245D02*
X113420868Y-24628746D01*
X112828245Y-25760117D02*
X113151494Y-25436868D01*
X112989870Y-25598492D02*
X112424184Y-25032807D01*
X112424184Y-25032807D02*
X112558871Y-25059744D01*
X112558871Y-25059744D02*
X112666621Y-25059744D01*
X112666621Y-25059744D02*
X112747433Y-25032807D01*
X112073998Y-25382993D02*
X111723812Y-25733179D01*
X111723812Y-25733179D02*
X112127873Y-25760117D01*
X112127873Y-25760117D02*
X112047060Y-25840929D01*
X112047060Y-25840929D02*
X112020123Y-25921741D01*
X112020123Y-25921741D02*
X112020123Y-25975616D01*
X112020123Y-25975616D02*
X112047060Y-26056428D01*
X112047060Y-26056428D02*
X112181747Y-26191115D01*
X112181747Y-26191115D02*
X112262560Y-26218053D01*
X112262560Y-26218053D02*
X112316434Y-26218053D01*
X112316434Y-26218053D02*
X112397247Y-26191115D01*
X112397247Y-26191115D02*
X112558871Y-26029491D01*
X112558871Y-26029491D02*
X112585808Y-25948679D01*
X112585808Y-25948679D02*
X112585808Y-25894804D01*
X86054049Y-50255064D02*
X85784675Y-50524438D01*
X86269549Y-50362813D02*
X85515301Y-49985690D01*
X85515301Y-49985690D02*
X85892425Y-50739937D01*
X85703863Y-50928499D02*
X85138178Y-50362813D01*
X85138178Y-50362813D02*
X85003491Y-50497500D01*
X85003491Y-50497500D02*
X84949616Y-50605250D01*
X84949616Y-50605250D02*
X84949616Y-50712999D01*
X84949616Y-50712999D02*
X84976553Y-50793812D01*
X84976553Y-50793812D02*
X85057366Y-50928499D01*
X85057366Y-50928499D02*
X85138178Y-51009311D01*
X85138178Y-51009311D02*
X85272865Y-51090123D01*
X85272865Y-51090123D02*
X85353677Y-51117060D01*
X85353677Y-51117060D02*
X85461427Y-51117060D01*
X85461427Y-51117060D02*
X85569176Y-51063186D01*
X85569176Y-51063186D02*
X85703863Y-50928499D01*
X84761054Y-51763558D02*
X84814929Y-51763558D01*
X84814929Y-51763558D02*
X84922679Y-51709683D01*
X84922679Y-51709683D02*
X84976553Y-51655808D01*
X84976553Y-51655808D02*
X85030428Y-51548059D01*
X85030428Y-51548059D02*
X85030428Y-51440309D01*
X85030428Y-51440309D02*
X85003491Y-51359497D01*
X85003491Y-51359497D02*
X84922679Y-51224810D01*
X84922679Y-51224810D02*
X84841866Y-51143998D01*
X84841866Y-51143998D02*
X84707179Y-51063186D01*
X84707179Y-51063186D02*
X84626367Y-51036248D01*
X84626367Y-51036248D02*
X84518618Y-51036248D01*
X84518618Y-51036248D02*
X84410868Y-51090123D01*
X84410868Y-51090123D02*
X84356993Y-51143998D01*
X84356993Y-51143998D02*
X84303118Y-51251747D01*
X84303118Y-51251747D02*
X84303118Y-51305622D01*
X84761054Y-51979057D02*
X84330056Y-52410056D01*
X83656621Y-51844370D02*
X84033744Y-52598618D01*
X84033744Y-52598618D02*
X83279497Y-52221494D01*
X83333372Y-53298990D02*
X83252560Y-52841054D01*
X83656621Y-52975741D02*
X83090935Y-52410056D01*
X83090935Y-52410056D02*
X82875436Y-52625555D01*
X82875436Y-52625555D02*
X82848499Y-52706367D01*
X82848499Y-52706367D02*
X82848499Y-52760242D01*
X82848499Y-52760242D02*
X82875436Y-52841054D01*
X82875436Y-52841054D02*
X82956248Y-52921866D01*
X82956248Y-52921866D02*
X83037061Y-52948804D01*
X83037061Y-52948804D02*
X83090935Y-52948804D01*
X83090935Y-52948804D02*
X83171748Y-52921866D01*
X83171748Y-52921866D02*
X83387247Y-52706367D01*
X82794624Y-53245115D02*
X82606062Y-53433677D01*
X82821561Y-53810800D02*
X83090935Y-53541426D01*
X83090935Y-53541426D02*
X82525250Y-52975741D01*
X82525250Y-52975741D02*
X82255876Y-53245115D01*
X82094251Y-53945488D02*
X82282813Y-53756926D01*
X82579125Y-54053237D02*
X82013439Y-53487552D01*
X82013439Y-53487552D02*
X81744065Y-53756926D01*
X85211494Y-24613372D02*
X85238431Y-24532560D01*
X85238431Y-24532560D02*
X85319243Y-24451748D01*
X85319243Y-24451748D02*
X85426993Y-24397873D01*
X85426993Y-24397873D02*
X85534742Y-24397873D01*
X85534742Y-24397873D02*
X85615555Y-24424810D01*
X85615555Y-24424810D02*
X85750242Y-24505623D01*
X85750242Y-24505623D02*
X85831054Y-24586435D01*
X85831054Y-24586435D02*
X85911866Y-24721122D01*
X85911866Y-24721122D02*
X85938803Y-24801934D01*
X85938803Y-24801934D02*
X85938803Y-24909684D01*
X85938803Y-24909684D02*
X85884929Y-25017433D01*
X85884929Y-25017433D02*
X85831054Y-25071308D01*
X85831054Y-25071308D02*
X85723304Y-25125183D01*
X85723304Y-25125183D02*
X85669429Y-25125183D01*
X85669429Y-25125183D02*
X85480868Y-24936621D01*
X85480868Y-24936621D02*
X85588617Y-24828871D01*
X85480868Y-25421494D02*
X84915182Y-24855809D01*
X84915182Y-24855809D02*
X84699683Y-25071308D01*
X84699683Y-25071308D02*
X84672746Y-25152120D01*
X84672746Y-25152120D02*
X84672746Y-25205995D01*
X84672746Y-25205995D02*
X84699683Y-25286807D01*
X84699683Y-25286807D02*
X84780495Y-25367619D01*
X84780495Y-25367619D02*
X84861307Y-25394557D01*
X84861307Y-25394557D02*
X84915182Y-25394557D01*
X84915182Y-25394557D02*
X84995994Y-25367619D01*
X84995994Y-25367619D02*
X85211494Y-25152120D01*
X84295622Y-25852493D02*
X84672746Y-26229616D01*
X84214810Y-25502306D02*
X84753558Y-25771680D01*
X84753558Y-25771680D02*
X84403372Y-26121867D01*
X95341494Y-24713372D02*
X95368431Y-24632560D01*
X95368431Y-24632560D02*
X95449243Y-24551748D01*
X95449243Y-24551748D02*
X95556993Y-24497873D01*
X95556993Y-24497873D02*
X95664742Y-24497873D01*
X95664742Y-24497873D02*
X95745555Y-24524810D01*
X95745555Y-24524810D02*
X95880242Y-24605623D01*
X95880242Y-24605623D02*
X95961054Y-24686435D01*
X95961054Y-24686435D02*
X96041866Y-24821122D01*
X96041866Y-24821122D02*
X96068803Y-24901934D01*
X96068803Y-24901934D02*
X96068803Y-25009684D01*
X96068803Y-25009684D02*
X96014929Y-25117433D01*
X96014929Y-25117433D02*
X95961054Y-25171308D01*
X95961054Y-25171308D02*
X95853304Y-25225183D01*
X95853304Y-25225183D02*
X95799429Y-25225183D01*
X95799429Y-25225183D02*
X95610868Y-25036621D01*
X95610868Y-25036621D02*
X95718617Y-24928871D01*
X95610868Y-25521494D02*
X95045182Y-24955809D01*
X95045182Y-24955809D02*
X94829683Y-25171308D01*
X94829683Y-25171308D02*
X94802746Y-25252120D01*
X94802746Y-25252120D02*
X94802746Y-25305995D01*
X94802746Y-25305995D02*
X94829683Y-25386807D01*
X94829683Y-25386807D02*
X94910495Y-25467619D01*
X94910495Y-25467619D02*
X94991307Y-25494557D01*
X94991307Y-25494557D02*
X95045182Y-25494557D01*
X95045182Y-25494557D02*
X95125994Y-25467619D01*
X95125994Y-25467619D02*
X95341494Y-25252120D01*
X94533372Y-25467619D02*
X94156248Y-25844743D01*
X94156248Y-25844743D02*
X94964370Y-26167992D01*
X121040868Y-24089998D02*
X121067805Y-24009185D01*
X121067805Y-24009185D02*
X121148618Y-23928373D01*
X121148618Y-23928373D02*
X121256367Y-23874498D01*
X121256367Y-23874498D02*
X121364117Y-23874498D01*
X121364117Y-23874498D02*
X121444929Y-23901436D01*
X121444929Y-23901436D02*
X121579616Y-23982248D01*
X121579616Y-23982248D02*
X121660428Y-24063060D01*
X121660428Y-24063060D02*
X121741241Y-24197747D01*
X121741241Y-24197747D02*
X121768178Y-24278560D01*
X121768178Y-24278560D02*
X121768178Y-24386309D01*
X121768178Y-24386309D02*
X121714303Y-24494059D01*
X121714303Y-24494059D02*
X121660428Y-24547934D01*
X121660428Y-24547934D02*
X121552679Y-24601808D01*
X121552679Y-24601808D02*
X121498804Y-24601808D01*
X121498804Y-24601808D02*
X121310242Y-24413247D01*
X121310242Y-24413247D02*
X121417992Y-24305497D01*
X121310242Y-24898120D02*
X120744557Y-24332434D01*
X120744557Y-24332434D02*
X120529057Y-24547934D01*
X120529057Y-24547934D02*
X120502120Y-24628746D01*
X120502120Y-24628746D02*
X120502120Y-24682621D01*
X120502120Y-24682621D02*
X120529057Y-24763433D01*
X120529057Y-24763433D02*
X120609870Y-24844245D01*
X120609870Y-24844245D02*
X120690682Y-24871182D01*
X120690682Y-24871182D02*
X120744557Y-24871182D01*
X120744557Y-24871182D02*
X120825369Y-24844245D01*
X120825369Y-24844245D02*
X121040868Y-24628746D01*
X120448245Y-25760117D02*
X120771494Y-25436868D01*
X120609870Y-25598492D02*
X120044184Y-25032807D01*
X120044184Y-25032807D02*
X120178871Y-25059744D01*
X120178871Y-25059744D02*
X120286621Y-25059744D01*
X120286621Y-25059744D02*
X120367433Y-25032807D01*
X119370749Y-25706242D02*
X119640123Y-25436868D01*
X119640123Y-25436868D02*
X119936434Y-25679305D01*
X119936434Y-25679305D02*
X119882560Y-25679305D01*
X119882560Y-25679305D02*
X119801747Y-25706242D01*
X119801747Y-25706242D02*
X119667060Y-25840929D01*
X119667060Y-25840929D02*
X119640123Y-25921741D01*
X119640123Y-25921741D02*
X119640123Y-25975616D01*
X119640123Y-25975616D02*
X119667060Y-26056428D01*
X119667060Y-26056428D02*
X119801747Y-26191115D01*
X119801747Y-26191115D02*
X119882560Y-26218053D01*
X119882560Y-26218053D02*
X119936434Y-26218053D01*
X119936434Y-26218053D02*
X120017247Y-26191115D01*
X120017247Y-26191115D02*
X120151934Y-26056428D01*
X120151934Y-26056428D02*
X120178871Y-25975616D01*
X120178871Y-25975616D02*
X120178871Y-25921741D01*
X118500868Y-50197998D02*
X118527805Y-50117185D01*
X118527805Y-50117185D02*
X118608618Y-50036373D01*
X118608618Y-50036373D02*
X118716367Y-49982498D01*
X118716367Y-49982498D02*
X118824117Y-49982498D01*
X118824117Y-49982498D02*
X118904929Y-50009436D01*
X118904929Y-50009436D02*
X119039616Y-50090248D01*
X119039616Y-50090248D02*
X119120428Y-50171060D01*
X119120428Y-50171060D02*
X119201241Y-50305747D01*
X119201241Y-50305747D02*
X119228178Y-50386560D01*
X119228178Y-50386560D02*
X119228178Y-50494309D01*
X119228178Y-50494309D02*
X119174303Y-50602059D01*
X119174303Y-50602059D02*
X119120428Y-50655934D01*
X119120428Y-50655934D02*
X119012679Y-50709808D01*
X119012679Y-50709808D02*
X118958804Y-50709808D01*
X118958804Y-50709808D02*
X118770242Y-50521247D01*
X118770242Y-50521247D02*
X118877992Y-50413497D01*
X118770242Y-51006120D02*
X118204557Y-50440434D01*
X118204557Y-50440434D02*
X117989057Y-50655934D01*
X117989057Y-50655934D02*
X117962120Y-50736746D01*
X117962120Y-50736746D02*
X117962120Y-50790621D01*
X117962120Y-50790621D02*
X117989057Y-50871433D01*
X117989057Y-50871433D02*
X118069870Y-50952245D01*
X118069870Y-50952245D02*
X118150682Y-50979182D01*
X118150682Y-50979182D02*
X118204557Y-50979182D01*
X118204557Y-50979182D02*
X118285369Y-50952245D01*
X118285369Y-50952245D02*
X118500868Y-50736746D01*
X117908245Y-51868117D02*
X118231494Y-51544868D01*
X118069870Y-51706492D02*
X117504184Y-51140807D01*
X117504184Y-51140807D02*
X117638871Y-51167744D01*
X117638871Y-51167744D02*
X117746621Y-51167744D01*
X117746621Y-51167744D02*
X117827433Y-51140807D01*
X117153998Y-51490993D02*
X116776874Y-51868117D01*
X116776874Y-51868117D02*
X117584996Y-52191366D01*
X95640868Y-50197998D02*
X95667805Y-50117185D01*
X95667805Y-50117185D02*
X95748618Y-50036373D01*
X95748618Y-50036373D02*
X95856367Y-49982498D01*
X95856367Y-49982498D02*
X95964117Y-49982498D01*
X95964117Y-49982498D02*
X96044929Y-50009436D01*
X96044929Y-50009436D02*
X96179616Y-50090248D01*
X96179616Y-50090248D02*
X96260428Y-50171060D01*
X96260428Y-50171060D02*
X96341241Y-50305747D01*
X96341241Y-50305747D02*
X96368178Y-50386560D01*
X96368178Y-50386560D02*
X96368178Y-50494309D01*
X96368178Y-50494309D02*
X96314303Y-50602059D01*
X96314303Y-50602059D02*
X96260428Y-50655934D01*
X96260428Y-50655934D02*
X96152679Y-50709808D01*
X96152679Y-50709808D02*
X96098804Y-50709808D01*
X96098804Y-50709808D02*
X95910242Y-50521247D01*
X95910242Y-50521247D02*
X96017992Y-50413497D01*
X95910242Y-51006120D02*
X95344557Y-50440434D01*
X95344557Y-50440434D02*
X95129057Y-50655934D01*
X95129057Y-50655934D02*
X95102120Y-50736746D01*
X95102120Y-50736746D02*
X95102120Y-50790621D01*
X95102120Y-50790621D02*
X95129057Y-50871433D01*
X95129057Y-50871433D02*
X95209870Y-50952245D01*
X95209870Y-50952245D02*
X95290682Y-50979182D01*
X95290682Y-50979182D02*
X95344557Y-50979182D01*
X95344557Y-50979182D02*
X95425369Y-50952245D01*
X95425369Y-50952245D02*
X95640868Y-50736746D01*
X94859683Y-51033057D02*
X94805809Y-51033057D01*
X94805809Y-51033057D02*
X94724996Y-51059995D01*
X94724996Y-51059995D02*
X94590309Y-51194682D01*
X94590309Y-51194682D02*
X94563372Y-51275494D01*
X94563372Y-51275494D02*
X94563372Y-51329369D01*
X94563372Y-51329369D02*
X94590309Y-51410181D01*
X94590309Y-51410181D02*
X94644184Y-51464056D01*
X94644184Y-51464056D02*
X94751934Y-51517930D01*
X94751934Y-51517930D02*
X95398431Y-51517930D01*
X95398431Y-51517930D02*
X95048245Y-51868117D01*
X93997686Y-51787305D02*
X94105436Y-51679555D01*
X94105436Y-51679555D02*
X94186248Y-51652618D01*
X94186248Y-51652618D02*
X94240123Y-51652618D01*
X94240123Y-51652618D02*
X94374810Y-51679555D01*
X94374810Y-51679555D02*
X94509497Y-51760367D01*
X94509497Y-51760367D02*
X94724996Y-51975866D01*
X94724996Y-51975866D02*
X94751934Y-52056679D01*
X94751934Y-52056679D02*
X94751934Y-52110553D01*
X94751934Y-52110553D02*
X94724996Y-52191366D01*
X94724996Y-52191366D02*
X94617247Y-52299115D01*
X94617247Y-52299115D02*
X94536434Y-52326053D01*
X94536434Y-52326053D02*
X94482560Y-52326053D01*
X94482560Y-52326053D02*
X94401747Y-52299115D01*
X94401747Y-52299115D02*
X94267060Y-52164428D01*
X94267060Y-52164428D02*
X94240123Y-52083616D01*
X94240123Y-52083616D02*
X94240123Y-52029741D01*
X94240123Y-52029741D02*
X94267060Y-51948929D01*
X94267060Y-51948929D02*
X94374810Y-51841179D01*
X94374810Y-51841179D02*
X94455622Y-51814242D01*
X94455622Y-51814242D02*
X94509497Y-51814242D01*
X94509497Y-51814242D02*
X94590309Y-51841179D01*
X83010868Y-49990123D02*
X82660682Y-50340309D01*
X82660682Y-50340309D02*
X83064743Y-50367247D01*
X83064743Y-50367247D02*
X82983931Y-50448059D01*
X82983931Y-50448059D02*
X82956993Y-50528871D01*
X82956993Y-50528871D02*
X82956993Y-50582746D01*
X82956993Y-50582746D02*
X82983931Y-50663558D01*
X82983931Y-50663558D02*
X83118618Y-50798245D01*
X83118618Y-50798245D02*
X83199430Y-50825182D01*
X83199430Y-50825182D02*
X83253305Y-50825182D01*
X83253305Y-50825182D02*
X83334117Y-50798245D01*
X83334117Y-50798245D02*
X83495741Y-50636621D01*
X83495741Y-50636621D02*
X83522679Y-50555808D01*
X83522679Y-50555808D02*
X83522679Y-50501934D01*
X82499057Y-50501934D02*
X82876181Y-51256181D01*
X82876181Y-51256181D02*
X82121934Y-50879057D01*
X81987247Y-51013744D02*
X81637061Y-51363930D01*
X81637061Y-51363930D02*
X82041122Y-51390868D01*
X82041122Y-51390868D02*
X81960309Y-51471680D01*
X81960309Y-51471680D02*
X81933372Y-51552492D01*
X81933372Y-51552492D02*
X81933372Y-51606367D01*
X81933372Y-51606367D02*
X81960309Y-51687179D01*
X81960309Y-51687179D02*
X82094996Y-51821866D01*
X82094996Y-51821866D02*
X82175809Y-51848804D01*
X82175809Y-51848804D02*
X82229683Y-51848804D01*
X82229683Y-51848804D02*
X82310496Y-51821866D01*
X82310496Y-51821866D02*
X82472120Y-51660242D01*
X82472120Y-51660242D02*
X82499057Y-51579430D01*
X82499057Y-51579430D02*
X82499057Y-51525555D01*
X97911494Y-24613372D02*
X97938431Y-24532560D01*
X97938431Y-24532560D02*
X98019243Y-24451748D01*
X98019243Y-24451748D02*
X98126993Y-24397873D01*
X98126993Y-24397873D02*
X98234742Y-24397873D01*
X98234742Y-24397873D02*
X98315555Y-24424810D01*
X98315555Y-24424810D02*
X98450242Y-24505623D01*
X98450242Y-24505623D02*
X98531054Y-24586435D01*
X98531054Y-24586435D02*
X98611866Y-24721122D01*
X98611866Y-24721122D02*
X98638803Y-24801934D01*
X98638803Y-24801934D02*
X98638803Y-24909684D01*
X98638803Y-24909684D02*
X98584929Y-25017433D01*
X98584929Y-25017433D02*
X98531054Y-25071308D01*
X98531054Y-25071308D02*
X98423304Y-25125183D01*
X98423304Y-25125183D02*
X98369429Y-25125183D01*
X98369429Y-25125183D02*
X98180868Y-24936621D01*
X98180868Y-24936621D02*
X98288617Y-24828871D01*
X98180868Y-25421494D02*
X97615182Y-24855809D01*
X97615182Y-24855809D02*
X97399683Y-25071308D01*
X97399683Y-25071308D02*
X97372746Y-25152120D01*
X97372746Y-25152120D02*
X97372746Y-25205995D01*
X97372746Y-25205995D02*
X97399683Y-25286807D01*
X97399683Y-25286807D02*
X97480495Y-25367619D01*
X97480495Y-25367619D02*
X97561307Y-25394557D01*
X97561307Y-25394557D02*
X97615182Y-25394557D01*
X97615182Y-25394557D02*
X97695994Y-25367619D01*
X97695994Y-25367619D02*
X97911494Y-25152120D01*
X97211121Y-25744743D02*
X97238059Y-25663931D01*
X97238059Y-25663931D02*
X97238059Y-25610056D01*
X97238059Y-25610056D02*
X97211121Y-25529244D01*
X97211121Y-25529244D02*
X97184184Y-25502306D01*
X97184184Y-25502306D02*
X97103372Y-25475369D01*
X97103372Y-25475369D02*
X97049497Y-25475369D01*
X97049497Y-25475369D02*
X96968685Y-25502306D01*
X96968685Y-25502306D02*
X96860935Y-25610056D01*
X96860935Y-25610056D02*
X96833998Y-25690868D01*
X96833998Y-25690868D02*
X96833998Y-25744743D01*
X96833998Y-25744743D02*
X96860935Y-25825555D01*
X96860935Y-25825555D02*
X96887872Y-25852493D01*
X96887872Y-25852493D02*
X96968685Y-25879430D01*
X96968685Y-25879430D02*
X97022559Y-25879430D01*
X97022559Y-25879430D02*
X97103372Y-25852493D01*
X97103372Y-25852493D02*
X97211121Y-25744743D01*
X97211121Y-25744743D02*
X97291933Y-25717806D01*
X97291933Y-25717806D02*
X97345808Y-25717806D01*
X97345808Y-25717806D02*
X97426620Y-25744743D01*
X97426620Y-25744743D02*
X97534370Y-25852493D01*
X97534370Y-25852493D02*
X97561307Y-25933305D01*
X97561307Y-25933305D02*
X97561307Y-25987180D01*
X97561307Y-25987180D02*
X97534370Y-26067992D01*
X97534370Y-26067992D02*
X97426620Y-26175741D01*
X97426620Y-26175741D02*
X97345808Y-26202679D01*
X97345808Y-26202679D02*
X97291933Y-26202679D01*
X97291933Y-26202679D02*
X97211121Y-26175741D01*
X97211121Y-26175741D02*
X97103372Y-26067992D01*
X97103372Y-26067992D02*
X97076434Y-25987180D01*
X97076434Y-25987180D02*
X97076434Y-25933305D01*
X97076434Y-25933305D02*
X97103372Y-25852493D01*
X121040868Y-50197998D02*
X121067805Y-50117185D01*
X121067805Y-50117185D02*
X121148618Y-50036373D01*
X121148618Y-50036373D02*
X121256367Y-49982498D01*
X121256367Y-49982498D02*
X121364117Y-49982498D01*
X121364117Y-49982498D02*
X121444929Y-50009436D01*
X121444929Y-50009436D02*
X121579616Y-50090248D01*
X121579616Y-50090248D02*
X121660428Y-50171060D01*
X121660428Y-50171060D02*
X121741241Y-50305747D01*
X121741241Y-50305747D02*
X121768178Y-50386560D01*
X121768178Y-50386560D02*
X121768178Y-50494309D01*
X121768178Y-50494309D02*
X121714303Y-50602059D01*
X121714303Y-50602059D02*
X121660428Y-50655934D01*
X121660428Y-50655934D02*
X121552679Y-50709808D01*
X121552679Y-50709808D02*
X121498804Y-50709808D01*
X121498804Y-50709808D02*
X121310242Y-50521247D01*
X121310242Y-50521247D02*
X121417992Y-50413497D01*
X121310242Y-51006120D02*
X120744557Y-50440434D01*
X120744557Y-50440434D02*
X120529057Y-50655934D01*
X120529057Y-50655934D02*
X120502120Y-50736746D01*
X120502120Y-50736746D02*
X120502120Y-50790621D01*
X120502120Y-50790621D02*
X120529057Y-50871433D01*
X120529057Y-50871433D02*
X120609870Y-50952245D01*
X120609870Y-50952245D02*
X120690682Y-50979182D01*
X120690682Y-50979182D02*
X120744557Y-50979182D01*
X120744557Y-50979182D02*
X120825369Y-50952245D01*
X120825369Y-50952245D02*
X121040868Y-50736746D01*
X120448245Y-51868117D02*
X120771494Y-51544868D01*
X120609870Y-51706492D02*
X120044184Y-51140807D01*
X120044184Y-51140807D02*
X120178871Y-51167744D01*
X120178871Y-51167744D02*
X120286621Y-51167744D01*
X120286621Y-51167744D02*
X120367433Y-51140807D01*
X119397686Y-51787305D02*
X119505436Y-51679555D01*
X119505436Y-51679555D02*
X119586248Y-51652618D01*
X119586248Y-51652618D02*
X119640123Y-51652618D01*
X119640123Y-51652618D02*
X119774810Y-51679555D01*
X119774810Y-51679555D02*
X119909497Y-51760367D01*
X119909497Y-51760367D02*
X120124996Y-51975866D01*
X120124996Y-51975866D02*
X120151934Y-52056679D01*
X120151934Y-52056679D02*
X120151934Y-52110553D01*
X120151934Y-52110553D02*
X120124996Y-52191366D01*
X120124996Y-52191366D02*
X120017247Y-52299115D01*
X120017247Y-52299115D02*
X119936434Y-52326053D01*
X119936434Y-52326053D02*
X119882560Y-52326053D01*
X119882560Y-52326053D02*
X119801747Y-52299115D01*
X119801747Y-52299115D02*
X119667060Y-52164428D01*
X119667060Y-52164428D02*
X119640123Y-52083616D01*
X119640123Y-52083616D02*
X119640123Y-52029741D01*
X119640123Y-52029741D02*
X119667060Y-51948929D01*
X119667060Y-51948929D02*
X119774810Y-51841179D01*
X119774810Y-51841179D02*
X119855622Y-51814242D01*
X119855622Y-51814242D02*
X119909497Y-51814242D01*
X119909497Y-51814242D02*
X119990309Y-51841179D01*
X103018431Y-50186435D02*
X103045368Y-50105623D01*
X103045368Y-50105623D02*
X103126180Y-50024811D01*
X103126180Y-50024811D02*
X103233930Y-49970936D01*
X103233930Y-49970936D02*
X103341680Y-49970936D01*
X103341680Y-49970936D02*
X103422492Y-49997873D01*
X103422492Y-49997873D02*
X103557179Y-50078685D01*
X103557179Y-50078685D02*
X103637991Y-50159498D01*
X103637991Y-50159498D02*
X103718803Y-50294185D01*
X103718803Y-50294185D02*
X103745741Y-50374997D01*
X103745741Y-50374997D02*
X103745741Y-50482746D01*
X103745741Y-50482746D02*
X103691866Y-50590496D01*
X103691866Y-50590496D02*
X103637991Y-50644371D01*
X103637991Y-50644371D02*
X103530241Y-50698246D01*
X103530241Y-50698246D02*
X103476367Y-50698246D01*
X103476367Y-50698246D02*
X103287805Y-50509684D01*
X103287805Y-50509684D02*
X103395554Y-50401934D01*
X103287805Y-50994557D02*
X102722119Y-50428872D01*
X102722119Y-50428872D02*
X102964556Y-51317806D01*
X102964556Y-51317806D02*
X102398871Y-50752120D01*
X102695182Y-51587180D02*
X102129497Y-51021494D01*
X102129497Y-51021494D02*
X101994810Y-51156181D01*
X101994810Y-51156181D02*
X101940935Y-51263931D01*
X101940935Y-51263931D02*
X101940935Y-51371680D01*
X101940935Y-51371680D02*
X101967872Y-51452493D01*
X101967872Y-51452493D02*
X102048685Y-51587180D01*
X102048685Y-51587180D02*
X102129497Y-51667992D01*
X102129497Y-51667992D02*
X102264184Y-51748804D01*
X102264184Y-51748804D02*
X102344996Y-51775741D01*
X102344996Y-51775741D02*
X102452746Y-51775741D01*
X102452746Y-51775741D02*
X102560495Y-51721867D01*
X102560495Y-51721867D02*
X102695182Y-51587180D01*
X90318431Y-24586435D02*
X90345368Y-24505623D01*
X90345368Y-24505623D02*
X90426180Y-24424811D01*
X90426180Y-24424811D02*
X90533930Y-24370936D01*
X90533930Y-24370936D02*
X90641680Y-24370936D01*
X90641680Y-24370936D02*
X90722492Y-24397873D01*
X90722492Y-24397873D02*
X90857179Y-24478685D01*
X90857179Y-24478685D02*
X90937991Y-24559498D01*
X90937991Y-24559498D02*
X91018803Y-24694185D01*
X91018803Y-24694185D02*
X91045741Y-24774997D01*
X91045741Y-24774997D02*
X91045741Y-24882746D01*
X91045741Y-24882746D02*
X90991866Y-24990496D01*
X90991866Y-24990496D02*
X90937991Y-25044371D01*
X90937991Y-25044371D02*
X90830241Y-25098246D01*
X90830241Y-25098246D02*
X90776367Y-25098246D01*
X90776367Y-25098246D02*
X90587805Y-24909684D01*
X90587805Y-24909684D02*
X90695554Y-24801934D01*
X90587805Y-25394557D02*
X90022119Y-24828872D01*
X90022119Y-24828872D02*
X90264556Y-25717806D01*
X90264556Y-25717806D02*
X89698871Y-25152120D01*
X89995182Y-25987180D02*
X89429497Y-25421494D01*
X89429497Y-25421494D02*
X89294810Y-25556181D01*
X89294810Y-25556181D02*
X89240935Y-25663931D01*
X89240935Y-25663931D02*
X89240935Y-25771680D01*
X89240935Y-25771680D02*
X89267872Y-25852493D01*
X89267872Y-25852493D02*
X89348685Y-25987180D01*
X89348685Y-25987180D02*
X89429497Y-26067992D01*
X89429497Y-26067992D02*
X89564184Y-26148804D01*
X89564184Y-26148804D02*
X89644996Y-26175741D01*
X89644996Y-26175741D02*
X89752746Y-26175741D01*
X89752746Y-26175741D02*
X89860495Y-26121867D01*
X89860495Y-26121867D02*
X89995182Y-25987180D01*
X87766868Y-50197998D02*
X87793805Y-50117185D01*
X87793805Y-50117185D02*
X87874618Y-50036373D01*
X87874618Y-50036373D02*
X87982367Y-49982498D01*
X87982367Y-49982498D02*
X88090117Y-49982498D01*
X88090117Y-49982498D02*
X88170929Y-50009436D01*
X88170929Y-50009436D02*
X88305616Y-50090248D01*
X88305616Y-50090248D02*
X88386428Y-50171060D01*
X88386428Y-50171060D02*
X88467241Y-50305747D01*
X88467241Y-50305747D02*
X88494178Y-50386560D01*
X88494178Y-50386560D02*
X88494178Y-50494309D01*
X88494178Y-50494309D02*
X88440303Y-50602059D01*
X88440303Y-50602059D02*
X88386428Y-50655934D01*
X88386428Y-50655934D02*
X88278679Y-50709808D01*
X88278679Y-50709808D02*
X88224804Y-50709808D01*
X88224804Y-50709808D02*
X88036242Y-50521247D01*
X88036242Y-50521247D02*
X88143992Y-50413497D01*
X88036242Y-51006120D02*
X87470557Y-50440434D01*
X87470557Y-50440434D02*
X87255057Y-50655934D01*
X87255057Y-50655934D02*
X87228120Y-50736746D01*
X87228120Y-50736746D02*
X87228120Y-50790621D01*
X87228120Y-50790621D02*
X87255057Y-50871433D01*
X87255057Y-50871433D02*
X87335870Y-50952245D01*
X87335870Y-50952245D02*
X87416682Y-50979182D01*
X87416682Y-50979182D02*
X87470557Y-50979182D01*
X87470557Y-50979182D02*
X87551369Y-50952245D01*
X87551369Y-50952245D02*
X87766868Y-50736746D01*
X86985683Y-51033057D02*
X86931809Y-51033057D01*
X86931809Y-51033057D02*
X86850996Y-51059995D01*
X86850996Y-51059995D02*
X86716309Y-51194682D01*
X86716309Y-51194682D02*
X86689372Y-51275494D01*
X86689372Y-51275494D02*
X86689372Y-51329369D01*
X86689372Y-51329369D02*
X86716309Y-51410181D01*
X86716309Y-51410181D02*
X86770184Y-51464056D01*
X86770184Y-51464056D02*
X86877934Y-51517930D01*
X86877934Y-51517930D02*
X87524431Y-51517930D01*
X87524431Y-51517930D02*
X87174245Y-51868117D01*
X86527747Y-51868117D02*
X86554685Y-51787305D01*
X86554685Y-51787305D02*
X86554685Y-51733430D01*
X86554685Y-51733430D02*
X86527747Y-51652618D01*
X86527747Y-51652618D02*
X86500810Y-51625680D01*
X86500810Y-51625680D02*
X86419998Y-51598743D01*
X86419998Y-51598743D02*
X86366123Y-51598743D01*
X86366123Y-51598743D02*
X86285311Y-51625680D01*
X86285311Y-51625680D02*
X86177561Y-51733430D01*
X86177561Y-51733430D02*
X86150624Y-51814242D01*
X86150624Y-51814242D02*
X86150624Y-51868117D01*
X86150624Y-51868117D02*
X86177561Y-51948929D01*
X86177561Y-51948929D02*
X86204499Y-51975866D01*
X86204499Y-51975866D02*
X86285311Y-52002804D01*
X86285311Y-52002804D02*
X86339186Y-52002804D01*
X86339186Y-52002804D02*
X86419998Y-51975866D01*
X86419998Y-51975866D02*
X86527747Y-51868117D01*
X86527747Y-51868117D02*
X86608560Y-51841179D01*
X86608560Y-51841179D02*
X86662434Y-51841179D01*
X86662434Y-51841179D02*
X86743247Y-51868117D01*
X86743247Y-51868117D02*
X86850996Y-51975866D01*
X86850996Y-51975866D02*
X86877934Y-52056679D01*
X86877934Y-52056679D02*
X86877934Y-52110553D01*
X86877934Y-52110553D02*
X86850996Y-52191366D01*
X86850996Y-52191366D02*
X86743247Y-52299115D01*
X86743247Y-52299115D02*
X86662434Y-52326053D01*
X86662434Y-52326053D02*
X86608560Y-52326053D01*
X86608560Y-52326053D02*
X86527747Y-52299115D01*
X86527747Y-52299115D02*
X86419998Y-52191366D01*
X86419998Y-52191366D02*
X86393060Y-52110553D01*
X86393060Y-52110553D02*
X86393060Y-52056679D01*
X86393060Y-52056679D02*
X86419998Y-51975866D01*
X100451494Y-24613372D02*
X100478431Y-24532560D01*
X100478431Y-24532560D02*
X100559243Y-24451748D01*
X100559243Y-24451748D02*
X100666993Y-24397873D01*
X100666993Y-24397873D02*
X100774742Y-24397873D01*
X100774742Y-24397873D02*
X100855555Y-24424810D01*
X100855555Y-24424810D02*
X100990242Y-24505623D01*
X100990242Y-24505623D02*
X101071054Y-24586435D01*
X101071054Y-24586435D02*
X101151866Y-24721122D01*
X101151866Y-24721122D02*
X101178803Y-24801934D01*
X101178803Y-24801934D02*
X101178803Y-24909684D01*
X101178803Y-24909684D02*
X101124929Y-25017433D01*
X101124929Y-25017433D02*
X101071054Y-25071308D01*
X101071054Y-25071308D02*
X100963304Y-25125183D01*
X100963304Y-25125183D02*
X100909429Y-25125183D01*
X100909429Y-25125183D02*
X100720868Y-24936621D01*
X100720868Y-24936621D02*
X100828617Y-24828871D01*
X100720868Y-25421494D02*
X100155182Y-24855809D01*
X100155182Y-24855809D02*
X99939683Y-25071308D01*
X99939683Y-25071308D02*
X99912746Y-25152120D01*
X99912746Y-25152120D02*
X99912746Y-25205995D01*
X99912746Y-25205995D02*
X99939683Y-25286807D01*
X99939683Y-25286807D02*
X100020495Y-25367619D01*
X100020495Y-25367619D02*
X100101307Y-25394557D01*
X100101307Y-25394557D02*
X100155182Y-25394557D01*
X100155182Y-25394557D02*
X100235994Y-25367619D01*
X100235994Y-25367619D02*
X100451494Y-25152120D01*
X100128245Y-26014117D02*
X100020495Y-26121867D01*
X100020495Y-26121867D02*
X99939683Y-26148804D01*
X99939683Y-26148804D02*
X99885808Y-26148804D01*
X99885808Y-26148804D02*
X99751121Y-26121867D01*
X99751121Y-26121867D02*
X99616434Y-26041054D01*
X99616434Y-26041054D02*
X99400935Y-25825555D01*
X99400935Y-25825555D02*
X99373998Y-25744743D01*
X99373998Y-25744743D02*
X99373998Y-25690868D01*
X99373998Y-25690868D02*
X99400935Y-25610056D01*
X99400935Y-25610056D02*
X99508685Y-25502306D01*
X99508685Y-25502306D02*
X99589497Y-25475369D01*
X99589497Y-25475369D02*
X99643372Y-25475369D01*
X99643372Y-25475369D02*
X99724184Y-25502306D01*
X99724184Y-25502306D02*
X99858871Y-25636993D01*
X99858871Y-25636993D02*
X99885808Y-25717806D01*
X99885808Y-25717806D02*
X99885808Y-25771680D01*
X99885808Y-25771680D02*
X99858871Y-25852493D01*
X99858871Y-25852493D02*
X99751121Y-25960242D01*
X99751121Y-25960242D02*
X99670309Y-25987180D01*
X99670309Y-25987180D02*
X99616434Y-25987180D01*
X99616434Y-25987180D02*
X99535622Y-25960242D01*
X87751494Y-24613372D02*
X87778431Y-24532560D01*
X87778431Y-24532560D02*
X87859243Y-24451748D01*
X87859243Y-24451748D02*
X87966993Y-24397873D01*
X87966993Y-24397873D02*
X88074742Y-24397873D01*
X88074742Y-24397873D02*
X88155555Y-24424810D01*
X88155555Y-24424810D02*
X88290242Y-24505623D01*
X88290242Y-24505623D02*
X88371054Y-24586435D01*
X88371054Y-24586435D02*
X88451866Y-24721122D01*
X88451866Y-24721122D02*
X88478803Y-24801934D01*
X88478803Y-24801934D02*
X88478803Y-24909684D01*
X88478803Y-24909684D02*
X88424929Y-25017433D01*
X88424929Y-25017433D02*
X88371054Y-25071308D01*
X88371054Y-25071308D02*
X88263304Y-25125183D01*
X88263304Y-25125183D02*
X88209429Y-25125183D01*
X88209429Y-25125183D02*
X88020868Y-24936621D01*
X88020868Y-24936621D02*
X88128617Y-24828871D01*
X88020868Y-25421494D02*
X87455182Y-24855809D01*
X87455182Y-24855809D02*
X87239683Y-25071308D01*
X87239683Y-25071308D02*
X87212746Y-25152120D01*
X87212746Y-25152120D02*
X87212746Y-25205995D01*
X87212746Y-25205995D02*
X87239683Y-25286807D01*
X87239683Y-25286807D02*
X87320495Y-25367619D01*
X87320495Y-25367619D02*
X87401307Y-25394557D01*
X87401307Y-25394557D02*
X87455182Y-25394557D01*
X87455182Y-25394557D02*
X87535994Y-25367619D01*
X87535994Y-25367619D02*
X87751494Y-25152120D01*
X86620123Y-25690868D02*
X86889497Y-25421494D01*
X86889497Y-25421494D02*
X87185808Y-25663931D01*
X87185808Y-25663931D02*
X87131933Y-25663931D01*
X87131933Y-25663931D02*
X87051121Y-25690868D01*
X87051121Y-25690868D02*
X86916434Y-25825555D01*
X86916434Y-25825555D02*
X86889497Y-25906367D01*
X86889497Y-25906367D02*
X86889497Y-25960242D01*
X86889497Y-25960242D02*
X86916434Y-26041054D01*
X86916434Y-26041054D02*
X87051121Y-26175741D01*
X87051121Y-26175741D02*
X87131933Y-26202679D01*
X87131933Y-26202679D02*
X87185808Y-26202679D01*
X87185808Y-26202679D02*
X87266620Y-26175741D01*
X87266620Y-26175741D02*
X87401307Y-26041054D01*
X87401307Y-26041054D02*
X87428245Y-25960242D01*
X87428245Y-25960242D02*
X87428245Y-25906367D01*
X72511494Y-24613372D02*
X72538431Y-24532560D01*
X72538431Y-24532560D02*
X72619243Y-24451748D01*
X72619243Y-24451748D02*
X72726993Y-24397873D01*
X72726993Y-24397873D02*
X72834742Y-24397873D01*
X72834742Y-24397873D02*
X72915555Y-24424810D01*
X72915555Y-24424810D02*
X73050242Y-24505623D01*
X73050242Y-24505623D02*
X73131054Y-24586435D01*
X73131054Y-24586435D02*
X73211866Y-24721122D01*
X73211866Y-24721122D02*
X73238803Y-24801934D01*
X73238803Y-24801934D02*
X73238803Y-24909684D01*
X73238803Y-24909684D02*
X73184929Y-25017433D01*
X73184929Y-25017433D02*
X73131054Y-25071308D01*
X73131054Y-25071308D02*
X73023304Y-25125183D01*
X73023304Y-25125183D02*
X72969429Y-25125183D01*
X72969429Y-25125183D02*
X72780868Y-24936621D01*
X72780868Y-24936621D02*
X72888617Y-24828871D01*
X72780868Y-25421494D02*
X72215182Y-24855809D01*
X72215182Y-24855809D02*
X71999683Y-25071308D01*
X71999683Y-25071308D02*
X71972746Y-25152120D01*
X71972746Y-25152120D02*
X71972746Y-25205995D01*
X71972746Y-25205995D02*
X71999683Y-25286807D01*
X71999683Y-25286807D02*
X72080495Y-25367619D01*
X72080495Y-25367619D02*
X72161307Y-25394557D01*
X72161307Y-25394557D02*
X72215182Y-25394557D01*
X72215182Y-25394557D02*
X72295994Y-25367619D01*
X72295994Y-25367619D02*
X72511494Y-25152120D01*
X71541747Y-25529244D02*
X71487872Y-25583119D01*
X71487872Y-25583119D02*
X71460935Y-25663931D01*
X71460935Y-25663931D02*
X71460935Y-25717806D01*
X71460935Y-25717806D02*
X71487872Y-25798618D01*
X71487872Y-25798618D02*
X71568685Y-25933305D01*
X71568685Y-25933305D02*
X71703372Y-26067992D01*
X71703372Y-26067992D02*
X71838059Y-26148804D01*
X71838059Y-26148804D02*
X71918871Y-26175741D01*
X71918871Y-26175741D02*
X71972746Y-26175741D01*
X71972746Y-26175741D02*
X72053558Y-26148804D01*
X72053558Y-26148804D02*
X72107433Y-26094929D01*
X72107433Y-26094929D02*
X72134370Y-26014117D01*
X72134370Y-26014117D02*
X72134370Y-25960242D01*
X72134370Y-25960242D02*
X72107433Y-25879430D01*
X72107433Y-25879430D02*
X72026620Y-25744743D01*
X72026620Y-25744743D02*
X71891933Y-25610056D01*
X71891933Y-25610056D02*
X71757246Y-25529244D01*
X71757246Y-25529244D02*
X71676434Y-25502306D01*
X71676434Y-25502306D02*
X71622559Y-25502306D01*
X71622559Y-25502306D02*
X71541747Y-25529244D01*
X82671494Y-24613372D02*
X82698431Y-24532560D01*
X82698431Y-24532560D02*
X82779243Y-24451748D01*
X82779243Y-24451748D02*
X82886993Y-24397873D01*
X82886993Y-24397873D02*
X82994742Y-24397873D01*
X82994742Y-24397873D02*
X83075555Y-24424810D01*
X83075555Y-24424810D02*
X83210242Y-24505623D01*
X83210242Y-24505623D02*
X83291054Y-24586435D01*
X83291054Y-24586435D02*
X83371866Y-24721122D01*
X83371866Y-24721122D02*
X83398803Y-24801934D01*
X83398803Y-24801934D02*
X83398803Y-24909684D01*
X83398803Y-24909684D02*
X83344929Y-25017433D01*
X83344929Y-25017433D02*
X83291054Y-25071308D01*
X83291054Y-25071308D02*
X83183304Y-25125183D01*
X83183304Y-25125183D02*
X83129429Y-25125183D01*
X83129429Y-25125183D02*
X82940868Y-24936621D01*
X82940868Y-24936621D02*
X83048617Y-24828871D01*
X82940868Y-25421494D02*
X82375182Y-24855809D01*
X82375182Y-24855809D02*
X82159683Y-25071308D01*
X82159683Y-25071308D02*
X82132746Y-25152120D01*
X82132746Y-25152120D02*
X82132746Y-25205995D01*
X82132746Y-25205995D02*
X82159683Y-25286807D01*
X82159683Y-25286807D02*
X82240495Y-25367619D01*
X82240495Y-25367619D02*
X82321307Y-25394557D01*
X82321307Y-25394557D02*
X82375182Y-25394557D01*
X82375182Y-25394557D02*
X82455994Y-25367619D01*
X82455994Y-25367619D02*
X82671494Y-25152120D01*
X81863372Y-25367619D02*
X81513185Y-25717806D01*
X81513185Y-25717806D02*
X81917246Y-25744743D01*
X81917246Y-25744743D02*
X81836434Y-25825555D01*
X81836434Y-25825555D02*
X81809497Y-25906367D01*
X81809497Y-25906367D02*
X81809497Y-25960242D01*
X81809497Y-25960242D02*
X81836434Y-26041054D01*
X81836434Y-26041054D02*
X81971121Y-26175741D01*
X81971121Y-26175741D02*
X82051933Y-26202679D01*
X82051933Y-26202679D02*
X82105808Y-26202679D01*
X82105808Y-26202679D02*
X82186620Y-26175741D01*
X82186620Y-26175741D02*
X82348245Y-26014117D01*
X82348245Y-26014117D02*
X82375182Y-25933305D01*
X82375182Y-25933305D02*
X82375182Y-25879430D01*
X115718431Y-24586435D02*
X115745368Y-24505623D01*
X115745368Y-24505623D02*
X115826180Y-24424811D01*
X115826180Y-24424811D02*
X115933930Y-24370936D01*
X115933930Y-24370936D02*
X116041680Y-24370936D01*
X116041680Y-24370936D02*
X116122492Y-24397873D01*
X116122492Y-24397873D02*
X116257179Y-24478685D01*
X116257179Y-24478685D02*
X116337991Y-24559498D01*
X116337991Y-24559498D02*
X116418803Y-24694185D01*
X116418803Y-24694185D02*
X116445741Y-24774997D01*
X116445741Y-24774997D02*
X116445741Y-24882746D01*
X116445741Y-24882746D02*
X116391866Y-24990496D01*
X116391866Y-24990496D02*
X116337991Y-25044371D01*
X116337991Y-25044371D02*
X116230241Y-25098246D01*
X116230241Y-25098246D02*
X116176367Y-25098246D01*
X116176367Y-25098246D02*
X115987805Y-24909684D01*
X115987805Y-24909684D02*
X116095554Y-24801934D01*
X115987805Y-25394557D02*
X115422119Y-24828872D01*
X115422119Y-24828872D02*
X115664556Y-25717806D01*
X115664556Y-25717806D02*
X115098871Y-25152120D01*
X115395182Y-25987180D02*
X114829497Y-25421494D01*
X114829497Y-25421494D02*
X114694810Y-25556181D01*
X114694810Y-25556181D02*
X114640935Y-25663931D01*
X114640935Y-25663931D02*
X114640935Y-25771680D01*
X114640935Y-25771680D02*
X114667872Y-25852493D01*
X114667872Y-25852493D02*
X114748685Y-25987180D01*
X114748685Y-25987180D02*
X114829497Y-26067992D01*
X114829497Y-26067992D02*
X114964184Y-26148804D01*
X114964184Y-26148804D02*
X115044996Y-26175741D01*
X115044996Y-26175741D02*
X115152746Y-26175741D01*
X115152746Y-26175741D02*
X115260495Y-26121867D01*
X115260495Y-26121867D02*
X115395182Y-25987180D01*
X77618431Y-24586435D02*
X77645368Y-24505623D01*
X77645368Y-24505623D02*
X77726180Y-24424811D01*
X77726180Y-24424811D02*
X77833930Y-24370936D01*
X77833930Y-24370936D02*
X77941680Y-24370936D01*
X77941680Y-24370936D02*
X78022492Y-24397873D01*
X78022492Y-24397873D02*
X78157179Y-24478685D01*
X78157179Y-24478685D02*
X78237991Y-24559498D01*
X78237991Y-24559498D02*
X78318803Y-24694185D01*
X78318803Y-24694185D02*
X78345741Y-24774997D01*
X78345741Y-24774997D02*
X78345741Y-24882746D01*
X78345741Y-24882746D02*
X78291866Y-24990496D01*
X78291866Y-24990496D02*
X78237991Y-25044371D01*
X78237991Y-25044371D02*
X78130241Y-25098246D01*
X78130241Y-25098246D02*
X78076367Y-25098246D01*
X78076367Y-25098246D02*
X77887805Y-24909684D01*
X77887805Y-24909684D02*
X77995554Y-24801934D01*
X77887805Y-25394557D02*
X77322119Y-24828872D01*
X77322119Y-24828872D02*
X77564556Y-25717806D01*
X77564556Y-25717806D02*
X76998871Y-25152120D01*
X77295182Y-25987180D02*
X76729497Y-25421494D01*
X76729497Y-25421494D02*
X76594810Y-25556181D01*
X76594810Y-25556181D02*
X76540935Y-25663931D01*
X76540935Y-25663931D02*
X76540935Y-25771680D01*
X76540935Y-25771680D02*
X76567872Y-25852493D01*
X76567872Y-25852493D02*
X76648685Y-25987180D01*
X76648685Y-25987180D02*
X76729497Y-26067992D01*
X76729497Y-26067992D02*
X76864184Y-26148804D01*
X76864184Y-26148804D02*
X76944996Y-26175741D01*
X76944996Y-26175741D02*
X77052746Y-26175741D01*
X77052746Y-26175741D02*
X77160495Y-26121867D01*
X77160495Y-26121867D02*
X77295182Y-25987180D01*
X108340868Y-50197998D02*
X108367805Y-50117185D01*
X108367805Y-50117185D02*
X108448618Y-50036373D01*
X108448618Y-50036373D02*
X108556367Y-49982498D01*
X108556367Y-49982498D02*
X108664117Y-49982498D01*
X108664117Y-49982498D02*
X108744929Y-50009436D01*
X108744929Y-50009436D02*
X108879616Y-50090248D01*
X108879616Y-50090248D02*
X108960428Y-50171060D01*
X108960428Y-50171060D02*
X109041241Y-50305747D01*
X109041241Y-50305747D02*
X109068178Y-50386560D01*
X109068178Y-50386560D02*
X109068178Y-50494309D01*
X109068178Y-50494309D02*
X109014303Y-50602059D01*
X109014303Y-50602059D02*
X108960428Y-50655934D01*
X108960428Y-50655934D02*
X108852679Y-50709808D01*
X108852679Y-50709808D02*
X108798804Y-50709808D01*
X108798804Y-50709808D02*
X108610242Y-50521247D01*
X108610242Y-50521247D02*
X108717992Y-50413497D01*
X108610242Y-51006120D02*
X108044557Y-50440434D01*
X108044557Y-50440434D02*
X107829057Y-50655934D01*
X107829057Y-50655934D02*
X107802120Y-50736746D01*
X107802120Y-50736746D02*
X107802120Y-50790621D01*
X107802120Y-50790621D02*
X107829057Y-50871433D01*
X107829057Y-50871433D02*
X107909870Y-50952245D01*
X107909870Y-50952245D02*
X107990682Y-50979182D01*
X107990682Y-50979182D02*
X108044557Y-50979182D01*
X108044557Y-50979182D02*
X108125369Y-50952245D01*
X108125369Y-50952245D02*
X108340868Y-50736746D01*
X107559683Y-51033057D02*
X107505809Y-51033057D01*
X107505809Y-51033057D02*
X107424996Y-51059995D01*
X107424996Y-51059995D02*
X107290309Y-51194682D01*
X107290309Y-51194682D02*
X107263372Y-51275494D01*
X107263372Y-51275494D02*
X107263372Y-51329369D01*
X107263372Y-51329369D02*
X107290309Y-51410181D01*
X107290309Y-51410181D02*
X107344184Y-51464056D01*
X107344184Y-51464056D02*
X107451934Y-51517930D01*
X107451934Y-51517930D02*
X108098431Y-51517930D01*
X108098431Y-51517930D02*
X107748245Y-51868117D01*
X106832373Y-51652618D02*
X106778499Y-51706492D01*
X106778499Y-51706492D02*
X106751561Y-51787305D01*
X106751561Y-51787305D02*
X106751561Y-51841179D01*
X106751561Y-51841179D02*
X106778499Y-51921992D01*
X106778499Y-51921992D02*
X106859311Y-52056679D01*
X106859311Y-52056679D02*
X106993998Y-52191366D01*
X106993998Y-52191366D02*
X107128685Y-52272178D01*
X107128685Y-52272178D02*
X107209497Y-52299115D01*
X107209497Y-52299115D02*
X107263372Y-52299115D01*
X107263372Y-52299115D02*
X107344184Y-52272178D01*
X107344184Y-52272178D02*
X107398059Y-52218303D01*
X107398059Y-52218303D02*
X107424996Y-52137491D01*
X107424996Y-52137491D02*
X107424996Y-52083616D01*
X107424996Y-52083616D02*
X107398059Y-52002804D01*
X107398059Y-52002804D02*
X107317247Y-51868117D01*
X107317247Y-51868117D02*
X107182560Y-51733430D01*
X107182560Y-51733430D02*
X107047873Y-51652618D01*
X107047873Y-51652618D02*
X106967060Y-51625680D01*
X106967060Y-51625680D02*
X106913186Y-51625680D01*
X106913186Y-51625680D02*
X106832373Y-51652618D01*
X110880868Y-50197998D02*
X110907805Y-50117185D01*
X110907805Y-50117185D02*
X110988618Y-50036373D01*
X110988618Y-50036373D02*
X111096367Y-49982498D01*
X111096367Y-49982498D02*
X111204117Y-49982498D01*
X111204117Y-49982498D02*
X111284929Y-50009436D01*
X111284929Y-50009436D02*
X111419616Y-50090248D01*
X111419616Y-50090248D02*
X111500428Y-50171060D01*
X111500428Y-50171060D02*
X111581241Y-50305747D01*
X111581241Y-50305747D02*
X111608178Y-50386560D01*
X111608178Y-50386560D02*
X111608178Y-50494309D01*
X111608178Y-50494309D02*
X111554303Y-50602059D01*
X111554303Y-50602059D02*
X111500428Y-50655934D01*
X111500428Y-50655934D02*
X111392679Y-50709808D01*
X111392679Y-50709808D02*
X111338804Y-50709808D01*
X111338804Y-50709808D02*
X111150242Y-50521247D01*
X111150242Y-50521247D02*
X111257992Y-50413497D01*
X111150242Y-51006120D02*
X110584557Y-50440434D01*
X110584557Y-50440434D02*
X110369057Y-50655934D01*
X110369057Y-50655934D02*
X110342120Y-50736746D01*
X110342120Y-50736746D02*
X110342120Y-50790621D01*
X110342120Y-50790621D02*
X110369057Y-50871433D01*
X110369057Y-50871433D02*
X110449870Y-50952245D01*
X110449870Y-50952245D02*
X110530682Y-50979182D01*
X110530682Y-50979182D02*
X110584557Y-50979182D01*
X110584557Y-50979182D02*
X110665369Y-50952245D01*
X110665369Y-50952245D02*
X110880868Y-50736746D01*
X110288245Y-51868117D02*
X110611494Y-51544868D01*
X110449870Y-51706492D02*
X109884184Y-51140807D01*
X109884184Y-51140807D02*
X110018871Y-51167744D01*
X110018871Y-51167744D02*
X110126621Y-51167744D01*
X110126621Y-51167744D02*
X110207433Y-51140807D01*
X110018871Y-52137491D02*
X109911121Y-52245240D01*
X109911121Y-52245240D02*
X109830309Y-52272178D01*
X109830309Y-52272178D02*
X109776434Y-52272178D01*
X109776434Y-52272178D02*
X109641747Y-52245240D01*
X109641747Y-52245240D02*
X109507060Y-52164428D01*
X109507060Y-52164428D02*
X109291561Y-51948929D01*
X109291561Y-51948929D02*
X109264624Y-51868117D01*
X109264624Y-51868117D02*
X109264624Y-51814242D01*
X109264624Y-51814242D02*
X109291561Y-51733430D01*
X109291561Y-51733430D02*
X109399311Y-51625680D01*
X109399311Y-51625680D02*
X109480123Y-51598743D01*
X109480123Y-51598743D02*
X109533998Y-51598743D01*
X109533998Y-51598743D02*
X109614810Y-51625680D01*
X109614810Y-51625680D02*
X109749497Y-51760367D01*
X109749497Y-51760367D02*
X109776434Y-51841179D01*
X109776434Y-51841179D02*
X109776434Y-51895054D01*
X109776434Y-51895054D02*
X109749497Y-51975866D01*
X109749497Y-51975866D02*
X109641747Y-52083616D01*
X109641747Y-52083616D02*
X109560935Y-52110553D01*
X109560935Y-52110553D02*
X109507060Y-52110553D01*
X109507060Y-52110553D02*
X109426248Y-52083616D01*
X80131494Y-24513372D02*
X80158431Y-24432560D01*
X80158431Y-24432560D02*
X80239243Y-24351748D01*
X80239243Y-24351748D02*
X80346993Y-24297873D01*
X80346993Y-24297873D02*
X80454742Y-24297873D01*
X80454742Y-24297873D02*
X80535555Y-24324810D01*
X80535555Y-24324810D02*
X80670242Y-24405623D01*
X80670242Y-24405623D02*
X80751054Y-24486435D01*
X80751054Y-24486435D02*
X80831866Y-24621122D01*
X80831866Y-24621122D02*
X80858803Y-24701934D01*
X80858803Y-24701934D02*
X80858803Y-24809684D01*
X80858803Y-24809684D02*
X80804929Y-24917433D01*
X80804929Y-24917433D02*
X80751054Y-24971308D01*
X80751054Y-24971308D02*
X80643304Y-25025183D01*
X80643304Y-25025183D02*
X80589429Y-25025183D01*
X80589429Y-25025183D02*
X80400868Y-24836621D01*
X80400868Y-24836621D02*
X80508617Y-24728871D01*
X80400868Y-25321494D02*
X79835182Y-24755809D01*
X79835182Y-24755809D02*
X79619683Y-24971308D01*
X79619683Y-24971308D02*
X79592746Y-25052120D01*
X79592746Y-25052120D02*
X79592746Y-25105995D01*
X79592746Y-25105995D02*
X79619683Y-25186807D01*
X79619683Y-25186807D02*
X79700495Y-25267619D01*
X79700495Y-25267619D02*
X79781307Y-25294557D01*
X79781307Y-25294557D02*
X79835182Y-25294557D01*
X79835182Y-25294557D02*
X79915994Y-25267619D01*
X79915994Y-25267619D02*
X80131494Y-25052120D01*
X79350309Y-25348432D02*
X79296434Y-25348432D01*
X79296434Y-25348432D02*
X79215622Y-25375369D01*
X79215622Y-25375369D02*
X79080935Y-25510056D01*
X79080935Y-25510056D02*
X79053998Y-25590868D01*
X79053998Y-25590868D02*
X79053998Y-25644743D01*
X79053998Y-25644743D02*
X79080935Y-25725555D01*
X79080935Y-25725555D02*
X79134810Y-25779430D01*
X79134810Y-25779430D02*
X79242559Y-25833305D01*
X79242559Y-25833305D02*
X79889057Y-25833305D01*
X79889057Y-25833305D02*
X79538871Y-26183491D01*
X113420868Y-50197998D02*
X113447805Y-50117185D01*
X113447805Y-50117185D02*
X113528618Y-50036373D01*
X113528618Y-50036373D02*
X113636367Y-49982498D01*
X113636367Y-49982498D02*
X113744117Y-49982498D01*
X113744117Y-49982498D02*
X113824929Y-50009436D01*
X113824929Y-50009436D02*
X113959616Y-50090248D01*
X113959616Y-50090248D02*
X114040428Y-50171060D01*
X114040428Y-50171060D02*
X114121241Y-50305747D01*
X114121241Y-50305747D02*
X114148178Y-50386560D01*
X114148178Y-50386560D02*
X114148178Y-50494309D01*
X114148178Y-50494309D02*
X114094303Y-50602059D01*
X114094303Y-50602059D02*
X114040428Y-50655934D01*
X114040428Y-50655934D02*
X113932679Y-50709808D01*
X113932679Y-50709808D02*
X113878804Y-50709808D01*
X113878804Y-50709808D02*
X113690242Y-50521247D01*
X113690242Y-50521247D02*
X113797992Y-50413497D01*
X113690242Y-51006120D02*
X113124557Y-50440434D01*
X113124557Y-50440434D02*
X112909057Y-50655934D01*
X112909057Y-50655934D02*
X112882120Y-50736746D01*
X112882120Y-50736746D02*
X112882120Y-50790621D01*
X112882120Y-50790621D02*
X112909057Y-50871433D01*
X112909057Y-50871433D02*
X112989870Y-50952245D01*
X112989870Y-50952245D02*
X113070682Y-50979182D01*
X113070682Y-50979182D02*
X113124557Y-50979182D01*
X113124557Y-50979182D02*
X113205369Y-50952245D01*
X113205369Y-50952245D02*
X113420868Y-50736746D01*
X112828245Y-51868117D02*
X113151494Y-51544868D01*
X112989870Y-51706492D02*
X112424184Y-51140807D01*
X112424184Y-51140807D02*
X112558871Y-51167744D01*
X112558871Y-51167744D02*
X112666621Y-51167744D01*
X112666621Y-51167744D02*
X112747433Y-51140807D01*
X112181747Y-51868117D02*
X112208685Y-51787305D01*
X112208685Y-51787305D02*
X112208685Y-51733430D01*
X112208685Y-51733430D02*
X112181747Y-51652618D01*
X112181747Y-51652618D02*
X112154810Y-51625680D01*
X112154810Y-51625680D02*
X112073998Y-51598743D01*
X112073998Y-51598743D02*
X112020123Y-51598743D01*
X112020123Y-51598743D02*
X111939311Y-51625680D01*
X111939311Y-51625680D02*
X111831561Y-51733430D01*
X111831561Y-51733430D02*
X111804624Y-51814242D01*
X111804624Y-51814242D02*
X111804624Y-51868117D01*
X111804624Y-51868117D02*
X111831561Y-51948929D01*
X111831561Y-51948929D02*
X111858499Y-51975866D01*
X111858499Y-51975866D02*
X111939311Y-52002804D01*
X111939311Y-52002804D02*
X111993186Y-52002804D01*
X111993186Y-52002804D02*
X112073998Y-51975866D01*
X112073998Y-51975866D02*
X112181747Y-51868117D01*
X112181747Y-51868117D02*
X112262560Y-51841179D01*
X112262560Y-51841179D02*
X112316434Y-51841179D01*
X112316434Y-51841179D02*
X112397247Y-51868117D01*
X112397247Y-51868117D02*
X112504996Y-51975866D01*
X112504996Y-51975866D02*
X112531934Y-52056679D01*
X112531934Y-52056679D02*
X112531934Y-52110553D01*
X112531934Y-52110553D02*
X112504996Y-52191366D01*
X112504996Y-52191366D02*
X112397247Y-52299115D01*
X112397247Y-52299115D02*
X112316434Y-52326053D01*
X112316434Y-52326053D02*
X112262560Y-52326053D01*
X112262560Y-52326053D02*
X112181747Y-52299115D01*
X112181747Y-52299115D02*
X112073998Y-52191366D01*
X112073998Y-52191366D02*
X112047060Y-52110553D01*
X112047060Y-52110553D02*
X112047060Y-52056679D01*
X112047060Y-52056679D02*
X112073998Y-51975866D01*
X92831494Y-24613372D02*
X92858431Y-24532560D01*
X92858431Y-24532560D02*
X92939243Y-24451748D01*
X92939243Y-24451748D02*
X93046993Y-24397873D01*
X93046993Y-24397873D02*
X93154742Y-24397873D01*
X93154742Y-24397873D02*
X93235555Y-24424810D01*
X93235555Y-24424810D02*
X93370242Y-24505623D01*
X93370242Y-24505623D02*
X93451054Y-24586435D01*
X93451054Y-24586435D02*
X93531866Y-24721122D01*
X93531866Y-24721122D02*
X93558803Y-24801934D01*
X93558803Y-24801934D02*
X93558803Y-24909684D01*
X93558803Y-24909684D02*
X93504929Y-25017433D01*
X93504929Y-25017433D02*
X93451054Y-25071308D01*
X93451054Y-25071308D02*
X93343304Y-25125183D01*
X93343304Y-25125183D02*
X93289429Y-25125183D01*
X93289429Y-25125183D02*
X93100868Y-24936621D01*
X93100868Y-24936621D02*
X93208617Y-24828871D01*
X93100868Y-25421494D02*
X92535182Y-24855809D01*
X92535182Y-24855809D02*
X92319683Y-25071308D01*
X92319683Y-25071308D02*
X92292746Y-25152120D01*
X92292746Y-25152120D02*
X92292746Y-25205995D01*
X92292746Y-25205995D02*
X92319683Y-25286807D01*
X92319683Y-25286807D02*
X92400495Y-25367619D01*
X92400495Y-25367619D02*
X92481307Y-25394557D01*
X92481307Y-25394557D02*
X92535182Y-25394557D01*
X92535182Y-25394557D02*
X92615994Y-25367619D01*
X92615994Y-25367619D02*
X92831494Y-25152120D01*
X91727060Y-25663931D02*
X91834810Y-25556181D01*
X91834810Y-25556181D02*
X91915622Y-25529244D01*
X91915622Y-25529244D02*
X91969497Y-25529244D01*
X91969497Y-25529244D02*
X92104184Y-25556181D01*
X92104184Y-25556181D02*
X92238871Y-25636993D01*
X92238871Y-25636993D02*
X92454370Y-25852493D01*
X92454370Y-25852493D02*
X92481307Y-25933305D01*
X92481307Y-25933305D02*
X92481307Y-25987180D01*
X92481307Y-25987180D02*
X92454370Y-26067992D01*
X92454370Y-26067992D02*
X92346620Y-26175741D01*
X92346620Y-26175741D02*
X92265808Y-26202679D01*
X92265808Y-26202679D02*
X92211933Y-26202679D01*
X92211933Y-26202679D02*
X92131121Y-26175741D01*
X92131121Y-26175741D02*
X91996434Y-26041054D01*
X91996434Y-26041054D02*
X91969497Y-25960242D01*
X91969497Y-25960242D02*
X91969497Y-25906367D01*
X91969497Y-25906367D02*
X91996434Y-25825555D01*
X91996434Y-25825555D02*
X92104184Y-25717806D01*
X92104184Y-25717806D02*
X92184996Y-25690868D01*
X92184996Y-25690868D02*
X92238871Y-25690868D01*
X92238871Y-25690868D02*
X92319683Y-25717806D01*
X105810868Y-50197998D02*
X105837805Y-50117185D01*
X105837805Y-50117185D02*
X105918618Y-50036373D01*
X105918618Y-50036373D02*
X106026367Y-49982498D01*
X106026367Y-49982498D02*
X106134117Y-49982498D01*
X106134117Y-49982498D02*
X106214929Y-50009436D01*
X106214929Y-50009436D02*
X106349616Y-50090248D01*
X106349616Y-50090248D02*
X106430428Y-50171060D01*
X106430428Y-50171060D02*
X106511241Y-50305747D01*
X106511241Y-50305747D02*
X106538178Y-50386560D01*
X106538178Y-50386560D02*
X106538178Y-50494309D01*
X106538178Y-50494309D02*
X106484303Y-50602059D01*
X106484303Y-50602059D02*
X106430428Y-50655934D01*
X106430428Y-50655934D02*
X106322679Y-50709808D01*
X106322679Y-50709808D02*
X106268804Y-50709808D01*
X106268804Y-50709808D02*
X106080242Y-50521247D01*
X106080242Y-50521247D02*
X106187992Y-50413497D01*
X106080242Y-51006120D02*
X105514557Y-50440434D01*
X105514557Y-50440434D02*
X105299057Y-50655934D01*
X105299057Y-50655934D02*
X105272120Y-50736746D01*
X105272120Y-50736746D02*
X105272120Y-50790621D01*
X105272120Y-50790621D02*
X105299057Y-50871433D01*
X105299057Y-50871433D02*
X105379870Y-50952245D01*
X105379870Y-50952245D02*
X105460682Y-50979182D01*
X105460682Y-50979182D02*
X105514557Y-50979182D01*
X105514557Y-50979182D02*
X105595369Y-50952245D01*
X105595369Y-50952245D02*
X105810868Y-50736746D01*
X105029683Y-51033057D02*
X104975809Y-51033057D01*
X104975809Y-51033057D02*
X104894996Y-51059995D01*
X104894996Y-51059995D02*
X104760309Y-51194682D01*
X104760309Y-51194682D02*
X104733372Y-51275494D01*
X104733372Y-51275494D02*
X104733372Y-51329369D01*
X104733372Y-51329369D02*
X104760309Y-51410181D01*
X104760309Y-51410181D02*
X104814184Y-51464056D01*
X104814184Y-51464056D02*
X104921934Y-51517930D01*
X104921934Y-51517930D02*
X105568431Y-51517930D01*
X105568431Y-51517930D02*
X105218245Y-51868117D01*
X104679497Y-52406865D02*
X105002746Y-52083616D01*
X104841121Y-52245240D02*
X104275436Y-51679555D01*
X104275436Y-51679555D02*
X104410123Y-51706492D01*
X104410123Y-51706492D02*
X104517873Y-51706492D01*
X104517873Y-51706492D02*
X104598685Y-51679555D01*
X100720868Y-50197998D02*
X100747805Y-50117185D01*
X100747805Y-50117185D02*
X100828618Y-50036373D01*
X100828618Y-50036373D02*
X100936367Y-49982498D01*
X100936367Y-49982498D02*
X101044117Y-49982498D01*
X101044117Y-49982498D02*
X101124929Y-50009436D01*
X101124929Y-50009436D02*
X101259616Y-50090248D01*
X101259616Y-50090248D02*
X101340428Y-50171060D01*
X101340428Y-50171060D02*
X101421241Y-50305747D01*
X101421241Y-50305747D02*
X101448178Y-50386560D01*
X101448178Y-50386560D02*
X101448178Y-50494309D01*
X101448178Y-50494309D02*
X101394303Y-50602059D01*
X101394303Y-50602059D02*
X101340428Y-50655934D01*
X101340428Y-50655934D02*
X101232679Y-50709808D01*
X101232679Y-50709808D02*
X101178804Y-50709808D01*
X101178804Y-50709808D02*
X100990242Y-50521247D01*
X100990242Y-50521247D02*
X101097992Y-50413497D01*
X100990242Y-51006120D02*
X100424557Y-50440434D01*
X100424557Y-50440434D02*
X100209057Y-50655934D01*
X100209057Y-50655934D02*
X100182120Y-50736746D01*
X100182120Y-50736746D02*
X100182120Y-50790621D01*
X100182120Y-50790621D02*
X100209057Y-50871433D01*
X100209057Y-50871433D02*
X100289870Y-50952245D01*
X100289870Y-50952245D02*
X100370682Y-50979182D01*
X100370682Y-50979182D02*
X100424557Y-50979182D01*
X100424557Y-50979182D02*
X100505369Y-50952245D01*
X100505369Y-50952245D02*
X100720868Y-50736746D01*
X99939683Y-51033057D02*
X99885809Y-51033057D01*
X99885809Y-51033057D02*
X99804996Y-51059995D01*
X99804996Y-51059995D02*
X99670309Y-51194682D01*
X99670309Y-51194682D02*
X99643372Y-51275494D01*
X99643372Y-51275494D02*
X99643372Y-51329369D01*
X99643372Y-51329369D02*
X99670309Y-51410181D01*
X99670309Y-51410181D02*
X99724184Y-51464056D01*
X99724184Y-51464056D02*
X99831934Y-51517930D01*
X99831934Y-51517930D02*
X100478431Y-51517930D01*
X100478431Y-51517930D02*
X100128245Y-51868117D01*
X99400935Y-51571805D02*
X99347060Y-51571805D01*
X99347060Y-51571805D02*
X99266248Y-51598743D01*
X99266248Y-51598743D02*
X99131561Y-51733430D01*
X99131561Y-51733430D02*
X99104624Y-51814242D01*
X99104624Y-51814242D02*
X99104624Y-51868117D01*
X99104624Y-51868117D02*
X99131561Y-51948929D01*
X99131561Y-51948929D02*
X99185436Y-52002804D01*
X99185436Y-52002804D02*
X99293186Y-52056679D01*
X99293186Y-52056679D02*
X99939683Y-52056679D01*
X99939683Y-52056679D02*
X99589497Y-52406865D01*
X103018431Y-24586435D02*
X103045368Y-24505623D01*
X103045368Y-24505623D02*
X103126180Y-24424811D01*
X103126180Y-24424811D02*
X103233930Y-24370936D01*
X103233930Y-24370936D02*
X103341680Y-24370936D01*
X103341680Y-24370936D02*
X103422492Y-24397873D01*
X103422492Y-24397873D02*
X103557179Y-24478685D01*
X103557179Y-24478685D02*
X103637991Y-24559498D01*
X103637991Y-24559498D02*
X103718803Y-24694185D01*
X103718803Y-24694185D02*
X103745741Y-24774997D01*
X103745741Y-24774997D02*
X103745741Y-24882746D01*
X103745741Y-24882746D02*
X103691866Y-24990496D01*
X103691866Y-24990496D02*
X103637991Y-25044371D01*
X103637991Y-25044371D02*
X103530241Y-25098246D01*
X103530241Y-25098246D02*
X103476367Y-25098246D01*
X103476367Y-25098246D02*
X103287805Y-24909684D01*
X103287805Y-24909684D02*
X103395554Y-24801934D01*
X103287805Y-25394557D02*
X102722119Y-24828872D01*
X102722119Y-24828872D02*
X102964556Y-25717806D01*
X102964556Y-25717806D02*
X102398871Y-25152120D01*
X102695182Y-25987180D02*
X102129497Y-25421494D01*
X102129497Y-25421494D02*
X101994810Y-25556181D01*
X101994810Y-25556181D02*
X101940935Y-25663931D01*
X101940935Y-25663931D02*
X101940935Y-25771680D01*
X101940935Y-25771680D02*
X101967872Y-25852493D01*
X101967872Y-25852493D02*
X102048685Y-25987180D01*
X102048685Y-25987180D02*
X102129497Y-26067992D01*
X102129497Y-26067992D02*
X102264184Y-26148804D01*
X102264184Y-26148804D02*
X102344996Y-26175741D01*
X102344996Y-26175741D02*
X102452746Y-26175741D01*
X102452746Y-26175741D02*
X102560495Y-26121867D01*
X102560495Y-26121867D02*
X102695182Y-25987180D01*
X118500868Y-24043998D02*
X118527805Y-23963185D01*
X118527805Y-23963185D02*
X118608618Y-23882373D01*
X118608618Y-23882373D02*
X118716367Y-23828498D01*
X118716367Y-23828498D02*
X118824117Y-23828498D01*
X118824117Y-23828498D02*
X118904929Y-23855436D01*
X118904929Y-23855436D02*
X119039616Y-23936248D01*
X119039616Y-23936248D02*
X119120428Y-24017060D01*
X119120428Y-24017060D02*
X119201241Y-24151747D01*
X119201241Y-24151747D02*
X119228178Y-24232560D01*
X119228178Y-24232560D02*
X119228178Y-24340309D01*
X119228178Y-24340309D02*
X119174303Y-24448059D01*
X119174303Y-24448059D02*
X119120428Y-24501934D01*
X119120428Y-24501934D02*
X119012679Y-24555808D01*
X119012679Y-24555808D02*
X118958804Y-24555808D01*
X118958804Y-24555808D02*
X118770242Y-24367247D01*
X118770242Y-24367247D02*
X118877992Y-24259497D01*
X118770242Y-24852120D02*
X118204557Y-24286434D01*
X118204557Y-24286434D02*
X117989057Y-24501934D01*
X117989057Y-24501934D02*
X117962120Y-24582746D01*
X117962120Y-24582746D02*
X117962120Y-24636621D01*
X117962120Y-24636621D02*
X117989057Y-24717433D01*
X117989057Y-24717433D02*
X118069870Y-24798245D01*
X118069870Y-24798245D02*
X118150682Y-24825182D01*
X118150682Y-24825182D02*
X118204557Y-24825182D01*
X118204557Y-24825182D02*
X118285369Y-24798245D01*
X118285369Y-24798245D02*
X118500868Y-24582746D01*
X117908245Y-25714117D02*
X118231494Y-25390868D01*
X118069870Y-25552492D02*
X117504184Y-24986807D01*
X117504184Y-24986807D02*
X117638871Y-25013744D01*
X117638871Y-25013744D02*
X117746621Y-25013744D01*
X117746621Y-25013744D02*
X117827433Y-24986807D01*
X117046248Y-25821866D02*
X117423372Y-26198990D01*
X116965436Y-25471680D02*
X117504184Y-25741054D01*
X117504184Y-25741054D02*
X117153998Y-26091240D01*
X75590242Y-50020749D02*
X75967366Y-50774996D01*
X75967366Y-50774996D02*
X75213118Y-50397873D01*
X75590242Y-51098245D02*
X75536367Y-51205995D01*
X75536367Y-51205995D02*
X75401680Y-51340682D01*
X75401680Y-51340682D02*
X75320868Y-51367619D01*
X75320868Y-51367619D02*
X75266993Y-51367619D01*
X75266993Y-51367619D02*
X75186181Y-51340682D01*
X75186181Y-51340682D02*
X75132306Y-51286807D01*
X75132306Y-51286807D02*
X75105369Y-51205995D01*
X75105369Y-51205995D02*
X75105369Y-51152120D01*
X75105369Y-51152120D02*
X75132306Y-51071308D01*
X75132306Y-51071308D02*
X75213118Y-50936621D01*
X75213118Y-50936621D02*
X75240056Y-50855808D01*
X75240056Y-50855808D02*
X75240056Y-50801934D01*
X75240056Y-50801934D02*
X75213118Y-50721121D01*
X75213118Y-50721121D02*
X75159244Y-50667247D01*
X75159244Y-50667247D02*
X75078431Y-50640309D01*
X75078431Y-50640309D02*
X75024557Y-50640309D01*
X75024557Y-50640309D02*
X74943744Y-50667247D01*
X74943744Y-50667247D02*
X74809057Y-50801934D01*
X74809057Y-50801934D02*
X74755183Y-50909683D01*
X74674370Y-51529244D02*
X74943744Y-51798618D01*
X74566621Y-51044370D02*
X74674370Y-51529244D01*
X74674370Y-51529244D02*
X74189497Y-51421494D01*
X74566621Y-52121866D02*
X74512746Y-52229616D01*
X74512746Y-52229616D02*
X74378059Y-52364303D01*
X74378059Y-52364303D02*
X74297247Y-52391240D01*
X74297247Y-52391240D02*
X74243372Y-52391240D01*
X74243372Y-52391240D02*
X74162560Y-52364303D01*
X74162560Y-52364303D02*
X74108685Y-52310428D01*
X74108685Y-52310428D02*
X74081748Y-52229616D01*
X74081748Y-52229616D02*
X74081748Y-52175741D01*
X74081748Y-52175741D02*
X74108685Y-52094929D01*
X74108685Y-52094929D02*
X74189497Y-51960242D01*
X74189497Y-51960242D02*
X74216435Y-51879430D01*
X74216435Y-51879430D02*
X74216435Y-51825555D01*
X74216435Y-51825555D02*
X74189497Y-51744743D01*
X74189497Y-51744743D02*
X74135622Y-51690868D01*
X74135622Y-51690868D02*
X74054810Y-51663930D01*
X74054810Y-51663930D02*
X74000935Y-51663930D01*
X74000935Y-51663930D02*
X73920123Y-51690868D01*
X73920123Y-51690868D02*
X73785436Y-51825555D01*
X73785436Y-51825555D02*
X73731561Y-51933304D01*
X110880868Y-23943998D02*
X110907805Y-23863185D01*
X110907805Y-23863185D02*
X110988618Y-23782373D01*
X110988618Y-23782373D02*
X111096367Y-23728498D01*
X111096367Y-23728498D02*
X111204117Y-23728498D01*
X111204117Y-23728498D02*
X111284929Y-23755436D01*
X111284929Y-23755436D02*
X111419616Y-23836248D01*
X111419616Y-23836248D02*
X111500428Y-23917060D01*
X111500428Y-23917060D02*
X111581241Y-24051747D01*
X111581241Y-24051747D02*
X111608178Y-24132560D01*
X111608178Y-24132560D02*
X111608178Y-24240309D01*
X111608178Y-24240309D02*
X111554303Y-24348059D01*
X111554303Y-24348059D02*
X111500428Y-24401934D01*
X111500428Y-24401934D02*
X111392679Y-24455808D01*
X111392679Y-24455808D02*
X111338804Y-24455808D01*
X111338804Y-24455808D02*
X111150242Y-24267247D01*
X111150242Y-24267247D02*
X111257992Y-24159497D01*
X111150242Y-24752120D02*
X110584557Y-24186434D01*
X110584557Y-24186434D02*
X110369057Y-24401934D01*
X110369057Y-24401934D02*
X110342120Y-24482746D01*
X110342120Y-24482746D02*
X110342120Y-24536621D01*
X110342120Y-24536621D02*
X110369057Y-24617433D01*
X110369057Y-24617433D02*
X110449870Y-24698245D01*
X110449870Y-24698245D02*
X110530682Y-24725182D01*
X110530682Y-24725182D02*
X110584557Y-24725182D01*
X110584557Y-24725182D02*
X110665369Y-24698245D01*
X110665369Y-24698245D02*
X110880868Y-24482746D01*
X110288245Y-25614117D02*
X110611494Y-25290868D01*
X110449870Y-25452492D02*
X109884184Y-24886807D01*
X109884184Y-24886807D02*
X110018871Y-24913744D01*
X110018871Y-24913744D02*
X110126621Y-24913744D01*
X110126621Y-24913744D02*
X110207433Y-24886807D01*
X109560935Y-25317805D02*
X109507060Y-25317805D01*
X109507060Y-25317805D02*
X109426248Y-25344743D01*
X109426248Y-25344743D02*
X109291561Y-25479430D01*
X109291561Y-25479430D02*
X109264624Y-25560242D01*
X109264624Y-25560242D02*
X109264624Y-25614117D01*
X109264624Y-25614117D02*
X109291561Y-25694929D01*
X109291561Y-25694929D02*
X109345436Y-25748804D01*
X109345436Y-25748804D02*
X109453186Y-25802679D01*
X109453186Y-25802679D02*
X110099683Y-25802679D01*
X110099683Y-25802679D02*
X109749497Y-26152865D01*
X75041494Y-24513372D02*
X75068431Y-24432560D01*
X75068431Y-24432560D02*
X75149243Y-24351748D01*
X75149243Y-24351748D02*
X75256993Y-24297873D01*
X75256993Y-24297873D02*
X75364742Y-24297873D01*
X75364742Y-24297873D02*
X75445555Y-24324810D01*
X75445555Y-24324810D02*
X75580242Y-24405623D01*
X75580242Y-24405623D02*
X75661054Y-24486435D01*
X75661054Y-24486435D02*
X75741866Y-24621122D01*
X75741866Y-24621122D02*
X75768803Y-24701934D01*
X75768803Y-24701934D02*
X75768803Y-24809684D01*
X75768803Y-24809684D02*
X75714929Y-24917433D01*
X75714929Y-24917433D02*
X75661054Y-24971308D01*
X75661054Y-24971308D02*
X75553304Y-25025183D01*
X75553304Y-25025183D02*
X75499429Y-25025183D01*
X75499429Y-25025183D02*
X75310868Y-24836621D01*
X75310868Y-24836621D02*
X75418617Y-24728871D01*
X75310868Y-25321494D02*
X74745182Y-24755809D01*
X74745182Y-24755809D02*
X74529683Y-24971308D01*
X74529683Y-24971308D02*
X74502746Y-25052120D01*
X74502746Y-25052120D02*
X74502746Y-25105995D01*
X74502746Y-25105995D02*
X74529683Y-25186807D01*
X74529683Y-25186807D02*
X74610495Y-25267619D01*
X74610495Y-25267619D02*
X74691307Y-25294557D01*
X74691307Y-25294557D02*
X74745182Y-25294557D01*
X74745182Y-25294557D02*
X74825994Y-25267619D01*
X74825994Y-25267619D02*
X75041494Y-25052120D01*
X74448871Y-26183491D02*
X74772120Y-25860242D01*
X74610495Y-26021867D02*
X74044810Y-25456181D01*
X74044810Y-25456181D02*
X74179497Y-25483119D01*
X74179497Y-25483119D02*
X74287246Y-25483119D01*
X74287246Y-25483119D02*
X74368059Y-25456181D01*
X105800868Y-24089998D02*
X105827805Y-24009185D01*
X105827805Y-24009185D02*
X105908618Y-23928373D01*
X105908618Y-23928373D02*
X106016367Y-23874498D01*
X106016367Y-23874498D02*
X106124117Y-23874498D01*
X106124117Y-23874498D02*
X106204929Y-23901436D01*
X106204929Y-23901436D02*
X106339616Y-23982248D01*
X106339616Y-23982248D02*
X106420428Y-24063060D01*
X106420428Y-24063060D02*
X106501241Y-24197747D01*
X106501241Y-24197747D02*
X106528178Y-24278560D01*
X106528178Y-24278560D02*
X106528178Y-24386309D01*
X106528178Y-24386309D02*
X106474303Y-24494059D01*
X106474303Y-24494059D02*
X106420428Y-24547934D01*
X106420428Y-24547934D02*
X106312679Y-24601808D01*
X106312679Y-24601808D02*
X106258804Y-24601808D01*
X106258804Y-24601808D02*
X106070242Y-24413247D01*
X106070242Y-24413247D02*
X106177992Y-24305497D01*
X106070242Y-24898120D02*
X105504557Y-24332434D01*
X105504557Y-24332434D02*
X105289057Y-24547934D01*
X105289057Y-24547934D02*
X105262120Y-24628746D01*
X105262120Y-24628746D02*
X105262120Y-24682621D01*
X105262120Y-24682621D02*
X105289057Y-24763433D01*
X105289057Y-24763433D02*
X105369870Y-24844245D01*
X105369870Y-24844245D02*
X105450682Y-24871182D01*
X105450682Y-24871182D02*
X105504557Y-24871182D01*
X105504557Y-24871182D02*
X105585369Y-24844245D01*
X105585369Y-24844245D02*
X105800868Y-24628746D01*
X105208245Y-25760117D02*
X105531494Y-25436868D01*
X105369870Y-25598492D02*
X104804184Y-25032807D01*
X104804184Y-25032807D02*
X104938871Y-25059744D01*
X104938871Y-25059744D02*
X105046621Y-25059744D01*
X105046621Y-25059744D02*
X105127433Y-25032807D01*
X104292373Y-25544618D02*
X104238499Y-25598492D01*
X104238499Y-25598492D02*
X104211561Y-25679305D01*
X104211561Y-25679305D02*
X104211561Y-25733179D01*
X104211561Y-25733179D02*
X104238499Y-25813992D01*
X104238499Y-25813992D02*
X104319311Y-25948679D01*
X104319311Y-25948679D02*
X104453998Y-26083366D01*
X104453998Y-26083366D02*
X104588685Y-26164178D01*
X104588685Y-26164178D02*
X104669497Y-26191115D01*
X104669497Y-26191115D02*
X104723372Y-26191115D01*
X104723372Y-26191115D02*
X104804184Y-26164178D01*
X104804184Y-26164178D02*
X104858059Y-26110303D01*
X104858059Y-26110303D02*
X104884996Y-26029491D01*
X104884996Y-26029491D02*
X104884996Y-25975616D01*
X104884996Y-25975616D02*
X104858059Y-25894804D01*
X104858059Y-25894804D02*
X104777247Y-25760117D01*
X104777247Y-25760117D02*
X104642560Y-25625430D01*
X104642560Y-25625430D02*
X104507873Y-25544618D01*
X104507873Y-25544618D02*
X104427060Y-25517680D01*
X104427060Y-25517680D02*
X104373186Y-25517680D01*
X104373186Y-25517680D02*
X104292373Y-25544618D01*
X98463710Y-50938651D02*
X98382898Y-50480716D01*
X98786959Y-50615403D02*
X98221274Y-50049717D01*
X98221274Y-50049717D02*
X98005775Y-50265216D01*
X98005775Y-50265216D02*
X97978837Y-50346029D01*
X97978837Y-50346029D02*
X97978837Y-50399903D01*
X97978837Y-50399903D02*
X98005775Y-50480716D01*
X98005775Y-50480716D02*
X98086587Y-50561528D01*
X98086587Y-50561528D02*
X98167399Y-50588465D01*
X98167399Y-50588465D02*
X98221274Y-50588465D01*
X98221274Y-50588465D02*
X98302086Y-50561528D01*
X98302086Y-50561528D02*
X98517585Y-50346029D01*
X97655588Y-50615403D02*
X98113524Y-51073338D01*
X98113524Y-51073338D02*
X98140462Y-51154151D01*
X98140462Y-51154151D02*
X98140462Y-51208025D01*
X98140462Y-51208025D02*
X98113524Y-51288838D01*
X98113524Y-51288838D02*
X98005775Y-51396587D01*
X98005775Y-51396587D02*
X97924962Y-51423525D01*
X97924962Y-51423525D02*
X97871088Y-51423525D01*
X97871088Y-51423525D02*
X97790275Y-51396587D01*
X97790275Y-51396587D02*
X97332340Y-50938651D01*
X97628651Y-51773711D02*
X97062966Y-51208025D01*
X97062966Y-51208025D02*
X97305402Y-52096959D01*
X97305402Y-52096959D02*
X96739717Y-51531274D01*
X93110868Y-50197998D02*
X93137805Y-50117185D01*
X93137805Y-50117185D02*
X93218618Y-50036373D01*
X93218618Y-50036373D02*
X93326367Y-49982498D01*
X93326367Y-49982498D02*
X93434117Y-49982498D01*
X93434117Y-49982498D02*
X93514929Y-50009436D01*
X93514929Y-50009436D02*
X93649616Y-50090248D01*
X93649616Y-50090248D02*
X93730428Y-50171060D01*
X93730428Y-50171060D02*
X93811241Y-50305747D01*
X93811241Y-50305747D02*
X93838178Y-50386560D01*
X93838178Y-50386560D02*
X93838178Y-50494309D01*
X93838178Y-50494309D02*
X93784303Y-50602059D01*
X93784303Y-50602059D02*
X93730428Y-50655934D01*
X93730428Y-50655934D02*
X93622679Y-50709808D01*
X93622679Y-50709808D02*
X93568804Y-50709808D01*
X93568804Y-50709808D02*
X93380242Y-50521247D01*
X93380242Y-50521247D02*
X93487992Y-50413497D01*
X93380242Y-51006120D02*
X92814557Y-50440434D01*
X92814557Y-50440434D02*
X92599057Y-50655934D01*
X92599057Y-50655934D02*
X92572120Y-50736746D01*
X92572120Y-50736746D02*
X92572120Y-50790621D01*
X92572120Y-50790621D02*
X92599057Y-50871433D01*
X92599057Y-50871433D02*
X92679870Y-50952245D01*
X92679870Y-50952245D02*
X92760682Y-50979182D01*
X92760682Y-50979182D02*
X92814557Y-50979182D01*
X92814557Y-50979182D02*
X92895369Y-50952245D01*
X92895369Y-50952245D02*
X93110868Y-50736746D01*
X92329683Y-51033057D02*
X92275809Y-51033057D01*
X92275809Y-51033057D02*
X92194996Y-51059995D01*
X92194996Y-51059995D02*
X92060309Y-51194682D01*
X92060309Y-51194682D02*
X92033372Y-51275494D01*
X92033372Y-51275494D02*
X92033372Y-51329369D01*
X92033372Y-51329369D02*
X92060309Y-51410181D01*
X92060309Y-51410181D02*
X92114184Y-51464056D01*
X92114184Y-51464056D02*
X92221934Y-51517930D01*
X92221934Y-51517930D02*
X92868431Y-51517930D01*
X92868431Y-51517930D02*
X92518245Y-51868117D01*
X91763998Y-51490993D02*
X91386874Y-51868117D01*
X91386874Y-51868117D02*
X92194996Y-52191366D01*
D11*
%TO.C,U1*%
X71020000Y-34100000D02*
X76520000Y-34100000D01*
X76520000Y-34100000D02*
X76520000Y-42100000D01*
X76520000Y-42100000D02*
X71020000Y-42100000D01*
X71020000Y-42100000D02*
X71020000Y-34100000D01*
D12*
X101420000Y-48600000D02*
X101820000Y-48600000D01*
X73420000Y-27600000D02*
X73820000Y-27600000D01*
X76020000Y-27600000D02*
X76420000Y-27600000D01*
X106520000Y-48600000D02*
X106920000Y-48600000D01*
X122020000Y-34400000D02*
X122020000Y-27600000D01*
X96320000Y-48600000D02*
X96720000Y-48600000D01*
X119220000Y-48600000D02*
X119620000Y-48600000D01*
X73420000Y-48600000D02*
X73820000Y-48600000D01*
X73687000Y-30607000D02*
X71020000Y-30607000D01*
X91220000Y-48600000D02*
X91620000Y-48600000D01*
X71020000Y-27600000D02*
X71020000Y-48600000D01*
X116620000Y-27600000D02*
X117020000Y-27600000D01*
X93820000Y-27600000D02*
X94220000Y-27600000D01*
X119220000Y-27600000D02*
X119620000Y-27600000D01*
X81120000Y-27600000D02*
X81520000Y-27600000D01*
X91220000Y-27600000D02*
X91620000Y-27600000D01*
X93820000Y-48600000D02*
X94220000Y-48600000D01*
X122020000Y-48600000D02*
X122020000Y-41800000D01*
X81120000Y-48600000D02*
X81520000Y-48600000D01*
X103920000Y-27600000D02*
X104320000Y-27600000D01*
X73687000Y-27600000D02*
X73687000Y-30607000D01*
X88720000Y-27600000D02*
X89120000Y-27600000D01*
X101420000Y-27600000D02*
X101820000Y-27600000D01*
X122020000Y-36600000D02*
X122020000Y-37000000D01*
X83620000Y-27600000D02*
X84020000Y-27600000D01*
X76020000Y-48600000D02*
X76420000Y-48600000D01*
X111620000Y-27600000D02*
X112020000Y-27600000D01*
X122020000Y-39200000D02*
X122020000Y-39600000D01*
X83620000Y-48600000D02*
X84020000Y-48600000D01*
X106520000Y-27600000D02*
X106920000Y-27600000D01*
X98820000Y-48600000D02*
X99220000Y-48600000D01*
X86120000Y-27600000D02*
X86520000Y-27600000D01*
X96320000Y-27600000D02*
X96720000Y-27600000D01*
X114120000Y-27600000D02*
X114520000Y-27600000D01*
X109020000Y-27600000D02*
X109420000Y-27600000D01*
X103920000Y-48600000D02*
X104320000Y-48600000D01*
X86120000Y-48600000D02*
X86520000Y-48600000D01*
X114120000Y-48600000D02*
X114520000Y-48600000D01*
X88720000Y-48600000D02*
X89120000Y-48600000D01*
X71020000Y-27600000D02*
X71320000Y-27600000D01*
X116620000Y-48600000D02*
X117020000Y-48600000D01*
X109020000Y-48600000D02*
X109420000Y-48600000D01*
X78520000Y-48600000D02*
X78920000Y-48600000D01*
X98820000Y-27600000D02*
X99220000Y-27600000D01*
X71020000Y-48600000D02*
X71320000Y-48600000D01*
X78520000Y-27600000D02*
X78920000Y-27600000D01*
X111620000Y-48600000D02*
X112020000Y-48600000D01*
%TD*%
M02*
