M48
; DRILL file {KiCad 7.0.10} date Thu Feb 15 20:28:39 2024
; FORMAT={-:-/ absolute / metric / decimal}
; #@! TF.CreationDate,2024-02-15T20:28:39+01:00
; #@! TF.GenerationSoftware,Kicad,Pcbnew,7.0.10
; #@! TF.FileFunction,Plated,1,2,PTH
FMAT,2
METRIC
; #@! TA.AperFunction,Plated,PTH,ComponentDrill
T1C0.800
; #@! TA.AperFunction,Plated,PTH,ComponentDrill
T2C1.000
; #@! TA.AperFunction,Plated,PTH,ComponentDrill
T3C1.020
; #@! TA.AperFunction,Plated,PTH,ComponentDrill
T4C1.100
; #@! TA.AperFunction,Plated,PTH,ComponentDrill
T5C1.200
; #@! TA.AperFunction,Plated,PTH,ComponentDrill
T6C1.300
; #@! TA.AperFunction,Plated,PTH,ComponentDrill
T7C2.000
; #@! TA.AperFunction,Plated,PTH,ViaDrill
T8C3.000
%
G90
G05
T1
X168.91Y-21.63
X168.91Y-26.63
T2
X72.39Y-53.34
X77.47Y-53.34
X180.34Y-21.6
X180.34Y-29.2
T3
X44.45Y-33.02
X44.45Y-35.56
X44.45Y-38.1
X52.07Y-45.72
X54.61Y-45.72
X57.15Y-45.72
X72.39Y-29.21
X72.39Y-46.99
X74.93Y-29.21
X74.93Y-46.99
X77.47Y-29.21
X77.47Y-46.99
X80.01Y-29.21
X80.01Y-46.99
X82.55Y-29.21
X82.55Y-46.99
X85.09Y-29.21
X85.09Y-46.99
X87.63Y-29.21
X87.63Y-46.99
X90.17Y-29.21
X90.17Y-46.99
X92.71Y-29.21
X92.71Y-46.99
X95.25Y-29.21
X95.25Y-46.99
X97.79Y-29.21
X97.79Y-46.99
X100.33Y-29.21
X100.33Y-46.99
X102.87Y-29.21
X102.87Y-46.99
X105.41Y-29.21
X105.41Y-46.99
X107.95Y-29.21
X107.95Y-46.99
X110.49Y-29.21
X110.49Y-46.99
X113.03Y-29.21
X113.03Y-46.99
X115.57Y-29.21
X115.57Y-46.99
X118.11Y-29.21
X118.11Y-46.99
X120.65Y-29.21
X120.65Y-46.99
X135.89Y-27.94
X135.89Y-30.48
X135.89Y-33.02
X135.89Y-35.56
X135.89Y-38.1
X135.89Y-40.64
X135.89Y-43.18
X135.89Y-45.72
T4
X161.29Y-21.59
X161.29Y-29.21
T5
X142.24Y-21.59
X146.05Y-35.56
X146.05Y-48.26
X154.94Y-21.59
T6
X153.87Y-39.37
X153.87Y-44.37
X166.37Y-39.37
X166.37Y-44.37
X175.26Y-39.37
X175.26Y-44.37
X187.76Y-39.37
X187.76Y-44.37
T7
X46.61Y-28.81
X46.61Y-42.31
X62.61Y-28.81
X62.61Y-42.31
T8
X41.0Y-20.0
X41.0Y-54.0
X83.82Y-22.225
X135.89Y-51.435
X189.0Y-20.0
X189.0Y-54.0
M30
