%TF.GenerationSoftware,KiCad,Pcbnew,7.0.10*%
%TF.CreationDate,2024-02-15T20:28:35+01:00*%
%TF.ProjectId,pico_game_console,7069636f-5f67-4616-9d65-5f636f6e736f,rev?*%
%TF.SameCoordinates,Original*%
%TF.FileFunction,Copper,L1,Top*%
%TF.FilePolarity,Positive*%
%FSLAX46Y46*%
G04 Gerber Fmt 4.6, Leading zero omitted, Abs format (unit mm)*
G04 Created by KiCad (PCBNEW 7.0.10) date 2024-02-15 20:28:35*
%MOMM*%
%LPD*%
G01*
G04 APERTURE LIST*
%TA.AperFunction,ComponentPad*%
%ADD10C,1.700000*%
%TD*%
%TA.AperFunction,ComponentPad*%
%ADD11O,1.700000X1.700000*%
%TD*%
%TA.AperFunction,ComponentPad*%
%ADD12R,1.700000X1.700000*%
%TD*%
%TA.AperFunction,ComponentPad*%
%ADD13C,3.000000*%
%TD*%
%TA.AperFunction,ComponentPad*%
%ADD14C,2.000000*%
%TD*%
%TA.AperFunction,ComponentPad*%
%ADD15O,3.048000X1.850000*%
%TD*%
%TA.AperFunction,ComponentPad*%
%ADD16O,2.400000X2.400000*%
%TD*%
%TA.AperFunction,ComponentPad*%
%ADD17C,2.400000*%
%TD*%
%TA.AperFunction,ComponentPad*%
%ADD18R,2.200000X2.200000*%
%TD*%
%TA.AperFunction,ComponentPad*%
%ADD19O,2.200000X2.200000*%
%TD*%
%TA.AperFunction,ComponentPad*%
%ADD20C,1.600000*%
%TD*%
%TA.AperFunction,ComponentPad*%
%ADD21R,2.000000X2.000000*%
%TD*%
%TA.AperFunction,ViaPad*%
%ADD22C,3.200000*%
%TD*%
%TA.AperFunction,Conductor*%
%ADD23C,0.500000*%
%TD*%
%TA.AperFunction,Conductor*%
%ADD24C,0.250000*%
%TD*%
G04 APERTURE END LIST*
D10*
%TO.P,LCD1,1,VCC*%
%TO.N,Net-(LCD1-VCC)*%
X135890000Y-45720000D03*
%TO.P,LCD1,2,GND*%
%TO.N,Net-(BZ1--)*%
X135890000Y-43180000D03*
%TO.P,LCD1,3,DIN*%
%TO.N,Net-(LCD1-DIN)*%
X135890000Y-40640000D03*
%TO.P,LCD1,4,CLK*%
%TO.N,Net-(LCD1-CLK)*%
X135890000Y-38100000D03*
%TO.P,LCD1,5,CS*%
%TO.N,Net-(LCD1-CS)*%
X135890000Y-35560000D03*
%TO.P,LCD1,6,DC*%
%TO.N,Net-(LCD1-DC)*%
X135890000Y-33020000D03*
%TO.P,LCD1,7,RST*%
%TO.N,Net-(LCD1-RST)*%
X135890000Y-30480000D03*
%TO.P,LCD1,8,BL*%
%TO.N,Net-(LCD1-BL)*%
X135890000Y-27940000D03*
%TD*%
D11*
%TO.P,U1,1,GPIO0*%
%TO.N,unconnected-(U1-GPIO0-Pad1)*%
X72390000Y-29210000D03*
%TO.P,U1,2,GPIO1*%
%TO.N,unconnected-(U1-GPIO1-Pad2)*%
X74930000Y-29210000D03*
D12*
%TO.P,U1,3,GND*%
%TO.N,unconnected-(U1-GND-Pad3)*%
X77470000Y-29210000D03*
D11*
%TO.P,U1,4,GPIO2*%
%TO.N,unconnected-(U1-GPIO2-Pad4)*%
X80010000Y-29210000D03*
%TO.P,U1,5,GPIO3*%
%TO.N,unconnected-(U1-GPIO3-Pad5)*%
X82550000Y-29210000D03*
%TO.P,U1,6,GPIO4*%
%TO.N,unconnected-(U1-GPIO4-Pad6)*%
X85090000Y-29210000D03*
%TO.P,U1,7,GPIO5*%
%TO.N,unconnected-(U1-GPIO5-Pad7)*%
X87630000Y-29210000D03*
D12*
%TO.P,U1,8,GND*%
%TO.N,unconnected-(U1-GND-Pad8)*%
X90170000Y-29210000D03*
D11*
%TO.P,U1,9,GPIO6*%
%TO.N,unconnected-(U1-GPIO6-Pad9)*%
X92710000Y-29210000D03*
%TO.P,U1,10,GPIO7*%
%TO.N,unconnected-(U1-GPIO7-Pad10)*%
X95250000Y-29210000D03*
%TO.P,U1,11,GPIO8*%
%TO.N,unconnected-(U1-GPIO8-Pad11)*%
X97790000Y-29210000D03*
%TO.P,U1,12,GPIO9*%
%TO.N,unconnected-(U1-GPIO9-Pad12)*%
X100330000Y-29210000D03*
D12*
%TO.P,U1,13,GND*%
%TO.N,unconnected-(U1-GND-Pad13)*%
X102870000Y-29210000D03*
D11*
%TO.P,U1,14,GPIO10*%
%TO.N,unconnected-(U1-GPIO10-Pad14)*%
X105410000Y-29210000D03*
%TO.P,U1,15,GPIO11*%
%TO.N,Net-(LCD1-CS)*%
X107950000Y-29210000D03*
%TO.P,U1,16,GPIO12*%
%TO.N,Net-(LCD1-DC)*%
X110490000Y-29210000D03*
%TO.P,U1,17,GPIO13*%
%TO.N,Net-(LCD1-RST)*%
X113030000Y-29210000D03*
D12*
%TO.P,U1,18,GND*%
%TO.N,unconnected-(U1-GND-Pad18)*%
X115570000Y-29210000D03*
D11*
%TO.P,U1,19,GPIO14*%
%TO.N,Net-(U1-GPIO14)*%
X118110000Y-29210000D03*
%TO.P,U1,20,GPIO15*%
%TO.N,Net-(LCD1-BL)*%
X120650000Y-29210000D03*
%TO.P,U1,21,GPIO16*%
%TO.N,Net-(U1-GPIO16)*%
X120650000Y-46990000D03*
%TO.P,U1,22,GPIO17*%
%TO.N,Net-(U1-GPIO17)*%
X118110000Y-46990000D03*
D12*
%TO.P,U1,23,GND*%
%TO.N,Net-(BZ1--)*%
X115570000Y-46990000D03*
D11*
%TO.P,U1,24,GPIO18*%
%TO.N,Net-(LCD1-CLK)*%
X113030000Y-46990000D03*
%TO.P,U1,25,GPIO19*%
%TO.N,Net-(LCD1-DIN)*%
X110490000Y-46990000D03*
%TO.P,U1,26,GPIO20*%
%TO.N,unconnected-(U1-GPIO20-Pad26)*%
X107950000Y-46990000D03*
%TO.P,U1,27,GPIO21*%
%TO.N,unconnected-(U1-GPIO21-Pad27)*%
X105410000Y-46990000D03*
D12*
%TO.P,U1,28,GND*%
%TO.N,unconnected-(U1-GND-Pad28)*%
X102870000Y-46990000D03*
D11*
%TO.P,U1,29,GPIO22*%
%TO.N,unconnected-(U1-GPIO22-Pad29)*%
X100330000Y-46990000D03*
%TO.P,U1,30,RUN*%
%TO.N,unconnected-(U1-RUN-Pad30)*%
X97790000Y-46990000D03*
%TO.P,U1,31,GPIO26_ADC0*%
%TO.N,Net-(JOY1-YOUT)*%
X95250000Y-46990000D03*
%TO.P,U1,32,GPIO27_ADC1*%
%TO.N,Net-(JOY1-XOUT)*%
X92710000Y-46990000D03*
D12*
%TO.P,U1,33,AGND*%
%TO.N,Net-(U1-AGND)*%
X90170000Y-46990000D03*
D11*
%TO.P,U1,34,GPIO28_ADC2*%
%TO.N,unconnected-(U1-GPIO28_ADC2-Pad34)*%
X87630000Y-46990000D03*
%TO.P,U1,35,ADC_VREF*%
%TO.N,unconnected-(U1-ADC_VREF-Pad35)*%
X85090000Y-46990000D03*
%TO.P,U1,36,3V3*%
%TO.N,Net-(LCD1-VCC)*%
X82550000Y-46990000D03*
%TO.P,U1,37,3V3_EN*%
%TO.N,unconnected-(U1-3V3_EN-Pad37)*%
X80010000Y-46990000D03*
D12*
%TO.P,U1,38,GND*%
%TO.N,Net-(+3V/GND1--)*%
X77470000Y-46990000D03*
D11*
%TO.P,U1,39,VSYS*%
%TO.N,Net-(+3V/GND1-+)*%
X74930000Y-46990000D03*
%TO.P,U1,40,VBUS*%
%TO.N,unconnected-(U1-VBUS-Pad40)*%
X72390000Y-46990000D03*
%TD*%
D10*
%TO.P,JOY1,1,VCC*%
%TO.N,Net-(LCD1-VCC)*%
X52070000Y-45720000D03*
%TO.P,JOY1,2,XOUT*%
%TO.N,Net-(JOY1-XOUT)*%
X54610000Y-45720000D03*
%TO.P,JOY1,3,GND*%
%TO.N,Net-(U1-AGND)*%
X57150000Y-45720000D03*
%TO.P,JOY1,4,GND*%
%TO.N,Net-(LCD1-VCC)*%
X44450000Y-38100000D03*
%TO.P,JOY1,5,YOUT*%
%TO.N,Net-(JOY1-YOUT)*%
X44450000Y-35560000D03*
%TO.P,JOY1,6,VCC*%
%TO.N,Net-(U1-AGND)*%
X44450000Y-33020000D03*
D13*
%TO.P,JOY1,8*%
%TO.N,N/C*%
X46610000Y-28810000D03*
X46610000Y-42310000D03*
X62610000Y-28810000D03*
X62610000Y-42310000D03*
%TD*%
D14*
%TO.P,+3V/GND1,1,+*%
%TO.N,Net-(+3V/GND1-+)*%
X72390000Y-53340000D03*
%TO.P,+3V/GND1,2,-*%
%TO.N,Net-(+3V/GND1--)*%
X77470000Y-53340000D03*
%TD*%
D15*
%TO.P,SW2,2,2*%
%TO.N,Net-(U1-GPIO17)*%
X187760000Y-44370000D03*
X175260000Y-44370000D03*
%TO.P,SW2,1,1*%
%TO.N,Net-(R1-Pad2)*%
X187760000Y-39370000D03*
X175260000Y-39370000D03*
%TD*%
%TO.P,SW1,2,2*%
%TO.N,Net-(U1-GPIO16)*%
X166370000Y-44370000D03*
X153870000Y-44370000D03*
%TO.P,SW1,1,1*%
%TO.N,Net-(R1-Pad2)*%
X166370000Y-39370000D03*
X153870000Y-39370000D03*
%TD*%
D16*
%TO.P,R2,2*%
%TO.N,Net-(U1-GPIO14)*%
X142240000Y-21590000D03*
D17*
%TO.P,R2,1*%
%TO.N,Net-(BZ1-+)*%
X154940000Y-21590000D03*
%TD*%
%TO.P,R1,1*%
%TO.N,Net-(LCD1-VCC)*%
X146050000Y-48260000D03*
D16*
%TO.P,R1,2*%
%TO.N,Net-(R1-Pad2)*%
X146050000Y-35560000D03*
%TD*%
D18*
%TO.P,D1,1,K*%
%TO.N,Net-(BZ1-+)*%
X161290000Y-21590000D03*
D19*
%TO.P,D1,2,A*%
%TO.N,Net-(BZ1--)*%
X161290000Y-29210000D03*
%TD*%
D20*
%TO.P,C1,1*%
%TO.N,Net-(BZ1-+)*%
X168910000Y-21630000D03*
%TO.P,C1,2*%
%TO.N,Net-(BZ1--)*%
X168910000Y-26630000D03*
%TD*%
D21*
%TO.P,BZ1,1,+*%
%TO.N,Net-(BZ1-+)*%
X180340000Y-21600000D03*
D14*
%TO.P,BZ1,2,-*%
%TO.N,Net-(BZ1--)*%
X180340000Y-29200000D03*
%TD*%
D22*
%TO.N,*%
X189000000Y-20000000D03*
X189000000Y-54000000D03*
X41000000Y-54000000D03*
X41000000Y-20000000D03*
X83820000Y-22225000D03*
X135890000Y-51435000D03*
%TD*%
D23*
%TO.N,Net-(+3V/GND1-+)*%
X74930000Y-50800000D02*
X72390000Y-53340000D01*
X74930000Y-46990000D02*
X74930000Y-50800000D01*
D24*
%TO.N,Net-(R1-Pad2)*%
X150060000Y-35560000D02*
X153870000Y-39370000D01*
X146050000Y-35560000D02*
X150060000Y-35560000D01*
D23*
%TO.N,Net-(JOY1-YOUT)*%
X95250000Y-41910000D02*
X95250000Y-46990000D01*
X88900000Y-35560000D02*
X95250000Y-41910000D01*
X44450000Y-35560000D02*
X88900000Y-35560000D01*
%TO.N,Net-(JOY1-XOUT)*%
X92710000Y-43180000D02*
X92710000Y-46990000D01*
X57150000Y-39370000D02*
X88900000Y-39370000D01*
X54610000Y-41910000D02*
X57150000Y-39370000D01*
X88900000Y-39370000D02*
X92710000Y-43180000D01*
X54610000Y-45720000D02*
X54610000Y-41910000D01*
%TO.N,Net-(U1-AGND)*%
X57150000Y-46990000D02*
X57150000Y-45720000D01*
X64770000Y-48260000D02*
X58420000Y-48260000D01*
X58420000Y-48260000D02*
X57150000Y-46990000D01*
X66040000Y-46990000D02*
X64770000Y-48260000D01*
X66040000Y-44450000D02*
X66040000Y-46990000D01*
X68580000Y-41910000D02*
X66040000Y-44450000D01*
%TO.N,Net-(LCD1-VCC)*%
X82550000Y-45720000D02*
X81280000Y-44450000D01*
X82550000Y-46990000D02*
X82550000Y-45720000D01*
X69850000Y-44450000D02*
X68580000Y-45720000D01*
X81280000Y-44450000D02*
X69850000Y-44450000D01*
X68580000Y-45720000D02*
X68580000Y-49530000D01*
X68580000Y-49530000D02*
X67310000Y-50800000D01*
X53340000Y-50800000D02*
X52070000Y-49530000D01*
X67310000Y-50800000D02*
X53340000Y-50800000D01*
X52070000Y-49530000D02*
X52070000Y-45720000D01*
%TO.N,Net-(U1-AGND)*%
X90170000Y-44450000D02*
X87630000Y-41910000D01*
X90170000Y-46990000D02*
X90170000Y-44450000D01*
X87630000Y-41910000D02*
X68580000Y-41910000D01*
%TO.N,Net-(LCD1-VCC)*%
X48260000Y-38100000D02*
X44450000Y-38100000D01*
X52070000Y-41910000D02*
X48260000Y-38100000D01*
X52070000Y-45720000D02*
X52070000Y-41910000D01*
%TO.N,Net-(+3V/GND1--)*%
X77470000Y-53340000D02*
X77470000Y-46990000D01*
D24*
%TO.N,Net-(LCD1-CLK)*%
X113030000Y-39370000D02*
X113030000Y-46990000D01*
X114300000Y-38100000D02*
X113030000Y-39370000D01*
X135890000Y-38100000D02*
X114300000Y-38100000D01*
%TO.N,Net-(LCD1-CS)*%
X111760000Y-35560000D02*
X107950000Y-31750000D01*
X135890000Y-35560000D02*
X111760000Y-35560000D01*
X107950000Y-31750000D02*
X107950000Y-29210000D01*
%TO.N,Net-(LCD1-DC)*%
X113030000Y-34290000D02*
X110490000Y-31750000D01*
X110490000Y-31750000D02*
X110490000Y-29210000D01*
X128270000Y-34290000D02*
X113030000Y-34290000D01*
X135890000Y-33020000D02*
X129540000Y-33020000D01*
X129540000Y-33020000D02*
X128270000Y-34290000D01*
%TO.N,Net-(LCD1-RST)*%
X114300000Y-31750000D02*
X113030000Y-30480000D01*
X127000000Y-31750000D02*
X114300000Y-31750000D01*
X135890000Y-30480000D02*
X128270000Y-30480000D01*
X128270000Y-30480000D02*
X127000000Y-31750000D01*
X113030000Y-30480000D02*
X113030000Y-29210000D01*
%TO.N,Net-(LCD1-BL)*%
X127000000Y-27940000D02*
X125730000Y-29210000D01*
X135890000Y-27940000D02*
X127000000Y-27940000D01*
X125730000Y-29210000D02*
X120650000Y-29210000D01*
D23*
%TO.N,Net-(LCD1-VCC)*%
X130810000Y-45720000D02*
X135890000Y-45720000D01*
X85090000Y-53340000D02*
X123190000Y-53340000D01*
X123190000Y-53340000D02*
X130810000Y-45720000D01*
X82550000Y-50800000D02*
X85090000Y-53340000D01*
X82550000Y-46990000D02*
X82550000Y-50800000D01*
D24*
X142240000Y-48260000D02*
X146050000Y-48260000D01*
X139700000Y-45720000D02*
X142240000Y-48260000D01*
X135890000Y-45720000D02*
X139700000Y-45720000D01*
D23*
%TO.N,Net-(BZ1--)*%
X171410000Y-26630000D02*
X168910000Y-26630000D01*
X173980000Y-29200000D02*
X171410000Y-26630000D01*
X180340000Y-29200000D02*
X173980000Y-29200000D01*
X163830000Y-29210000D02*
X161290000Y-29210000D01*
X166410000Y-26630000D02*
X163830000Y-29210000D01*
X168910000Y-26630000D02*
X166410000Y-26630000D01*
X116840000Y-43180000D02*
X115570000Y-44450000D01*
X135890000Y-43180000D02*
X116840000Y-43180000D01*
X115570000Y-44450000D02*
X115570000Y-46990000D01*
X139700000Y-43180000D02*
X135890000Y-43180000D01*
X140970000Y-41910000D02*
X139700000Y-43180000D01*
X140970000Y-31750000D02*
X140970000Y-41910000D01*
X161290000Y-29210000D02*
X143510000Y-29210000D01*
X143510000Y-29210000D02*
X140970000Y-31750000D01*
%TO.N,Net-(U1-GPIO14)*%
X118110000Y-24130000D02*
X118110000Y-29210000D01*
X120650000Y-21590000D02*
X118110000Y-24130000D01*
X142240000Y-21590000D02*
X120650000Y-21590000D01*
D24*
%TO.N,Net-(R1-Pad2)*%
X166370000Y-39370000D02*
X175260000Y-39370000D01*
%TO.N,Net-(BZ1-+)*%
X180310000Y-21630000D02*
X180340000Y-21600000D01*
D23*
X168910000Y-21630000D02*
X180310000Y-21630000D01*
D24*
X168870000Y-21590000D02*
X168910000Y-21630000D01*
D23*
X161290000Y-21590000D02*
X168870000Y-21590000D01*
X154940000Y-21590000D02*
X161290000Y-21590000D01*
%TD*%
M02*
