%TF.GenerationSoftware,KiCad,Pcbnew,7.0.10*%
%TF.CreationDate,2024-02-15T20:28:41+01:00*%
%TF.ProjectId,pico_game_console,7069636f-5f67-4616-9d65-5f636f6e736f,rev?*%
%TF.SameCoordinates,Original*%
%TF.FileFunction,Drillmap*%
%TF.FilePolarity,Positive*%
%FSLAX45Y45*%
G04 Gerber Fmt 4.5, Leading zero omitted, Abs format (unit mm)*
G04 Created by KiCad (PCBNEW 7.0.10) date 2024-02-15 20:28:41*
%MOMM*%
%LPD*%
G01*
G04 APERTURE LIST*
%ADD10C,0.100000*%
%ADD11C,0.200000*%
G04 APERTURE END LIST*
D10*
X3800000Y-1700000D02*
X19200000Y-1700000D01*
X19200000Y-5700000D01*
X3800000Y-5700000D01*
X3800000Y-1700000D01*
D11*
X4055777Y-6016484D02*
X4055777Y-5816484D01*
X4055777Y-5816484D02*
X4103396Y-5816484D01*
X4103396Y-5816484D02*
X4131967Y-5826008D01*
X4131967Y-5826008D02*
X4151015Y-5845055D01*
X4151015Y-5845055D02*
X4160539Y-5864103D01*
X4160539Y-5864103D02*
X4170062Y-5902198D01*
X4170062Y-5902198D02*
X4170062Y-5930769D01*
X4170062Y-5930769D02*
X4160539Y-5968865D01*
X4160539Y-5968865D02*
X4151015Y-5987912D01*
X4151015Y-5987912D02*
X4131967Y-6006960D01*
X4131967Y-6006960D02*
X4103396Y-6016484D01*
X4103396Y-6016484D02*
X4055777Y-6016484D01*
X4255777Y-6016484D02*
X4255777Y-5883150D01*
X4255777Y-5921246D02*
X4265301Y-5902198D01*
X4265301Y-5902198D02*
X4274824Y-5892674D01*
X4274824Y-5892674D02*
X4293872Y-5883150D01*
X4293872Y-5883150D02*
X4312920Y-5883150D01*
X4379586Y-6016484D02*
X4379586Y-5883150D01*
X4379586Y-5816484D02*
X4370063Y-5826008D01*
X4370063Y-5826008D02*
X4379586Y-5835531D01*
X4379586Y-5835531D02*
X4389110Y-5826008D01*
X4389110Y-5826008D02*
X4379586Y-5816484D01*
X4379586Y-5816484D02*
X4379586Y-5835531D01*
X4503396Y-6016484D02*
X4484348Y-6006960D01*
X4484348Y-6006960D02*
X4474824Y-5987912D01*
X4474824Y-5987912D02*
X4474824Y-5816484D01*
X4608158Y-6016484D02*
X4589110Y-6006960D01*
X4589110Y-6006960D02*
X4579586Y-5987912D01*
X4579586Y-5987912D02*
X4579586Y-5816484D01*
X4836729Y-6016484D02*
X4836729Y-5816484D01*
X4836729Y-5816484D02*
X4903396Y-5959341D01*
X4903396Y-5959341D02*
X4970063Y-5816484D01*
X4970063Y-5816484D02*
X4970063Y-6016484D01*
X5151015Y-6016484D02*
X5151015Y-5911722D01*
X5151015Y-5911722D02*
X5141491Y-5892674D01*
X5141491Y-5892674D02*
X5122444Y-5883150D01*
X5122444Y-5883150D02*
X5084348Y-5883150D01*
X5084348Y-5883150D02*
X5065301Y-5892674D01*
X5151015Y-6006960D02*
X5131967Y-6016484D01*
X5131967Y-6016484D02*
X5084348Y-6016484D01*
X5084348Y-6016484D02*
X5065301Y-6006960D01*
X5065301Y-6006960D02*
X5055777Y-5987912D01*
X5055777Y-5987912D02*
X5055777Y-5968865D01*
X5055777Y-5968865D02*
X5065301Y-5949817D01*
X5065301Y-5949817D02*
X5084348Y-5940293D01*
X5084348Y-5940293D02*
X5131967Y-5940293D01*
X5131967Y-5940293D02*
X5151015Y-5930769D01*
X5246253Y-5883150D02*
X5246253Y-6083150D01*
X5246253Y-5892674D02*
X5265301Y-5883150D01*
X5265301Y-5883150D02*
X5303396Y-5883150D01*
X5303396Y-5883150D02*
X5322444Y-5892674D01*
X5322444Y-5892674D02*
X5331967Y-5902198D01*
X5331967Y-5902198D02*
X5341491Y-5921246D01*
X5341491Y-5921246D02*
X5341491Y-5978388D01*
X5341491Y-5978388D02*
X5331967Y-5997436D01*
X5331967Y-5997436D02*
X5322444Y-6006960D01*
X5322444Y-6006960D02*
X5303396Y-6016484D01*
X5303396Y-6016484D02*
X5265301Y-6016484D01*
X5265301Y-6016484D02*
X5246253Y-6006960D01*
X5427205Y-5997436D02*
X5436729Y-6006960D01*
X5436729Y-6006960D02*
X5427205Y-6016484D01*
X5427205Y-6016484D02*
X5417682Y-6006960D01*
X5417682Y-6006960D02*
X5427205Y-5997436D01*
X5427205Y-5997436D02*
X5427205Y-6016484D01*
X5427205Y-5892674D02*
X5436729Y-5902198D01*
X5436729Y-5902198D02*
X5427205Y-5911722D01*
X5427205Y-5911722D02*
X5417682Y-5902198D01*
X5417682Y-5902198D02*
X5427205Y-5892674D01*
X5427205Y-5892674D02*
X5427205Y-5911722D01*
M02*
