%TF.GenerationSoftware,KiCad,Pcbnew,7.0.10*%
%TF.CreationDate,2024-02-15T20:28:35+01:00*%
%TF.ProjectId,pico_game_console,7069636f-5f67-4616-9d65-5f636f6e736f,rev?*%
%TF.SameCoordinates,Original*%
%TF.FileFunction,Soldermask,Bot*%
%TF.FilePolarity,Negative*%
%FSLAX46Y46*%
G04 Gerber Fmt 4.6, Leading zero omitted, Abs format (unit mm)*
G04 Created by KiCad (PCBNEW 7.0.10) date 2024-02-15 20:28:35*
%MOMM*%
%LPD*%
G01*
G04 APERTURE LIST*
%ADD10C,1.700000*%
%ADD11O,1.700000X1.700000*%
%ADD12R,1.700000X3.500000*%
%ADD13R,1.700000X1.700000*%
%ADD14C,3.000000*%
%ADD15C,2.000000*%
%ADD16O,3.048000X1.850000*%
%ADD17O,2.400000X2.400000*%
%ADD18C,2.400000*%
%ADD19R,2.200000X2.200000*%
%ADD20O,2.200000X2.200000*%
%ADD21C,1.600000*%
%ADD22R,2.000000X2.000000*%
G04 APERTURE END LIST*
D10*
%TO.C,LCD1*%
X135890000Y-45720000D03*
X135890000Y-43180000D03*
X135890000Y-40640000D03*
X135890000Y-38100000D03*
X135890000Y-35560000D03*
X135890000Y-33020000D03*
X135890000Y-30480000D03*
X135890000Y-27940000D03*
%TD*%
D11*
%TO.C,U1*%
X72390000Y-29210000D03*
D12*
X72390000Y-28310000D03*
D11*
X74930000Y-29210000D03*
D12*
X74930000Y-28310000D03*
X77470000Y-28310000D03*
D13*
X77470000Y-29210000D03*
D11*
X80010000Y-29210000D03*
D12*
X80010000Y-28310000D03*
D11*
X82550000Y-29210000D03*
D12*
X82550000Y-28310000D03*
D11*
X85090000Y-29210000D03*
D12*
X85090000Y-28310000D03*
X87630000Y-28310000D03*
D11*
X87630000Y-29210000D03*
D13*
X90170000Y-29210000D03*
D12*
X90170000Y-28310000D03*
X92710000Y-28310000D03*
D11*
X92710000Y-29210000D03*
X95250000Y-29210000D03*
D12*
X95250000Y-28310000D03*
X97790000Y-28310000D03*
D11*
X97790000Y-29210000D03*
X100330000Y-29210000D03*
D12*
X100330000Y-28310000D03*
D13*
X102870000Y-29210000D03*
D12*
X102870000Y-28310000D03*
X105410000Y-28310000D03*
D11*
X105410000Y-29210000D03*
X107950000Y-29210000D03*
D12*
X107950000Y-28310000D03*
X110490000Y-28310000D03*
D11*
X110490000Y-29210000D03*
D12*
X113030000Y-28310000D03*
D11*
X113030000Y-29210000D03*
D12*
X115570000Y-28310000D03*
D13*
X115570000Y-29210000D03*
D11*
X118110000Y-29210000D03*
D12*
X118110000Y-28310000D03*
X120650000Y-28310000D03*
D11*
X120650000Y-29210000D03*
D12*
X120650000Y-47890000D03*
D11*
X120650000Y-46990000D03*
D12*
X118110000Y-47890000D03*
D11*
X118110000Y-46990000D03*
D12*
X115570000Y-47890000D03*
D13*
X115570000Y-46990000D03*
D11*
X113030000Y-46990000D03*
D12*
X113030000Y-47890000D03*
X110490000Y-47890000D03*
D11*
X110490000Y-46990000D03*
D12*
X107950000Y-47890000D03*
D11*
X107950000Y-46990000D03*
X105410000Y-46990000D03*
D12*
X105410000Y-47890000D03*
D13*
X102870000Y-46990000D03*
D12*
X102870000Y-47890000D03*
D11*
X100330000Y-46990000D03*
D12*
X100330000Y-47890000D03*
X97790000Y-47890000D03*
D11*
X97790000Y-46990000D03*
X95250000Y-46990000D03*
D12*
X95250000Y-47890000D03*
D11*
X92710000Y-46990000D03*
D12*
X92710000Y-47890000D03*
X90170000Y-47890000D03*
D13*
X90170000Y-46990000D03*
D12*
X87630000Y-47890000D03*
D11*
X87630000Y-46990000D03*
D12*
X85090000Y-47890000D03*
D11*
X85090000Y-46990000D03*
X82550000Y-46990000D03*
D12*
X82550000Y-47890000D03*
X80010000Y-47890000D03*
D11*
X80010000Y-46990000D03*
D12*
X77470000Y-47890000D03*
D13*
X77470000Y-46990000D03*
D12*
X74930000Y-47890000D03*
D11*
X74930000Y-46990000D03*
X72390000Y-46990000D03*
D12*
X72390000Y-47890000D03*
%TD*%
D10*
%TO.C,JOY1*%
X52070000Y-45720000D03*
X54610000Y-45720000D03*
X57150000Y-45720000D03*
X44450000Y-38100000D03*
X44450000Y-35560000D03*
X44450000Y-33020000D03*
D14*
X46610000Y-28810000D03*
X46610000Y-42310000D03*
X62610000Y-28810000D03*
X62610000Y-42310000D03*
%TD*%
D15*
%TO.C,+3V/GND1*%
X72390000Y-53340000D03*
X77470000Y-53340000D03*
%TD*%
D16*
%TO.C,SW2*%
X187760000Y-44370000D03*
X175260000Y-44370000D03*
X187760000Y-39370000D03*
X175260000Y-39370000D03*
%TD*%
%TO.C,SW1*%
X166370000Y-44370000D03*
X153870000Y-44370000D03*
X166370000Y-39370000D03*
X153870000Y-39370000D03*
%TD*%
D17*
%TO.C,R2*%
X142240000Y-21590000D03*
D18*
X154940000Y-21590000D03*
%TD*%
%TO.C,R1*%
X146050000Y-48260000D03*
D17*
X146050000Y-35560000D03*
%TD*%
D19*
%TO.C,D1*%
X161290000Y-21590000D03*
D20*
X161290000Y-29210000D03*
%TD*%
D21*
%TO.C,C1*%
X168910000Y-21630000D03*
X168910000Y-26630000D03*
%TD*%
D22*
%TO.C,BZ1*%
X180340000Y-21600000D03*
D15*
X180340000Y-29200000D03*
%TD*%
M02*
