%TF.GenerationSoftware,KiCad,Pcbnew,7.0.10*%
%TF.CreationDate,2024-02-15T20:28:41+01:00*%
%TF.ProjectId,pico_game_console,7069636f-5f67-4616-9d65-5f636f6e736f,rev?*%
%TF.SameCoordinates,Original*%
%TF.FileFunction,Drillmap*%
%TF.FilePolarity,Positive*%
%FSLAX45Y45*%
G04 Gerber Fmt 4.5, Leading zero omitted, Abs format (unit mm)*
G04 Created by KiCad (PCBNEW 7.0.10) date 2024-02-15 20:28:41*
%MOMM*%
%LPD*%
G01*
G04 APERTURE LIST*
%ADD10C,0.100000*%
%ADD11C,0.200000*%
%ADD12C,0.102000*%
%ADD13C,0.110000*%
%ADD14C,0.120000*%
%ADD15C,0.130000*%
%ADD16C,0.300000*%
G04 APERTURE END LIST*
D10*
X3800000Y-1700000D02*
X19200000Y-1700000D01*
X19200000Y-5700000D01*
X3800000Y-5700000D01*
X3800000Y-1700000D01*
D11*
D10*
X16851000Y-2123000D02*
X16931000Y-2203000D01*
X16931000Y-2123000D02*
X16851000Y-2203000D01*
X16851000Y-2623000D02*
X16931000Y-2703000D01*
X16931000Y-2623000D02*
X16851000Y-2703000D01*
X7289000Y-5334000D02*
G75*
G03*
X7189000Y-5334000I-50000J0D01*
G01*
X7189000Y-5334000D02*
G75*
G03*
X7289000Y-5334000I50000J0D01*
G01*
X7797000Y-5334000D02*
G75*
G03*
X7697000Y-5334000I-50000J0D01*
G01*
X7697000Y-5334000D02*
G75*
G03*
X7797000Y-5334000I50000J0D01*
G01*
X18084000Y-2160000D02*
G75*
G03*
X17984000Y-2160000I-50000J0D01*
G01*
X17984000Y-2160000D02*
G75*
G03*
X18084000Y-2160000I50000J0D01*
G01*
X18084000Y-2920000D02*
G75*
G03*
X17984000Y-2920000I-50000J0D01*
G01*
X17984000Y-2920000D02*
G75*
G03*
X18084000Y-2920000I50000J0D01*
G01*
D12*
X4445000Y-3251000D02*
X4445000Y-3353000D01*
X4394000Y-3302000D02*
X4496000Y-3302000D01*
X4445000Y-3505000D02*
X4445000Y-3607000D01*
X4394000Y-3556000D02*
X4496000Y-3556000D01*
X4445000Y-3759000D02*
X4445000Y-3861000D01*
X4394000Y-3810000D02*
X4496000Y-3810000D01*
X5207000Y-4521000D02*
X5207000Y-4623000D01*
X5156000Y-4572000D02*
X5258000Y-4572000D01*
X5461000Y-4521000D02*
X5461000Y-4623000D01*
X5410000Y-4572000D02*
X5512000Y-4572000D01*
X5715000Y-4521000D02*
X5715000Y-4623000D01*
X5664000Y-4572000D02*
X5766000Y-4572000D01*
X7239000Y-2870000D02*
X7239000Y-2972000D01*
X7188000Y-2921000D02*
X7290000Y-2921000D01*
X7239000Y-4648000D02*
X7239000Y-4750000D01*
X7188000Y-4699000D02*
X7290000Y-4699000D01*
X7493000Y-2870000D02*
X7493000Y-2972000D01*
X7442000Y-2921000D02*
X7544000Y-2921000D01*
X7493000Y-4648000D02*
X7493000Y-4750000D01*
X7442000Y-4699000D02*
X7544000Y-4699000D01*
X7747000Y-2870000D02*
X7747000Y-2972000D01*
X7696000Y-2921000D02*
X7798000Y-2921000D01*
X7747000Y-4648000D02*
X7747000Y-4750000D01*
X7696000Y-4699000D02*
X7798000Y-4699000D01*
X8001000Y-2870000D02*
X8001000Y-2972000D01*
X7950000Y-2921000D02*
X8052000Y-2921000D01*
X8001000Y-4648000D02*
X8001000Y-4750000D01*
X7950000Y-4699000D02*
X8052000Y-4699000D01*
X8255000Y-2870000D02*
X8255000Y-2972000D01*
X8204000Y-2921000D02*
X8306000Y-2921000D01*
X8255000Y-4648000D02*
X8255000Y-4750000D01*
X8204000Y-4699000D02*
X8306000Y-4699000D01*
X8509000Y-2870000D02*
X8509000Y-2972000D01*
X8458000Y-2921000D02*
X8560000Y-2921000D01*
X8509000Y-4648000D02*
X8509000Y-4750000D01*
X8458000Y-4699000D02*
X8560000Y-4699000D01*
X8763000Y-2870000D02*
X8763000Y-2972000D01*
X8712000Y-2921000D02*
X8814000Y-2921000D01*
X8763000Y-4648000D02*
X8763000Y-4750000D01*
X8712000Y-4699000D02*
X8814000Y-4699000D01*
X9017000Y-2870000D02*
X9017000Y-2972000D01*
X8966000Y-2921000D02*
X9068000Y-2921000D01*
X9017000Y-4648000D02*
X9017000Y-4750000D01*
X8966000Y-4699000D02*
X9068000Y-4699000D01*
X9271000Y-2870000D02*
X9271000Y-2972000D01*
X9220000Y-2921000D02*
X9322000Y-2921000D01*
X9271000Y-4648000D02*
X9271000Y-4750000D01*
X9220000Y-4699000D02*
X9322000Y-4699000D01*
X9525000Y-2870000D02*
X9525000Y-2972000D01*
X9474000Y-2921000D02*
X9576000Y-2921000D01*
X9525000Y-4648000D02*
X9525000Y-4750000D01*
X9474000Y-4699000D02*
X9576000Y-4699000D01*
X9779000Y-2870000D02*
X9779000Y-2972000D01*
X9728000Y-2921000D02*
X9830000Y-2921000D01*
X9779000Y-4648000D02*
X9779000Y-4750000D01*
X9728000Y-4699000D02*
X9830000Y-4699000D01*
X10033000Y-2870000D02*
X10033000Y-2972000D01*
X9982000Y-2921000D02*
X10084000Y-2921000D01*
X10033000Y-4648000D02*
X10033000Y-4750000D01*
X9982000Y-4699000D02*
X10084000Y-4699000D01*
X10287000Y-2870000D02*
X10287000Y-2972000D01*
X10236000Y-2921000D02*
X10338000Y-2921000D01*
X10287000Y-4648000D02*
X10287000Y-4750000D01*
X10236000Y-4699000D02*
X10338000Y-4699000D01*
X10541000Y-2870000D02*
X10541000Y-2972000D01*
X10490000Y-2921000D02*
X10592000Y-2921000D01*
X10541000Y-4648000D02*
X10541000Y-4750000D01*
X10490000Y-4699000D02*
X10592000Y-4699000D01*
X10795000Y-2870000D02*
X10795000Y-2972000D01*
X10744000Y-2921000D02*
X10846000Y-2921000D01*
X10795000Y-4648000D02*
X10795000Y-4750000D01*
X10744000Y-4699000D02*
X10846000Y-4699000D01*
X11049000Y-2870000D02*
X11049000Y-2972000D01*
X10998000Y-2921000D02*
X11100000Y-2921000D01*
X11049000Y-4648000D02*
X11049000Y-4750000D01*
X10998000Y-4699000D02*
X11100000Y-4699000D01*
X11303000Y-2870000D02*
X11303000Y-2972000D01*
X11252000Y-2921000D02*
X11354000Y-2921000D01*
X11303000Y-4648000D02*
X11303000Y-4750000D01*
X11252000Y-4699000D02*
X11354000Y-4699000D01*
X11557000Y-2870000D02*
X11557000Y-2972000D01*
X11506000Y-2921000D02*
X11608000Y-2921000D01*
X11557000Y-4648000D02*
X11557000Y-4750000D01*
X11506000Y-4699000D02*
X11608000Y-4699000D01*
X11811000Y-2870000D02*
X11811000Y-2972000D01*
X11760000Y-2921000D02*
X11862000Y-2921000D01*
X11811000Y-4648000D02*
X11811000Y-4750000D01*
X11760000Y-4699000D02*
X11862000Y-4699000D01*
X12065000Y-2870000D02*
X12065000Y-2972000D01*
X12014000Y-2921000D02*
X12116000Y-2921000D01*
X12065000Y-4648000D02*
X12065000Y-4750000D01*
X12014000Y-4699000D02*
X12116000Y-4699000D01*
X13589000Y-2743000D02*
X13589000Y-2845000D01*
X13538000Y-2794000D02*
X13640000Y-2794000D01*
X13589000Y-2997000D02*
X13589000Y-3099000D01*
X13538000Y-3048000D02*
X13640000Y-3048000D01*
X13589000Y-3251000D02*
X13589000Y-3353000D01*
X13538000Y-3302000D02*
X13640000Y-3302000D01*
X13589000Y-3505000D02*
X13589000Y-3607000D01*
X13538000Y-3556000D02*
X13640000Y-3556000D01*
X13589000Y-3759000D02*
X13589000Y-3861000D01*
X13538000Y-3810000D02*
X13640000Y-3810000D01*
X13589000Y-4013000D02*
X13589000Y-4115000D01*
X13538000Y-4064000D02*
X13640000Y-4064000D01*
X13589000Y-4267000D02*
X13589000Y-4369000D01*
X13538000Y-4318000D02*
X13640000Y-4318000D01*
X13589000Y-4521000D02*
X13589000Y-4623000D01*
X13538000Y-4572000D02*
X13640000Y-4572000D01*
D13*
X16167891Y-2197891D02*
X16167891Y-2120109D01*
X16090109Y-2120109D01*
X16090109Y-2197891D01*
X16167891Y-2197891D01*
X16167891Y-2959891D02*
X16167891Y-2882109D01*
X16090109Y-2882109D01*
X16090109Y-2959891D01*
X16167891Y-2959891D01*
D14*
X14224000Y-2219000D02*
X14284000Y-2159000D01*
X14224000Y-2099000D01*
X14164000Y-2159000D01*
X14224000Y-2219000D01*
X14605000Y-3616000D02*
X14665000Y-3556000D01*
X14605000Y-3496000D01*
X14545000Y-3556000D01*
X14605000Y-3616000D01*
X14605000Y-4886000D02*
X14665000Y-4826000D01*
X14605000Y-4766000D01*
X14545000Y-4826000D01*
X14605000Y-4886000D01*
X15494000Y-2219000D02*
X15554000Y-2159000D01*
X15494000Y-2099000D01*
X15434000Y-2159000D01*
X15494000Y-2219000D01*
D15*
X15322000Y-3872000D02*
X15452000Y-4002000D01*
X15452000Y-3872000D02*
X15322000Y-4002000D01*
X15452000Y-3937000D02*
G75*
G03*
X15322000Y-3937000I-65000J0D01*
G01*
X15322000Y-3937000D02*
G75*
G03*
X15452000Y-3937000I65000J0D01*
G01*
X15322000Y-4372000D02*
X15452000Y-4502000D01*
X15452000Y-4372000D02*
X15322000Y-4502000D01*
X15452000Y-4437000D02*
G75*
G03*
X15322000Y-4437000I-65000J0D01*
G01*
X15322000Y-4437000D02*
G75*
G03*
X15452000Y-4437000I65000J0D01*
G01*
X16572000Y-3872000D02*
X16702000Y-4002000D01*
X16702000Y-3872000D02*
X16572000Y-4002000D01*
X16702000Y-3937000D02*
G75*
G03*
X16572000Y-3937000I-65000J0D01*
G01*
X16572000Y-3937000D02*
G75*
G03*
X16702000Y-3937000I65000J0D01*
G01*
X16572000Y-4372000D02*
X16702000Y-4502000D01*
X16702000Y-4372000D02*
X16572000Y-4502000D01*
X16702000Y-4437000D02*
G75*
G03*
X16572000Y-4437000I-65000J0D01*
G01*
X16572000Y-4437000D02*
G75*
G03*
X16702000Y-4437000I65000J0D01*
G01*
X17461000Y-3872000D02*
X17591000Y-4002000D01*
X17591000Y-3872000D02*
X17461000Y-4002000D01*
X17591000Y-3937000D02*
G75*
G03*
X17461000Y-3937000I-65000J0D01*
G01*
X17461000Y-3937000D02*
G75*
G03*
X17591000Y-3937000I65000J0D01*
G01*
X17461000Y-4372000D02*
X17591000Y-4502000D01*
X17591000Y-4372000D02*
X17461000Y-4502000D01*
X17591000Y-4437000D02*
G75*
G03*
X17461000Y-4437000I-65000J0D01*
G01*
X17461000Y-4437000D02*
G75*
G03*
X17591000Y-4437000I65000J0D01*
G01*
X18711000Y-3872000D02*
X18841000Y-4002000D01*
X18841000Y-3872000D02*
X18711000Y-4002000D01*
X18841000Y-3937000D02*
G75*
G03*
X18711000Y-3937000I-65000J0D01*
G01*
X18711000Y-3937000D02*
G75*
G03*
X18841000Y-3937000I65000J0D01*
G01*
X18711000Y-4372000D02*
X18841000Y-4502000D01*
X18841000Y-4372000D02*
X18711000Y-4502000D01*
X18841000Y-4437000D02*
G75*
G03*
X18711000Y-4437000I-65000J0D01*
G01*
X18711000Y-4437000D02*
G75*
G03*
X18841000Y-4437000I65000J0D01*
G01*
D11*
X4561000Y-2781000D02*
X4761000Y-2981000D01*
X4761000Y-2781000D02*
X4561000Y-2981000D01*
X4661000Y-2781000D02*
X4661000Y-2981000D01*
X4561000Y-2881000D02*
X4761000Y-2881000D01*
X4561000Y-4131000D02*
X4761000Y-4331000D01*
X4761000Y-4131000D02*
X4561000Y-4331000D01*
X4661000Y-4131000D02*
X4661000Y-4331000D01*
X4561000Y-4231000D02*
X4761000Y-4231000D01*
X6161000Y-2781000D02*
X6361000Y-2981000D01*
X6361000Y-2781000D02*
X6161000Y-2981000D01*
X6261000Y-2781000D02*
X6261000Y-2981000D01*
X6161000Y-2881000D02*
X6361000Y-2881000D01*
X6161000Y-4131000D02*
X6361000Y-4331000D01*
X6361000Y-4131000D02*
X6161000Y-4331000D01*
X6261000Y-4131000D02*
X6261000Y-4331000D01*
X6161000Y-4231000D02*
X6361000Y-4231000D01*
D16*
X3950000Y-1850000D02*
X4250000Y-2150000D01*
X4250000Y-1850000D02*
X3950000Y-2150000D01*
X4206067Y-2106067D02*
X4206067Y-1893933D01*
X3993933Y-1893933D01*
X3993933Y-2106067D01*
X4206067Y-2106067D01*
X3950000Y-5250000D02*
X4250000Y-5550000D01*
X4250000Y-5250000D02*
X3950000Y-5550000D01*
X4206067Y-5506067D02*
X4206067Y-5293933D01*
X3993933Y-5293933D01*
X3993933Y-5506067D01*
X4206067Y-5506067D01*
X8232000Y-2072500D02*
X8532000Y-2372500D01*
X8532000Y-2072500D02*
X8232000Y-2372500D01*
X8488067Y-2328567D02*
X8488067Y-2116433D01*
X8275933Y-2116433D01*
X8275933Y-2328567D01*
X8488067Y-2328567D01*
X13439000Y-4993500D02*
X13739000Y-5293500D01*
X13739000Y-4993500D02*
X13439000Y-5293500D01*
X13695067Y-5249567D02*
X13695067Y-5037433D01*
X13482933Y-5037433D01*
X13482933Y-5249567D01*
X13695067Y-5249567D01*
X18750000Y-1850000D02*
X19050000Y-2150000D01*
X19050000Y-1850000D02*
X18750000Y-2150000D01*
X19006067Y-2106067D02*
X19006067Y-1893933D01*
X18793933Y-1893933D01*
X18793933Y-2106067D01*
X19006067Y-2106067D01*
X18750000Y-5250000D02*
X19050000Y-5550000D01*
X19050000Y-5250000D02*
X18750000Y-5550000D01*
X19006067Y-5506067D02*
X19006067Y-5293933D01*
X18793933Y-5293933D01*
X18793933Y-5506067D01*
X19006067Y-5506067D01*
D11*
X4055777Y-6016484D02*
X4055777Y-5816484D01*
X4055777Y-5816484D02*
X4103396Y-5816484D01*
X4103396Y-5816484D02*
X4131967Y-5826008D01*
X4131967Y-5826008D02*
X4151015Y-5845055D01*
X4151015Y-5845055D02*
X4160539Y-5864103D01*
X4160539Y-5864103D02*
X4170062Y-5902198D01*
X4170062Y-5902198D02*
X4170062Y-5930769D01*
X4170062Y-5930769D02*
X4160539Y-5968865D01*
X4160539Y-5968865D02*
X4151015Y-5987912D01*
X4151015Y-5987912D02*
X4131967Y-6006960D01*
X4131967Y-6006960D02*
X4103396Y-6016484D01*
X4103396Y-6016484D02*
X4055777Y-6016484D01*
X4255777Y-6016484D02*
X4255777Y-5883150D01*
X4255777Y-5921246D02*
X4265301Y-5902198D01*
X4265301Y-5902198D02*
X4274824Y-5892674D01*
X4274824Y-5892674D02*
X4293872Y-5883150D01*
X4293872Y-5883150D02*
X4312920Y-5883150D01*
X4379586Y-6016484D02*
X4379586Y-5883150D01*
X4379586Y-5816484D02*
X4370063Y-5826008D01*
X4370063Y-5826008D02*
X4379586Y-5835531D01*
X4379586Y-5835531D02*
X4389110Y-5826008D01*
X4389110Y-5826008D02*
X4379586Y-5816484D01*
X4379586Y-5816484D02*
X4379586Y-5835531D01*
X4503396Y-6016484D02*
X4484348Y-6006960D01*
X4484348Y-6006960D02*
X4474824Y-5987912D01*
X4474824Y-5987912D02*
X4474824Y-5816484D01*
X4608158Y-6016484D02*
X4589110Y-6006960D01*
X4589110Y-6006960D02*
X4579586Y-5987912D01*
X4579586Y-5987912D02*
X4579586Y-5816484D01*
X4836729Y-6016484D02*
X4836729Y-5816484D01*
X4836729Y-5816484D02*
X4903396Y-5959341D01*
X4903396Y-5959341D02*
X4970063Y-5816484D01*
X4970063Y-5816484D02*
X4970063Y-6016484D01*
X5151015Y-6016484D02*
X5151015Y-5911722D01*
X5151015Y-5911722D02*
X5141491Y-5892674D01*
X5141491Y-5892674D02*
X5122444Y-5883150D01*
X5122444Y-5883150D02*
X5084348Y-5883150D01*
X5084348Y-5883150D02*
X5065301Y-5892674D01*
X5151015Y-6006960D02*
X5131967Y-6016484D01*
X5131967Y-6016484D02*
X5084348Y-6016484D01*
X5084348Y-6016484D02*
X5065301Y-6006960D01*
X5065301Y-6006960D02*
X5055777Y-5987912D01*
X5055777Y-5987912D02*
X5055777Y-5968865D01*
X5055777Y-5968865D02*
X5065301Y-5949817D01*
X5065301Y-5949817D02*
X5084348Y-5940293D01*
X5084348Y-5940293D02*
X5131967Y-5940293D01*
X5131967Y-5940293D02*
X5151015Y-5930769D01*
X5246253Y-5883150D02*
X5246253Y-6083150D01*
X5246253Y-5892674D02*
X5265301Y-5883150D01*
X5265301Y-5883150D02*
X5303396Y-5883150D01*
X5303396Y-5883150D02*
X5322444Y-5892674D01*
X5322444Y-5892674D02*
X5331967Y-5902198D01*
X5331967Y-5902198D02*
X5341491Y-5921246D01*
X5341491Y-5921246D02*
X5341491Y-5978388D01*
X5341491Y-5978388D02*
X5331967Y-5997436D01*
X5331967Y-5997436D02*
X5322444Y-6006960D01*
X5322444Y-6006960D02*
X5303396Y-6016484D01*
X5303396Y-6016484D02*
X5265301Y-6016484D01*
X5265301Y-6016484D02*
X5246253Y-6006960D01*
X5427205Y-5997436D02*
X5436729Y-6006960D01*
X5436729Y-6006960D02*
X5427205Y-6016484D01*
X5427205Y-6016484D02*
X5417682Y-6006960D01*
X5417682Y-6006960D02*
X5427205Y-5997436D01*
X5427205Y-5997436D02*
X5427205Y-6016484D01*
X5427205Y-5892674D02*
X5436729Y-5902198D01*
X5436729Y-5902198D02*
X5427205Y-5911722D01*
X5427205Y-5911722D02*
X5417682Y-5902198D01*
X5417682Y-5902198D02*
X5427205Y-5892674D01*
X5427205Y-5892674D02*
X5427205Y-5911722D01*
D10*
X3715000Y-6305000D02*
X3795000Y-6385000D01*
X3795000Y-6305000D02*
X3715000Y-6385000D01*
D11*
X4093872Y-6236484D02*
X4112920Y-6236484D01*
X4112920Y-6236484D02*
X4131967Y-6246008D01*
X4131967Y-6246008D02*
X4141491Y-6255531D01*
X4141491Y-6255531D02*
X4151015Y-6274579D01*
X4151015Y-6274579D02*
X4160539Y-6312674D01*
X4160539Y-6312674D02*
X4160539Y-6360293D01*
X4160539Y-6360293D02*
X4151015Y-6398388D01*
X4151015Y-6398388D02*
X4141491Y-6417436D01*
X4141491Y-6417436D02*
X4131967Y-6426960D01*
X4131967Y-6426960D02*
X4112920Y-6436484D01*
X4112920Y-6436484D02*
X4093872Y-6436484D01*
X4093872Y-6436484D02*
X4074824Y-6426960D01*
X4074824Y-6426960D02*
X4065301Y-6417436D01*
X4065301Y-6417436D02*
X4055777Y-6398388D01*
X4055777Y-6398388D02*
X4046253Y-6360293D01*
X4046253Y-6360293D02*
X4046253Y-6312674D01*
X4046253Y-6312674D02*
X4055777Y-6274579D01*
X4055777Y-6274579D02*
X4065301Y-6255531D01*
X4065301Y-6255531D02*
X4074824Y-6246008D01*
X4074824Y-6246008D02*
X4093872Y-6236484D01*
X4246253Y-6417436D02*
X4255777Y-6426960D01*
X4255777Y-6426960D02*
X4246253Y-6436484D01*
X4246253Y-6436484D02*
X4236729Y-6426960D01*
X4236729Y-6426960D02*
X4246253Y-6417436D01*
X4246253Y-6417436D02*
X4246253Y-6436484D01*
X4370063Y-6322198D02*
X4351015Y-6312674D01*
X4351015Y-6312674D02*
X4341491Y-6303150D01*
X4341491Y-6303150D02*
X4331967Y-6284103D01*
X4331967Y-6284103D02*
X4331967Y-6274579D01*
X4331967Y-6274579D02*
X4341491Y-6255531D01*
X4341491Y-6255531D02*
X4351015Y-6246008D01*
X4351015Y-6246008D02*
X4370063Y-6236484D01*
X4370063Y-6236484D02*
X4408158Y-6236484D01*
X4408158Y-6236484D02*
X4427205Y-6246008D01*
X4427205Y-6246008D02*
X4436729Y-6255531D01*
X4436729Y-6255531D02*
X4446253Y-6274579D01*
X4446253Y-6274579D02*
X4446253Y-6284103D01*
X4446253Y-6284103D02*
X4436729Y-6303150D01*
X4436729Y-6303150D02*
X4427205Y-6312674D01*
X4427205Y-6312674D02*
X4408158Y-6322198D01*
X4408158Y-6322198D02*
X4370063Y-6322198D01*
X4370063Y-6322198D02*
X4351015Y-6331722D01*
X4351015Y-6331722D02*
X4341491Y-6341246D01*
X4341491Y-6341246D02*
X4331967Y-6360293D01*
X4331967Y-6360293D02*
X4331967Y-6398388D01*
X4331967Y-6398388D02*
X4341491Y-6417436D01*
X4341491Y-6417436D02*
X4351015Y-6426960D01*
X4351015Y-6426960D02*
X4370063Y-6436484D01*
X4370063Y-6436484D02*
X4408158Y-6436484D01*
X4408158Y-6436484D02*
X4427205Y-6426960D01*
X4427205Y-6426960D02*
X4436729Y-6417436D01*
X4436729Y-6417436D02*
X4446253Y-6398388D01*
X4446253Y-6398388D02*
X4446253Y-6360293D01*
X4446253Y-6360293D02*
X4436729Y-6341246D01*
X4436729Y-6341246D02*
X4427205Y-6331722D01*
X4427205Y-6331722D02*
X4408158Y-6322198D01*
X4570063Y-6236484D02*
X4589110Y-6236484D01*
X4589110Y-6236484D02*
X4608158Y-6246008D01*
X4608158Y-6246008D02*
X4617682Y-6255531D01*
X4617682Y-6255531D02*
X4627205Y-6274579D01*
X4627205Y-6274579D02*
X4636729Y-6312674D01*
X4636729Y-6312674D02*
X4636729Y-6360293D01*
X4636729Y-6360293D02*
X4627205Y-6398388D01*
X4627205Y-6398388D02*
X4617682Y-6417436D01*
X4617682Y-6417436D02*
X4608158Y-6426960D01*
X4608158Y-6426960D02*
X4589110Y-6436484D01*
X4589110Y-6436484D02*
X4570063Y-6436484D01*
X4570063Y-6436484D02*
X4551015Y-6426960D01*
X4551015Y-6426960D02*
X4541491Y-6417436D01*
X4541491Y-6417436D02*
X4531967Y-6398388D01*
X4531967Y-6398388D02*
X4522444Y-6360293D01*
X4522444Y-6360293D02*
X4522444Y-6312674D01*
X4522444Y-6312674D02*
X4531967Y-6274579D01*
X4531967Y-6274579D02*
X4541491Y-6255531D01*
X4541491Y-6255531D02*
X4551015Y-6246008D01*
X4551015Y-6246008D02*
X4570063Y-6236484D01*
X4760539Y-6236484D02*
X4779586Y-6236484D01*
X4779586Y-6236484D02*
X4798634Y-6246008D01*
X4798634Y-6246008D02*
X4808158Y-6255531D01*
X4808158Y-6255531D02*
X4817682Y-6274579D01*
X4817682Y-6274579D02*
X4827205Y-6312674D01*
X4827205Y-6312674D02*
X4827205Y-6360293D01*
X4827205Y-6360293D02*
X4817682Y-6398388D01*
X4817682Y-6398388D02*
X4808158Y-6417436D01*
X4808158Y-6417436D02*
X4798634Y-6426960D01*
X4798634Y-6426960D02*
X4779586Y-6436484D01*
X4779586Y-6436484D02*
X4760539Y-6436484D01*
X4760539Y-6436484D02*
X4741491Y-6426960D01*
X4741491Y-6426960D02*
X4731967Y-6417436D01*
X4731967Y-6417436D02*
X4722444Y-6398388D01*
X4722444Y-6398388D02*
X4712920Y-6360293D01*
X4712920Y-6360293D02*
X4712920Y-6312674D01*
X4712920Y-6312674D02*
X4722444Y-6274579D01*
X4722444Y-6274579D02*
X4731967Y-6255531D01*
X4731967Y-6255531D02*
X4741491Y-6246008D01*
X4741491Y-6246008D02*
X4760539Y-6236484D01*
X4912920Y-6436484D02*
X4912920Y-6303150D01*
X4912920Y-6322198D02*
X4922444Y-6312674D01*
X4922444Y-6312674D02*
X4941491Y-6303150D01*
X4941491Y-6303150D02*
X4970063Y-6303150D01*
X4970063Y-6303150D02*
X4989110Y-6312674D01*
X4989110Y-6312674D02*
X4998634Y-6331722D01*
X4998634Y-6331722D02*
X4998634Y-6436484D01*
X4998634Y-6331722D02*
X5008158Y-6312674D01*
X5008158Y-6312674D02*
X5027205Y-6303150D01*
X5027205Y-6303150D02*
X5055777Y-6303150D01*
X5055777Y-6303150D02*
X5074825Y-6312674D01*
X5074825Y-6312674D02*
X5084348Y-6331722D01*
X5084348Y-6331722D02*
X5084348Y-6436484D01*
X5179586Y-6436484D02*
X5179586Y-6303150D01*
X5179586Y-6322198D02*
X5189110Y-6312674D01*
X5189110Y-6312674D02*
X5208158Y-6303150D01*
X5208158Y-6303150D02*
X5236729Y-6303150D01*
X5236729Y-6303150D02*
X5255777Y-6312674D01*
X5255777Y-6312674D02*
X5265301Y-6331722D01*
X5265301Y-6331722D02*
X5265301Y-6436484D01*
X5265301Y-6331722D02*
X5274825Y-6312674D01*
X5274825Y-6312674D02*
X5293872Y-6303150D01*
X5293872Y-6303150D02*
X5322444Y-6303150D01*
X5322444Y-6303150D02*
X5341491Y-6312674D01*
X5341491Y-6312674D02*
X5351015Y-6331722D01*
X5351015Y-6331722D02*
X5351015Y-6436484D01*
X5741491Y-6226960D02*
X5570063Y-6484103D01*
X5998634Y-6236484D02*
X6017682Y-6236484D01*
X6017682Y-6236484D02*
X6036729Y-6246008D01*
X6036729Y-6246008D02*
X6046253Y-6255531D01*
X6046253Y-6255531D02*
X6055777Y-6274579D01*
X6055777Y-6274579D02*
X6065301Y-6312674D01*
X6065301Y-6312674D02*
X6065301Y-6360293D01*
X6065301Y-6360293D02*
X6055777Y-6398388D01*
X6055777Y-6398388D02*
X6046253Y-6417436D01*
X6046253Y-6417436D02*
X6036729Y-6426960D01*
X6036729Y-6426960D02*
X6017682Y-6436484D01*
X6017682Y-6436484D02*
X5998634Y-6436484D01*
X5998634Y-6436484D02*
X5979586Y-6426960D01*
X5979586Y-6426960D02*
X5970063Y-6417436D01*
X5970063Y-6417436D02*
X5960539Y-6398388D01*
X5960539Y-6398388D02*
X5951015Y-6360293D01*
X5951015Y-6360293D02*
X5951015Y-6312674D01*
X5951015Y-6312674D02*
X5960539Y-6274579D01*
X5960539Y-6274579D02*
X5970063Y-6255531D01*
X5970063Y-6255531D02*
X5979586Y-6246008D01*
X5979586Y-6246008D02*
X5998634Y-6236484D01*
X6151015Y-6417436D02*
X6160539Y-6426960D01*
X6160539Y-6426960D02*
X6151015Y-6436484D01*
X6151015Y-6436484D02*
X6141491Y-6426960D01*
X6141491Y-6426960D02*
X6151015Y-6417436D01*
X6151015Y-6417436D02*
X6151015Y-6436484D01*
X6284348Y-6236484D02*
X6303396Y-6236484D01*
X6303396Y-6236484D02*
X6322444Y-6246008D01*
X6322444Y-6246008D02*
X6331967Y-6255531D01*
X6331967Y-6255531D02*
X6341491Y-6274579D01*
X6341491Y-6274579D02*
X6351015Y-6312674D01*
X6351015Y-6312674D02*
X6351015Y-6360293D01*
X6351015Y-6360293D02*
X6341491Y-6398388D01*
X6341491Y-6398388D02*
X6331967Y-6417436D01*
X6331967Y-6417436D02*
X6322444Y-6426960D01*
X6322444Y-6426960D02*
X6303396Y-6436484D01*
X6303396Y-6436484D02*
X6284348Y-6436484D01*
X6284348Y-6436484D02*
X6265301Y-6426960D01*
X6265301Y-6426960D02*
X6255777Y-6417436D01*
X6255777Y-6417436D02*
X6246253Y-6398388D01*
X6246253Y-6398388D02*
X6236729Y-6360293D01*
X6236729Y-6360293D02*
X6236729Y-6312674D01*
X6236729Y-6312674D02*
X6246253Y-6274579D01*
X6246253Y-6274579D02*
X6255777Y-6255531D01*
X6255777Y-6255531D02*
X6265301Y-6246008D01*
X6265301Y-6246008D02*
X6284348Y-6236484D01*
X6417682Y-6236484D02*
X6541491Y-6236484D01*
X6541491Y-6236484D02*
X6474825Y-6312674D01*
X6474825Y-6312674D02*
X6503396Y-6312674D01*
X6503396Y-6312674D02*
X6522444Y-6322198D01*
X6522444Y-6322198D02*
X6531967Y-6331722D01*
X6531967Y-6331722D02*
X6541491Y-6350769D01*
X6541491Y-6350769D02*
X6541491Y-6398388D01*
X6541491Y-6398388D02*
X6531967Y-6417436D01*
X6531967Y-6417436D02*
X6522444Y-6426960D01*
X6522444Y-6426960D02*
X6503396Y-6436484D01*
X6503396Y-6436484D02*
X6446253Y-6436484D01*
X6446253Y-6436484D02*
X6427206Y-6426960D01*
X6427206Y-6426960D02*
X6417682Y-6417436D01*
X6731967Y-6436484D02*
X6617682Y-6436484D01*
X6674825Y-6436484D02*
X6674825Y-6236484D01*
X6674825Y-6236484D02*
X6655777Y-6265055D01*
X6655777Y-6265055D02*
X6636729Y-6284103D01*
X6636729Y-6284103D02*
X6617682Y-6293627D01*
X6912920Y-6236484D02*
X6817682Y-6236484D01*
X6817682Y-6236484D02*
X6808158Y-6331722D01*
X6808158Y-6331722D02*
X6817682Y-6322198D01*
X6817682Y-6322198D02*
X6836729Y-6312674D01*
X6836729Y-6312674D02*
X6884348Y-6312674D01*
X6884348Y-6312674D02*
X6903396Y-6322198D01*
X6903396Y-6322198D02*
X6912920Y-6331722D01*
X6912920Y-6331722D02*
X6922444Y-6350769D01*
X6922444Y-6350769D02*
X6922444Y-6398388D01*
X6922444Y-6398388D02*
X6912920Y-6417436D01*
X6912920Y-6417436D02*
X6903396Y-6426960D01*
X6903396Y-6426960D02*
X6884348Y-6436484D01*
X6884348Y-6436484D02*
X6836729Y-6436484D01*
X6836729Y-6436484D02*
X6817682Y-6426960D01*
X6817682Y-6426960D02*
X6808158Y-6417436D01*
X6998634Y-6236484D02*
X6998634Y-6274579D01*
X7074825Y-6236484D02*
X7074825Y-6274579D01*
X7370063Y-6512674D02*
X7360539Y-6503150D01*
X7360539Y-6503150D02*
X7341491Y-6474579D01*
X7341491Y-6474579D02*
X7331968Y-6455531D01*
X7331968Y-6455531D02*
X7322444Y-6426960D01*
X7322444Y-6426960D02*
X7312920Y-6379341D01*
X7312920Y-6379341D02*
X7312920Y-6341246D01*
X7312920Y-6341246D02*
X7322444Y-6293627D01*
X7322444Y-6293627D02*
X7331968Y-6265055D01*
X7331968Y-6265055D02*
X7341491Y-6246008D01*
X7341491Y-6246008D02*
X7360539Y-6217436D01*
X7360539Y-6217436D02*
X7370063Y-6207912D01*
X7436729Y-6255531D02*
X7446253Y-6246008D01*
X7446253Y-6246008D02*
X7465301Y-6236484D01*
X7465301Y-6236484D02*
X7512920Y-6236484D01*
X7512920Y-6236484D02*
X7531968Y-6246008D01*
X7531968Y-6246008D02*
X7541491Y-6255531D01*
X7541491Y-6255531D02*
X7551015Y-6274579D01*
X7551015Y-6274579D02*
X7551015Y-6293627D01*
X7551015Y-6293627D02*
X7541491Y-6322198D01*
X7541491Y-6322198D02*
X7427206Y-6436484D01*
X7427206Y-6436484D02*
X7551015Y-6436484D01*
X7789110Y-6436484D02*
X7789110Y-6236484D01*
X7874825Y-6436484D02*
X7874825Y-6331722D01*
X7874825Y-6331722D02*
X7865301Y-6312674D01*
X7865301Y-6312674D02*
X7846253Y-6303150D01*
X7846253Y-6303150D02*
X7817682Y-6303150D01*
X7817682Y-6303150D02*
X7798634Y-6312674D01*
X7798634Y-6312674D02*
X7789110Y-6322198D01*
X7998634Y-6436484D02*
X7979587Y-6426960D01*
X7979587Y-6426960D02*
X7970063Y-6417436D01*
X7970063Y-6417436D02*
X7960539Y-6398388D01*
X7960539Y-6398388D02*
X7960539Y-6341246D01*
X7960539Y-6341246D02*
X7970063Y-6322198D01*
X7970063Y-6322198D02*
X7979587Y-6312674D01*
X7979587Y-6312674D02*
X7998634Y-6303150D01*
X7998634Y-6303150D02*
X8027206Y-6303150D01*
X8027206Y-6303150D02*
X8046253Y-6312674D01*
X8046253Y-6312674D02*
X8055777Y-6322198D01*
X8055777Y-6322198D02*
X8065301Y-6341246D01*
X8065301Y-6341246D02*
X8065301Y-6398388D01*
X8065301Y-6398388D02*
X8055777Y-6417436D01*
X8055777Y-6417436D02*
X8046253Y-6426960D01*
X8046253Y-6426960D02*
X8027206Y-6436484D01*
X8027206Y-6436484D02*
X7998634Y-6436484D01*
X8179587Y-6436484D02*
X8160539Y-6426960D01*
X8160539Y-6426960D02*
X8151015Y-6407912D01*
X8151015Y-6407912D02*
X8151015Y-6236484D01*
X8331968Y-6426960D02*
X8312920Y-6436484D01*
X8312920Y-6436484D02*
X8274825Y-6436484D01*
X8274825Y-6436484D02*
X8255777Y-6426960D01*
X8255777Y-6426960D02*
X8246253Y-6407912D01*
X8246253Y-6407912D02*
X8246253Y-6331722D01*
X8246253Y-6331722D02*
X8255777Y-6312674D01*
X8255777Y-6312674D02*
X8274825Y-6303150D01*
X8274825Y-6303150D02*
X8312920Y-6303150D01*
X8312920Y-6303150D02*
X8331968Y-6312674D01*
X8331968Y-6312674D02*
X8341491Y-6331722D01*
X8341491Y-6331722D02*
X8341491Y-6350769D01*
X8341491Y-6350769D02*
X8246253Y-6369817D01*
X8417682Y-6426960D02*
X8436730Y-6436484D01*
X8436730Y-6436484D02*
X8474825Y-6436484D01*
X8474825Y-6436484D02*
X8493873Y-6426960D01*
X8493873Y-6426960D02*
X8503396Y-6407912D01*
X8503396Y-6407912D02*
X8503396Y-6398388D01*
X8503396Y-6398388D02*
X8493873Y-6379341D01*
X8493873Y-6379341D02*
X8474825Y-6369817D01*
X8474825Y-6369817D02*
X8446253Y-6369817D01*
X8446253Y-6369817D02*
X8427206Y-6360293D01*
X8427206Y-6360293D02*
X8417682Y-6341246D01*
X8417682Y-6341246D02*
X8417682Y-6331722D01*
X8417682Y-6331722D02*
X8427206Y-6312674D01*
X8427206Y-6312674D02*
X8446253Y-6303150D01*
X8446253Y-6303150D02*
X8474825Y-6303150D01*
X8474825Y-6303150D02*
X8493873Y-6312674D01*
X8570063Y-6512674D02*
X8579587Y-6503150D01*
X8579587Y-6503150D02*
X8598634Y-6474579D01*
X8598634Y-6474579D02*
X8608158Y-6455531D01*
X8608158Y-6455531D02*
X8617682Y-6426960D01*
X8617682Y-6426960D02*
X8627206Y-6379341D01*
X8627206Y-6379341D02*
X8627206Y-6341246D01*
X8627206Y-6341246D02*
X8617682Y-6293627D01*
X8617682Y-6293627D02*
X8608158Y-6265055D01*
X8608158Y-6265055D02*
X8598634Y-6246008D01*
X8598634Y-6246008D02*
X8579587Y-6217436D01*
X8579587Y-6217436D02*
X8570063Y-6207912D01*
D10*
X3795000Y-6609000D02*
G75*
G03*
X3695000Y-6609000I-50000J0D01*
G01*
X3695000Y-6609000D02*
G75*
G03*
X3795000Y-6609000I50000J0D01*
G01*
D11*
X4160539Y-6700484D02*
X4046253Y-6700484D01*
X4103396Y-6700484D02*
X4103396Y-6500484D01*
X4103396Y-6500484D02*
X4084348Y-6529055D01*
X4084348Y-6529055D02*
X4065301Y-6548103D01*
X4065301Y-6548103D02*
X4046253Y-6557627D01*
X4246253Y-6681436D02*
X4255777Y-6690960D01*
X4255777Y-6690960D02*
X4246253Y-6700484D01*
X4246253Y-6700484D02*
X4236729Y-6690960D01*
X4236729Y-6690960D02*
X4246253Y-6681436D01*
X4246253Y-6681436D02*
X4246253Y-6700484D01*
X4379586Y-6500484D02*
X4398634Y-6500484D01*
X4398634Y-6500484D02*
X4417682Y-6510008D01*
X4417682Y-6510008D02*
X4427205Y-6519531D01*
X4427205Y-6519531D02*
X4436729Y-6538579D01*
X4436729Y-6538579D02*
X4446253Y-6576674D01*
X4446253Y-6576674D02*
X4446253Y-6624293D01*
X4446253Y-6624293D02*
X4436729Y-6662388D01*
X4436729Y-6662388D02*
X4427205Y-6681436D01*
X4427205Y-6681436D02*
X4417682Y-6690960D01*
X4417682Y-6690960D02*
X4398634Y-6700484D01*
X4398634Y-6700484D02*
X4379586Y-6700484D01*
X4379586Y-6700484D02*
X4360539Y-6690960D01*
X4360539Y-6690960D02*
X4351015Y-6681436D01*
X4351015Y-6681436D02*
X4341491Y-6662388D01*
X4341491Y-6662388D02*
X4331967Y-6624293D01*
X4331967Y-6624293D02*
X4331967Y-6576674D01*
X4331967Y-6576674D02*
X4341491Y-6538579D01*
X4341491Y-6538579D02*
X4351015Y-6519531D01*
X4351015Y-6519531D02*
X4360539Y-6510008D01*
X4360539Y-6510008D02*
X4379586Y-6500484D01*
X4570063Y-6500484D02*
X4589110Y-6500484D01*
X4589110Y-6500484D02*
X4608158Y-6510008D01*
X4608158Y-6510008D02*
X4617682Y-6519531D01*
X4617682Y-6519531D02*
X4627205Y-6538579D01*
X4627205Y-6538579D02*
X4636729Y-6576674D01*
X4636729Y-6576674D02*
X4636729Y-6624293D01*
X4636729Y-6624293D02*
X4627205Y-6662388D01*
X4627205Y-6662388D02*
X4617682Y-6681436D01*
X4617682Y-6681436D02*
X4608158Y-6690960D01*
X4608158Y-6690960D02*
X4589110Y-6700484D01*
X4589110Y-6700484D02*
X4570063Y-6700484D01*
X4570063Y-6700484D02*
X4551015Y-6690960D01*
X4551015Y-6690960D02*
X4541491Y-6681436D01*
X4541491Y-6681436D02*
X4531967Y-6662388D01*
X4531967Y-6662388D02*
X4522444Y-6624293D01*
X4522444Y-6624293D02*
X4522444Y-6576674D01*
X4522444Y-6576674D02*
X4531967Y-6538579D01*
X4531967Y-6538579D02*
X4541491Y-6519531D01*
X4541491Y-6519531D02*
X4551015Y-6510008D01*
X4551015Y-6510008D02*
X4570063Y-6500484D01*
X4760539Y-6500484D02*
X4779586Y-6500484D01*
X4779586Y-6500484D02*
X4798634Y-6510008D01*
X4798634Y-6510008D02*
X4808158Y-6519531D01*
X4808158Y-6519531D02*
X4817682Y-6538579D01*
X4817682Y-6538579D02*
X4827205Y-6576674D01*
X4827205Y-6576674D02*
X4827205Y-6624293D01*
X4827205Y-6624293D02*
X4817682Y-6662388D01*
X4817682Y-6662388D02*
X4808158Y-6681436D01*
X4808158Y-6681436D02*
X4798634Y-6690960D01*
X4798634Y-6690960D02*
X4779586Y-6700484D01*
X4779586Y-6700484D02*
X4760539Y-6700484D01*
X4760539Y-6700484D02*
X4741491Y-6690960D01*
X4741491Y-6690960D02*
X4731967Y-6681436D01*
X4731967Y-6681436D02*
X4722444Y-6662388D01*
X4722444Y-6662388D02*
X4712920Y-6624293D01*
X4712920Y-6624293D02*
X4712920Y-6576674D01*
X4712920Y-6576674D02*
X4722444Y-6538579D01*
X4722444Y-6538579D02*
X4731967Y-6519531D01*
X4731967Y-6519531D02*
X4741491Y-6510008D01*
X4741491Y-6510008D02*
X4760539Y-6500484D01*
X4912920Y-6700484D02*
X4912920Y-6567150D01*
X4912920Y-6586198D02*
X4922444Y-6576674D01*
X4922444Y-6576674D02*
X4941491Y-6567150D01*
X4941491Y-6567150D02*
X4970063Y-6567150D01*
X4970063Y-6567150D02*
X4989110Y-6576674D01*
X4989110Y-6576674D02*
X4998634Y-6595722D01*
X4998634Y-6595722D02*
X4998634Y-6700484D01*
X4998634Y-6595722D02*
X5008158Y-6576674D01*
X5008158Y-6576674D02*
X5027205Y-6567150D01*
X5027205Y-6567150D02*
X5055777Y-6567150D01*
X5055777Y-6567150D02*
X5074825Y-6576674D01*
X5074825Y-6576674D02*
X5084348Y-6595722D01*
X5084348Y-6595722D02*
X5084348Y-6700484D01*
X5179586Y-6700484D02*
X5179586Y-6567150D01*
X5179586Y-6586198D02*
X5189110Y-6576674D01*
X5189110Y-6576674D02*
X5208158Y-6567150D01*
X5208158Y-6567150D02*
X5236729Y-6567150D01*
X5236729Y-6567150D02*
X5255777Y-6576674D01*
X5255777Y-6576674D02*
X5265301Y-6595722D01*
X5265301Y-6595722D02*
X5265301Y-6700484D01*
X5265301Y-6595722D02*
X5274825Y-6576674D01*
X5274825Y-6576674D02*
X5293872Y-6567150D01*
X5293872Y-6567150D02*
X5322444Y-6567150D01*
X5322444Y-6567150D02*
X5341491Y-6576674D01*
X5341491Y-6576674D02*
X5351015Y-6595722D01*
X5351015Y-6595722D02*
X5351015Y-6700484D01*
X5741491Y-6490960D02*
X5570063Y-6748103D01*
X5998634Y-6500484D02*
X6017682Y-6500484D01*
X6017682Y-6500484D02*
X6036729Y-6510008D01*
X6036729Y-6510008D02*
X6046253Y-6519531D01*
X6046253Y-6519531D02*
X6055777Y-6538579D01*
X6055777Y-6538579D02*
X6065301Y-6576674D01*
X6065301Y-6576674D02*
X6065301Y-6624293D01*
X6065301Y-6624293D02*
X6055777Y-6662388D01*
X6055777Y-6662388D02*
X6046253Y-6681436D01*
X6046253Y-6681436D02*
X6036729Y-6690960D01*
X6036729Y-6690960D02*
X6017682Y-6700484D01*
X6017682Y-6700484D02*
X5998634Y-6700484D01*
X5998634Y-6700484D02*
X5979586Y-6690960D01*
X5979586Y-6690960D02*
X5970063Y-6681436D01*
X5970063Y-6681436D02*
X5960539Y-6662388D01*
X5960539Y-6662388D02*
X5951015Y-6624293D01*
X5951015Y-6624293D02*
X5951015Y-6576674D01*
X5951015Y-6576674D02*
X5960539Y-6538579D01*
X5960539Y-6538579D02*
X5970063Y-6519531D01*
X5970063Y-6519531D02*
X5979586Y-6510008D01*
X5979586Y-6510008D02*
X5998634Y-6500484D01*
X6151015Y-6681436D02*
X6160539Y-6690960D01*
X6160539Y-6690960D02*
X6151015Y-6700484D01*
X6151015Y-6700484D02*
X6141491Y-6690960D01*
X6141491Y-6690960D02*
X6151015Y-6681436D01*
X6151015Y-6681436D02*
X6151015Y-6700484D01*
X6284348Y-6500484D02*
X6303396Y-6500484D01*
X6303396Y-6500484D02*
X6322444Y-6510008D01*
X6322444Y-6510008D02*
X6331967Y-6519531D01*
X6331967Y-6519531D02*
X6341491Y-6538579D01*
X6341491Y-6538579D02*
X6351015Y-6576674D01*
X6351015Y-6576674D02*
X6351015Y-6624293D01*
X6351015Y-6624293D02*
X6341491Y-6662388D01*
X6341491Y-6662388D02*
X6331967Y-6681436D01*
X6331967Y-6681436D02*
X6322444Y-6690960D01*
X6322444Y-6690960D02*
X6303396Y-6700484D01*
X6303396Y-6700484D02*
X6284348Y-6700484D01*
X6284348Y-6700484D02*
X6265301Y-6690960D01*
X6265301Y-6690960D02*
X6255777Y-6681436D01*
X6255777Y-6681436D02*
X6246253Y-6662388D01*
X6246253Y-6662388D02*
X6236729Y-6624293D01*
X6236729Y-6624293D02*
X6236729Y-6576674D01*
X6236729Y-6576674D02*
X6246253Y-6538579D01*
X6246253Y-6538579D02*
X6255777Y-6519531D01*
X6255777Y-6519531D02*
X6265301Y-6510008D01*
X6265301Y-6510008D02*
X6284348Y-6500484D01*
X6417682Y-6500484D02*
X6541491Y-6500484D01*
X6541491Y-6500484D02*
X6474825Y-6576674D01*
X6474825Y-6576674D02*
X6503396Y-6576674D01*
X6503396Y-6576674D02*
X6522444Y-6586198D01*
X6522444Y-6586198D02*
X6531967Y-6595722D01*
X6531967Y-6595722D02*
X6541491Y-6614769D01*
X6541491Y-6614769D02*
X6541491Y-6662388D01*
X6541491Y-6662388D02*
X6531967Y-6681436D01*
X6531967Y-6681436D02*
X6522444Y-6690960D01*
X6522444Y-6690960D02*
X6503396Y-6700484D01*
X6503396Y-6700484D02*
X6446253Y-6700484D01*
X6446253Y-6700484D02*
X6427206Y-6690960D01*
X6427206Y-6690960D02*
X6417682Y-6681436D01*
X6636729Y-6700484D02*
X6674825Y-6700484D01*
X6674825Y-6700484D02*
X6693872Y-6690960D01*
X6693872Y-6690960D02*
X6703396Y-6681436D01*
X6703396Y-6681436D02*
X6722444Y-6652865D01*
X6722444Y-6652865D02*
X6731967Y-6614769D01*
X6731967Y-6614769D02*
X6731967Y-6538579D01*
X6731967Y-6538579D02*
X6722444Y-6519531D01*
X6722444Y-6519531D02*
X6712920Y-6510008D01*
X6712920Y-6510008D02*
X6693872Y-6500484D01*
X6693872Y-6500484D02*
X6655777Y-6500484D01*
X6655777Y-6500484D02*
X6636729Y-6510008D01*
X6636729Y-6510008D02*
X6627206Y-6519531D01*
X6627206Y-6519531D02*
X6617682Y-6538579D01*
X6617682Y-6538579D02*
X6617682Y-6586198D01*
X6617682Y-6586198D02*
X6627206Y-6605246D01*
X6627206Y-6605246D02*
X6636729Y-6614769D01*
X6636729Y-6614769D02*
X6655777Y-6624293D01*
X6655777Y-6624293D02*
X6693872Y-6624293D01*
X6693872Y-6624293D02*
X6712920Y-6614769D01*
X6712920Y-6614769D02*
X6722444Y-6605246D01*
X6722444Y-6605246D02*
X6731967Y-6586198D01*
X6903396Y-6567150D02*
X6903396Y-6700484D01*
X6855777Y-6490960D02*
X6808158Y-6633817D01*
X6808158Y-6633817D02*
X6931967Y-6633817D01*
X6998634Y-6500484D02*
X6998634Y-6538579D01*
X7074825Y-6500484D02*
X7074825Y-6538579D01*
X7370063Y-6776674D02*
X7360539Y-6767150D01*
X7360539Y-6767150D02*
X7341491Y-6738579D01*
X7341491Y-6738579D02*
X7331968Y-6719531D01*
X7331968Y-6719531D02*
X7322444Y-6690960D01*
X7322444Y-6690960D02*
X7312920Y-6643341D01*
X7312920Y-6643341D02*
X7312920Y-6605246D01*
X7312920Y-6605246D02*
X7322444Y-6557627D01*
X7322444Y-6557627D02*
X7331968Y-6529055D01*
X7331968Y-6529055D02*
X7341491Y-6510008D01*
X7341491Y-6510008D02*
X7360539Y-6481436D01*
X7360539Y-6481436D02*
X7370063Y-6471912D01*
X7531968Y-6567150D02*
X7531968Y-6700484D01*
X7484348Y-6490960D02*
X7436729Y-6633817D01*
X7436729Y-6633817D02*
X7560539Y-6633817D01*
X7789110Y-6700484D02*
X7789110Y-6500484D01*
X7874825Y-6700484D02*
X7874825Y-6595722D01*
X7874825Y-6595722D02*
X7865301Y-6576674D01*
X7865301Y-6576674D02*
X7846253Y-6567150D01*
X7846253Y-6567150D02*
X7817682Y-6567150D01*
X7817682Y-6567150D02*
X7798634Y-6576674D01*
X7798634Y-6576674D02*
X7789110Y-6586198D01*
X7998634Y-6700484D02*
X7979587Y-6690960D01*
X7979587Y-6690960D02*
X7970063Y-6681436D01*
X7970063Y-6681436D02*
X7960539Y-6662388D01*
X7960539Y-6662388D02*
X7960539Y-6605246D01*
X7960539Y-6605246D02*
X7970063Y-6586198D01*
X7970063Y-6586198D02*
X7979587Y-6576674D01*
X7979587Y-6576674D02*
X7998634Y-6567150D01*
X7998634Y-6567150D02*
X8027206Y-6567150D01*
X8027206Y-6567150D02*
X8046253Y-6576674D01*
X8046253Y-6576674D02*
X8055777Y-6586198D01*
X8055777Y-6586198D02*
X8065301Y-6605246D01*
X8065301Y-6605246D02*
X8065301Y-6662388D01*
X8065301Y-6662388D02*
X8055777Y-6681436D01*
X8055777Y-6681436D02*
X8046253Y-6690960D01*
X8046253Y-6690960D02*
X8027206Y-6700484D01*
X8027206Y-6700484D02*
X7998634Y-6700484D01*
X8179587Y-6700484D02*
X8160539Y-6690960D01*
X8160539Y-6690960D02*
X8151015Y-6671912D01*
X8151015Y-6671912D02*
X8151015Y-6500484D01*
X8331968Y-6690960D02*
X8312920Y-6700484D01*
X8312920Y-6700484D02*
X8274825Y-6700484D01*
X8274825Y-6700484D02*
X8255777Y-6690960D01*
X8255777Y-6690960D02*
X8246253Y-6671912D01*
X8246253Y-6671912D02*
X8246253Y-6595722D01*
X8246253Y-6595722D02*
X8255777Y-6576674D01*
X8255777Y-6576674D02*
X8274825Y-6567150D01*
X8274825Y-6567150D02*
X8312920Y-6567150D01*
X8312920Y-6567150D02*
X8331968Y-6576674D01*
X8331968Y-6576674D02*
X8341491Y-6595722D01*
X8341491Y-6595722D02*
X8341491Y-6614769D01*
X8341491Y-6614769D02*
X8246253Y-6633817D01*
X8417682Y-6690960D02*
X8436730Y-6700484D01*
X8436730Y-6700484D02*
X8474825Y-6700484D01*
X8474825Y-6700484D02*
X8493873Y-6690960D01*
X8493873Y-6690960D02*
X8503396Y-6671912D01*
X8503396Y-6671912D02*
X8503396Y-6662388D01*
X8503396Y-6662388D02*
X8493873Y-6643341D01*
X8493873Y-6643341D02*
X8474825Y-6633817D01*
X8474825Y-6633817D02*
X8446253Y-6633817D01*
X8446253Y-6633817D02*
X8427206Y-6624293D01*
X8427206Y-6624293D02*
X8417682Y-6605246D01*
X8417682Y-6605246D02*
X8417682Y-6595722D01*
X8417682Y-6595722D02*
X8427206Y-6576674D01*
X8427206Y-6576674D02*
X8446253Y-6567150D01*
X8446253Y-6567150D02*
X8474825Y-6567150D01*
X8474825Y-6567150D02*
X8493873Y-6576674D01*
X8570063Y-6776674D02*
X8579587Y-6767150D01*
X8579587Y-6767150D02*
X8598634Y-6738579D01*
X8598634Y-6738579D02*
X8608158Y-6719531D01*
X8608158Y-6719531D02*
X8617682Y-6690960D01*
X8617682Y-6690960D02*
X8627206Y-6643341D01*
X8627206Y-6643341D02*
X8627206Y-6605246D01*
X8627206Y-6605246D02*
X8617682Y-6557627D01*
X8617682Y-6557627D02*
X8608158Y-6529055D01*
X8608158Y-6529055D02*
X8598634Y-6510008D01*
X8598634Y-6510008D02*
X8579587Y-6481436D01*
X8579587Y-6481436D02*
X8570063Y-6471912D01*
D12*
X3744000Y-6822000D02*
X3744000Y-6924000D01*
X3693000Y-6873000D02*
X3795000Y-6873000D01*
D11*
X4160539Y-6964484D02*
X4046253Y-6964484D01*
X4103396Y-6964484D02*
X4103396Y-6764484D01*
X4103396Y-6764484D02*
X4084348Y-6793055D01*
X4084348Y-6793055D02*
X4065301Y-6812103D01*
X4065301Y-6812103D02*
X4046253Y-6821627D01*
X4246253Y-6945436D02*
X4255777Y-6954960D01*
X4255777Y-6954960D02*
X4246253Y-6964484D01*
X4246253Y-6964484D02*
X4236729Y-6954960D01*
X4236729Y-6954960D02*
X4246253Y-6945436D01*
X4246253Y-6945436D02*
X4246253Y-6964484D01*
X4379586Y-6764484D02*
X4398634Y-6764484D01*
X4398634Y-6764484D02*
X4417682Y-6774008D01*
X4417682Y-6774008D02*
X4427205Y-6783531D01*
X4427205Y-6783531D02*
X4436729Y-6802579D01*
X4436729Y-6802579D02*
X4446253Y-6840674D01*
X4446253Y-6840674D02*
X4446253Y-6888293D01*
X4446253Y-6888293D02*
X4436729Y-6926388D01*
X4436729Y-6926388D02*
X4427205Y-6945436D01*
X4427205Y-6945436D02*
X4417682Y-6954960D01*
X4417682Y-6954960D02*
X4398634Y-6964484D01*
X4398634Y-6964484D02*
X4379586Y-6964484D01*
X4379586Y-6964484D02*
X4360539Y-6954960D01*
X4360539Y-6954960D02*
X4351015Y-6945436D01*
X4351015Y-6945436D02*
X4341491Y-6926388D01*
X4341491Y-6926388D02*
X4331967Y-6888293D01*
X4331967Y-6888293D02*
X4331967Y-6840674D01*
X4331967Y-6840674D02*
X4341491Y-6802579D01*
X4341491Y-6802579D02*
X4351015Y-6783531D01*
X4351015Y-6783531D02*
X4360539Y-6774008D01*
X4360539Y-6774008D02*
X4379586Y-6764484D01*
X4522444Y-6783531D02*
X4531967Y-6774008D01*
X4531967Y-6774008D02*
X4551015Y-6764484D01*
X4551015Y-6764484D02*
X4598634Y-6764484D01*
X4598634Y-6764484D02*
X4617682Y-6774008D01*
X4617682Y-6774008D02*
X4627205Y-6783531D01*
X4627205Y-6783531D02*
X4636729Y-6802579D01*
X4636729Y-6802579D02*
X4636729Y-6821627D01*
X4636729Y-6821627D02*
X4627205Y-6850198D01*
X4627205Y-6850198D02*
X4512920Y-6964484D01*
X4512920Y-6964484D02*
X4636729Y-6964484D01*
X4760539Y-6764484D02*
X4779586Y-6764484D01*
X4779586Y-6764484D02*
X4798634Y-6774008D01*
X4798634Y-6774008D02*
X4808158Y-6783531D01*
X4808158Y-6783531D02*
X4817682Y-6802579D01*
X4817682Y-6802579D02*
X4827205Y-6840674D01*
X4827205Y-6840674D02*
X4827205Y-6888293D01*
X4827205Y-6888293D02*
X4817682Y-6926388D01*
X4817682Y-6926388D02*
X4808158Y-6945436D01*
X4808158Y-6945436D02*
X4798634Y-6954960D01*
X4798634Y-6954960D02*
X4779586Y-6964484D01*
X4779586Y-6964484D02*
X4760539Y-6964484D01*
X4760539Y-6964484D02*
X4741491Y-6954960D01*
X4741491Y-6954960D02*
X4731967Y-6945436D01*
X4731967Y-6945436D02*
X4722444Y-6926388D01*
X4722444Y-6926388D02*
X4712920Y-6888293D01*
X4712920Y-6888293D02*
X4712920Y-6840674D01*
X4712920Y-6840674D02*
X4722444Y-6802579D01*
X4722444Y-6802579D02*
X4731967Y-6783531D01*
X4731967Y-6783531D02*
X4741491Y-6774008D01*
X4741491Y-6774008D02*
X4760539Y-6764484D01*
X4912920Y-6964484D02*
X4912920Y-6831150D01*
X4912920Y-6850198D02*
X4922444Y-6840674D01*
X4922444Y-6840674D02*
X4941491Y-6831150D01*
X4941491Y-6831150D02*
X4970063Y-6831150D01*
X4970063Y-6831150D02*
X4989110Y-6840674D01*
X4989110Y-6840674D02*
X4998634Y-6859722D01*
X4998634Y-6859722D02*
X4998634Y-6964484D01*
X4998634Y-6859722D02*
X5008158Y-6840674D01*
X5008158Y-6840674D02*
X5027205Y-6831150D01*
X5027205Y-6831150D02*
X5055777Y-6831150D01*
X5055777Y-6831150D02*
X5074825Y-6840674D01*
X5074825Y-6840674D02*
X5084348Y-6859722D01*
X5084348Y-6859722D02*
X5084348Y-6964484D01*
X5179586Y-6964484D02*
X5179586Y-6831150D01*
X5179586Y-6850198D02*
X5189110Y-6840674D01*
X5189110Y-6840674D02*
X5208158Y-6831150D01*
X5208158Y-6831150D02*
X5236729Y-6831150D01*
X5236729Y-6831150D02*
X5255777Y-6840674D01*
X5255777Y-6840674D02*
X5265301Y-6859722D01*
X5265301Y-6859722D02*
X5265301Y-6964484D01*
X5265301Y-6859722D02*
X5274825Y-6840674D01*
X5274825Y-6840674D02*
X5293872Y-6831150D01*
X5293872Y-6831150D02*
X5322444Y-6831150D01*
X5322444Y-6831150D02*
X5341491Y-6840674D01*
X5341491Y-6840674D02*
X5351015Y-6859722D01*
X5351015Y-6859722D02*
X5351015Y-6964484D01*
X5741491Y-6754960D02*
X5570063Y-7012103D01*
X5998634Y-6764484D02*
X6017682Y-6764484D01*
X6017682Y-6764484D02*
X6036729Y-6774008D01*
X6036729Y-6774008D02*
X6046253Y-6783531D01*
X6046253Y-6783531D02*
X6055777Y-6802579D01*
X6055777Y-6802579D02*
X6065301Y-6840674D01*
X6065301Y-6840674D02*
X6065301Y-6888293D01*
X6065301Y-6888293D02*
X6055777Y-6926388D01*
X6055777Y-6926388D02*
X6046253Y-6945436D01*
X6046253Y-6945436D02*
X6036729Y-6954960D01*
X6036729Y-6954960D02*
X6017682Y-6964484D01*
X6017682Y-6964484D02*
X5998634Y-6964484D01*
X5998634Y-6964484D02*
X5979586Y-6954960D01*
X5979586Y-6954960D02*
X5970063Y-6945436D01*
X5970063Y-6945436D02*
X5960539Y-6926388D01*
X5960539Y-6926388D02*
X5951015Y-6888293D01*
X5951015Y-6888293D02*
X5951015Y-6840674D01*
X5951015Y-6840674D02*
X5960539Y-6802579D01*
X5960539Y-6802579D02*
X5970063Y-6783531D01*
X5970063Y-6783531D02*
X5979586Y-6774008D01*
X5979586Y-6774008D02*
X5998634Y-6764484D01*
X6151015Y-6945436D02*
X6160539Y-6954960D01*
X6160539Y-6954960D02*
X6151015Y-6964484D01*
X6151015Y-6964484D02*
X6141491Y-6954960D01*
X6141491Y-6954960D02*
X6151015Y-6945436D01*
X6151015Y-6945436D02*
X6151015Y-6964484D01*
X6284348Y-6764484D02*
X6303396Y-6764484D01*
X6303396Y-6764484D02*
X6322444Y-6774008D01*
X6322444Y-6774008D02*
X6331967Y-6783531D01*
X6331967Y-6783531D02*
X6341491Y-6802579D01*
X6341491Y-6802579D02*
X6351015Y-6840674D01*
X6351015Y-6840674D02*
X6351015Y-6888293D01*
X6351015Y-6888293D02*
X6341491Y-6926388D01*
X6341491Y-6926388D02*
X6331967Y-6945436D01*
X6331967Y-6945436D02*
X6322444Y-6954960D01*
X6322444Y-6954960D02*
X6303396Y-6964484D01*
X6303396Y-6964484D02*
X6284348Y-6964484D01*
X6284348Y-6964484D02*
X6265301Y-6954960D01*
X6265301Y-6954960D02*
X6255777Y-6945436D01*
X6255777Y-6945436D02*
X6246253Y-6926388D01*
X6246253Y-6926388D02*
X6236729Y-6888293D01*
X6236729Y-6888293D02*
X6236729Y-6840674D01*
X6236729Y-6840674D02*
X6246253Y-6802579D01*
X6246253Y-6802579D02*
X6255777Y-6783531D01*
X6255777Y-6783531D02*
X6265301Y-6774008D01*
X6265301Y-6774008D02*
X6284348Y-6764484D01*
X6522444Y-6831150D02*
X6522444Y-6964484D01*
X6474825Y-6754960D02*
X6427206Y-6897817D01*
X6427206Y-6897817D02*
X6551015Y-6897817D01*
X6665301Y-6764484D02*
X6684348Y-6764484D01*
X6684348Y-6764484D02*
X6703396Y-6774008D01*
X6703396Y-6774008D02*
X6712920Y-6783531D01*
X6712920Y-6783531D02*
X6722444Y-6802579D01*
X6722444Y-6802579D02*
X6731967Y-6840674D01*
X6731967Y-6840674D02*
X6731967Y-6888293D01*
X6731967Y-6888293D02*
X6722444Y-6926388D01*
X6722444Y-6926388D02*
X6712920Y-6945436D01*
X6712920Y-6945436D02*
X6703396Y-6954960D01*
X6703396Y-6954960D02*
X6684348Y-6964484D01*
X6684348Y-6964484D02*
X6665301Y-6964484D01*
X6665301Y-6964484D02*
X6646253Y-6954960D01*
X6646253Y-6954960D02*
X6636729Y-6945436D01*
X6636729Y-6945436D02*
X6627206Y-6926388D01*
X6627206Y-6926388D02*
X6617682Y-6888293D01*
X6617682Y-6888293D02*
X6617682Y-6840674D01*
X6617682Y-6840674D02*
X6627206Y-6802579D01*
X6627206Y-6802579D02*
X6636729Y-6783531D01*
X6636729Y-6783531D02*
X6646253Y-6774008D01*
X6646253Y-6774008D02*
X6665301Y-6764484D01*
X6808158Y-6783531D02*
X6817682Y-6774008D01*
X6817682Y-6774008D02*
X6836729Y-6764484D01*
X6836729Y-6764484D02*
X6884348Y-6764484D01*
X6884348Y-6764484D02*
X6903396Y-6774008D01*
X6903396Y-6774008D02*
X6912920Y-6783531D01*
X6912920Y-6783531D02*
X6922444Y-6802579D01*
X6922444Y-6802579D02*
X6922444Y-6821627D01*
X6922444Y-6821627D02*
X6912920Y-6850198D01*
X6912920Y-6850198D02*
X6798634Y-6964484D01*
X6798634Y-6964484D02*
X6922444Y-6964484D01*
X6998634Y-6764484D02*
X6998634Y-6802579D01*
X7074825Y-6764484D02*
X7074825Y-6802579D01*
X7370063Y-7040674D02*
X7360539Y-7031150D01*
X7360539Y-7031150D02*
X7341491Y-7002579D01*
X7341491Y-7002579D02*
X7331968Y-6983531D01*
X7331968Y-6983531D02*
X7322444Y-6954960D01*
X7322444Y-6954960D02*
X7312920Y-6907341D01*
X7312920Y-6907341D02*
X7312920Y-6869246D01*
X7312920Y-6869246D02*
X7322444Y-6821627D01*
X7322444Y-6821627D02*
X7331968Y-6793055D01*
X7331968Y-6793055D02*
X7341491Y-6774008D01*
X7341491Y-6774008D02*
X7360539Y-6745436D01*
X7360539Y-6745436D02*
X7370063Y-6735912D01*
X7541491Y-6764484D02*
X7446253Y-6764484D01*
X7446253Y-6764484D02*
X7436729Y-6859722D01*
X7436729Y-6859722D02*
X7446253Y-6850198D01*
X7446253Y-6850198D02*
X7465301Y-6840674D01*
X7465301Y-6840674D02*
X7512920Y-6840674D01*
X7512920Y-6840674D02*
X7531968Y-6850198D01*
X7531968Y-6850198D02*
X7541491Y-6859722D01*
X7541491Y-6859722D02*
X7551015Y-6878769D01*
X7551015Y-6878769D02*
X7551015Y-6926388D01*
X7551015Y-6926388D02*
X7541491Y-6945436D01*
X7541491Y-6945436D02*
X7531968Y-6954960D01*
X7531968Y-6954960D02*
X7512920Y-6964484D01*
X7512920Y-6964484D02*
X7465301Y-6964484D01*
X7465301Y-6964484D02*
X7446253Y-6954960D01*
X7446253Y-6954960D02*
X7436729Y-6945436D01*
X7722444Y-6831150D02*
X7722444Y-6964484D01*
X7674825Y-6754960D02*
X7627206Y-6897817D01*
X7627206Y-6897817D02*
X7751015Y-6897817D01*
X7979587Y-6964484D02*
X7979587Y-6764484D01*
X8065301Y-6964484D02*
X8065301Y-6859722D01*
X8065301Y-6859722D02*
X8055777Y-6840674D01*
X8055777Y-6840674D02*
X8036730Y-6831150D01*
X8036730Y-6831150D02*
X8008158Y-6831150D01*
X8008158Y-6831150D02*
X7989110Y-6840674D01*
X7989110Y-6840674D02*
X7979587Y-6850198D01*
X8189110Y-6964484D02*
X8170063Y-6954960D01*
X8170063Y-6954960D02*
X8160539Y-6945436D01*
X8160539Y-6945436D02*
X8151015Y-6926388D01*
X8151015Y-6926388D02*
X8151015Y-6869246D01*
X8151015Y-6869246D02*
X8160539Y-6850198D01*
X8160539Y-6850198D02*
X8170063Y-6840674D01*
X8170063Y-6840674D02*
X8189110Y-6831150D01*
X8189110Y-6831150D02*
X8217682Y-6831150D01*
X8217682Y-6831150D02*
X8236730Y-6840674D01*
X8236730Y-6840674D02*
X8246253Y-6850198D01*
X8246253Y-6850198D02*
X8255777Y-6869246D01*
X8255777Y-6869246D02*
X8255777Y-6926388D01*
X8255777Y-6926388D02*
X8246253Y-6945436D01*
X8246253Y-6945436D02*
X8236730Y-6954960D01*
X8236730Y-6954960D02*
X8217682Y-6964484D01*
X8217682Y-6964484D02*
X8189110Y-6964484D01*
X8370063Y-6964484D02*
X8351015Y-6954960D01*
X8351015Y-6954960D02*
X8341491Y-6935912D01*
X8341491Y-6935912D02*
X8341491Y-6764484D01*
X8522444Y-6954960D02*
X8503396Y-6964484D01*
X8503396Y-6964484D02*
X8465301Y-6964484D01*
X8465301Y-6964484D02*
X8446253Y-6954960D01*
X8446253Y-6954960D02*
X8436730Y-6935912D01*
X8436730Y-6935912D02*
X8436730Y-6859722D01*
X8436730Y-6859722D02*
X8446253Y-6840674D01*
X8446253Y-6840674D02*
X8465301Y-6831150D01*
X8465301Y-6831150D02*
X8503396Y-6831150D01*
X8503396Y-6831150D02*
X8522444Y-6840674D01*
X8522444Y-6840674D02*
X8531968Y-6859722D01*
X8531968Y-6859722D02*
X8531968Y-6878769D01*
X8531968Y-6878769D02*
X8436730Y-6897817D01*
X8608158Y-6954960D02*
X8627206Y-6964484D01*
X8627206Y-6964484D02*
X8665301Y-6964484D01*
X8665301Y-6964484D02*
X8684349Y-6954960D01*
X8684349Y-6954960D02*
X8693873Y-6935912D01*
X8693873Y-6935912D02*
X8693873Y-6926388D01*
X8693873Y-6926388D02*
X8684349Y-6907341D01*
X8684349Y-6907341D02*
X8665301Y-6897817D01*
X8665301Y-6897817D02*
X8636730Y-6897817D01*
X8636730Y-6897817D02*
X8617682Y-6888293D01*
X8617682Y-6888293D02*
X8608158Y-6869246D01*
X8608158Y-6869246D02*
X8608158Y-6859722D01*
X8608158Y-6859722D02*
X8617682Y-6840674D01*
X8617682Y-6840674D02*
X8636730Y-6831150D01*
X8636730Y-6831150D02*
X8665301Y-6831150D01*
X8665301Y-6831150D02*
X8684349Y-6840674D01*
X8760539Y-7040674D02*
X8770063Y-7031150D01*
X8770063Y-7031150D02*
X8789111Y-7002579D01*
X8789111Y-7002579D02*
X8798634Y-6983531D01*
X8798634Y-6983531D02*
X8808158Y-6954960D01*
X8808158Y-6954960D02*
X8817682Y-6907341D01*
X8817682Y-6907341D02*
X8817682Y-6869246D01*
X8817682Y-6869246D02*
X8808158Y-6821627D01*
X8808158Y-6821627D02*
X8798634Y-6793055D01*
X8798634Y-6793055D02*
X8789111Y-6774008D01*
X8789111Y-6774008D02*
X8770063Y-6745436D01*
X8770063Y-6745436D02*
X8760539Y-6735912D01*
D13*
X3778891Y-7175891D02*
X3778891Y-7098109D01*
X3701109Y-7098109D01*
X3701109Y-7175891D01*
X3778891Y-7175891D01*
D11*
X4160539Y-7228484D02*
X4046253Y-7228484D01*
X4103396Y-7228484D02*
X4103396Y-7028484D01*
X4103396Y-7028484D02*
X4084348Y-7057055D01*
X4084348Y-7057055D02*
X4065301Y-7076103D01*
X4065301Y-7076103D02*
X4046253Y-7085627D01*
X4246253Y-7209436D02*
X4255777Y-7218960D01*
X4255777Y-7218960D02*
X4246253Y-7228484D01*
X4246253Y-7228484D02*
X4236729Y-7218960D01*
X4236729Y-7218960D02*
X4246253Y-7209436D01*
X4246253Y-7209436D02*
X4246253Y-7228484D01*
X4446253Y-7228484D02*
X4331967Y-7228484D01*
X4389110Y-7228484D02*
X4389110Y-7028484D01*
X4389110Y-7028484D02*
X4370063Y-7057055D01*
X4370063Y-7057055D02*
X4351015Y-7076103D01*
X4351015Y-7076103D02*
X4331967Y-7085627D01*
X4570063Y-7028484D02*
X4589110Y-7028484D01*
X4589110Y-7028484D02*
X4608158Y-7038008D01*
X4608158Y-7038008D02*
X4617682Y-7047531D01*
X4617682Y-7047531D02*
X4627205Y-7066579D01*
X4627205Y-7066579D02*
X4636729Y-7104674D01*
X4636729Y-7104674D02*
X4636729Y-7152293D01*
X4636729Y-7152293D02*
X4627205Y-7190388D01*
X4627205Y-7190388D02*
X4617682Y-7209436D01*
X4617682Y-7209436D02*
X4608158Y-7218960D01*
X4608158Y-7218960D02*
X4589110Y-7228484D01*
X4589110Y-7228484D02*
X4570063Y-7228484D01*
X4570063Y-7228484D02*
X4551015Y-7218960D01*
X4551015Y-7218960D02*
X4541491Y-7209436D01*
X4541491Y-7209436D02*
X4531967Y-7190388D01*
X4531967Y-7190388D02*
X4522444Y-7152293D01*
X4522444Y-7152293D02*
X4522444Y-7104674D01*
X4522444Y-7104674D02*
X4531967Y-7066579D01*
X4531967Y-7066579D02*
X4541491Y-7047531D01*
X4541491Y-7047531D02*
X4551015Y-7038008D01*
X4551015Y-7038008D02*
X4570063Y-7028484D01*
X4760539Y-7028484D02*
X4779586Y-7028484D01*
X4779586Y-7028484D02*
X4798634Y-7038008D01*
X4798634Y-7038008D02*
X4808158Y-7047531D01*
X4808158Y-7047531D02*
X4817682Y-7066579D01*
X4817682Y-7066579D02*
X4827205Y-7104674D01*
X4827205Y-7104674D02*
X4827205Y-7152293D01*
X4827205Y-7152293D02*
X4817682Y-7190388D01*
X4817682Y-7190388D02*
X4808158Y-7209436D01*
X4808158Y-7209436D02*
X4798634Y-7218960D01*
X4798634Y-7218960D02*
X4779586Y-7228484D01*
X4779586Y-7228484D02*
X4760539Y-7228484D01*
X4760539Y-7228484D02*
X4741491Y-7218960D01*
X4741491Y-7218960D02*
X4731967Y-7209436D01*
X4731967Y-7209436D02*
X4722444Y-7190388D01*
X4722444Y-7190388D02*
X4712920Y-7152293D01*
X4712920Y-7152293D02*
X4712920Y-7104674D01*
X4712920Y-7104674D02*
X4722444Y-7066579D01*
X4722444Y-7066579D02*
X4731967Y-7047531D01*
X4731967Y-7047531D02*
X4741491Y-7038008D01*
X4741491Y-7038008D02*
X4760539Y-7028484D01*
X4912920Y-7228484D02*
X4912920Y-7095150D01*
X4912920Y-7114198D02*
X4922444Y-7104674D01*
X4922444Y-7104674D02*
X4941491Y-7095150D01*
X4941491Y-7095150D02*
X4970063Y-7095150D01*
X4970063Y-7095150D02*
X4989110Y-7104674D01*
X4989110Y-7104674D02*
X4998634Y-7123722D01*
X4998634Y-7123722D02*
X4998634Y-7228484D01*
X4998634Y-7123722D02*
X5008158Y-7104674D01*
X5008158Y-7104674D02*
X5027205Y-7095150D01*
X5027205Y-7095150D02*
X5055777Y-7095150D01*
X5055777Y-7095150D02*
X5074825Y-7104674D01*
X5074825Y-7104674D02*
X5084348Y-7123722D01*
X5084348Y-7123722D02*
X5084348Y-7228484D01*
X5179586Y-7228484D02*
X5179586Y-7095150D01*
X5179586Y-7114198D02*
X5189110Y-7104674D01*
X5189110Y-7104674D02*
X5208158Y-7095150D01*
X5208158Y-7095150D02*
X5236729Y-7095150D01*
X5236729Y-7095150D02*
X5255777Y-7104674D01*
X5255777Y-7104674D02*
X5265301Y-7123722D01*
X5265301Y-7123722D02*
X5265301Y-7228484D01*
X5265301Y-7123722D02*
X5274825Y-7104674D01*
X5274825Y-7104674D02*
X5293872Y-7095150D01*
X5293872Y-7095150D02*
X5322444Y-7095150D01*
X5322444Y-7095150D02*
X5341491Y-7104674D01*
X5341491Y-7104674D02*
X5351015Y-7123722D01*
X5351015Y-7123722D02*
X5351015Y-7228484D01*
X5741491Y-7018960D02*
X5570063Y-7276103D01*
X5998634Y-7028484D02*
X6017682Y-7028484D01*
X6017682Y-7028484D02*
X6036729Y-7038008D01*
X6036729Y-7038008D02*
X6046253Y-7047531D01*
X6046253Y-7047531D02*
X6055777Y-7066579D01*
X6055777Y-7066579D02*
X6065301Y-7104674D01*
X6065301Y-7104674D02*
X6065301Y-7152293D01*
X6065301Y-7152293D02*
X6055777Y-7190388D01*
X6055777Y-7190388D02*
X6046253Y-7209436D01*
X6046253Y-7209436D02*
X6036729Y-7218960D01*
X6036729Y-7218960D02*
X6017682Y-7228484D01*
X6017682Y-7228484D02*
X5998634Y-7228484D01*
X5998634Y-7228484D02*
X5979586Y-7218960D01*
X5979586Y-7218960D02*
X5970063Y-7209436D01*
X5970063Y-7209436D02*
X5960539Y-7190388D01*
X5960539Y-7190388D02*
X5951015Y-7152293D01*
X5951015Y-7152293D02*
X5951015Y-7104674D01*
X5951015Y-7104674D02*
X5960539Y-7066579D01*
X5960539Y-7066579D02*
X5970063Y-7047531D01*
X5970063Y-7047531D02*
X5979586Y-7038008D01*
X5979586Y-7038008D02*
X5998634Y-7028484D01*
X6151015Y-7209436D02*
X6160539Y-7218960D01*
X6160539Y-7218960D02*
X6151015Y-7228484D01*
X6151015Y-7228484D02*
X6141491Y-7218960D01*
X6141491Y-7218960D02*
X6151015Y-7209436D01*
X6151015Y-7209436D02*
X6151015Y-7228484D01*
X6284348Y-7028484D02*
X6303396Y-7028484D01*
X6303396Y-7028484D02*
X6322444Y-7038008D01*
X6322444Y-7038008D02*
X6331967Y-7047531D01*
X6331967Y-7047531D02*
X6341491Y-7066579D01*
X6341491Y-7066579D02*
X6351015Y-7104674D01*
X6351015Y-7104674D02*
X6351015Y-7152293D01*
X6351015Y-7152293D02*
X6341491Y-7190388D01*
X6341491Y-7190388D02*
X6331967Y-7209436D01*
X6331967Y-7209436D02*
X6322444Y-7218960D01*
X6322444Y-7218960D02*
X6303396Y-7228484D01*
X6303396Y-7228484D02*
X6284348Y-7228484D01*
X6284348Y-7228484D02*
X6265301Y-7218960D01*
X6265301Y-7218960D02*
X6255777Y-7209436D01*
X6255777Y-7209436D02*
X6246253Y-7190388D01*
X6246253Y-7190388D02*
X6236729Y-7152293D01*
X6236729Y-7152293D02*
X6236729Y-7104674D01*
X6236729Y-7104674D02*
X6246253Y-7066579D01*
X6246253Y-7066579D02*
X6255777Y-7047531D01*
X6255777Y-7047531D02*
X6265301Y-7038008D01*
X6265301Y-7038008D02*
X6284348Y-7028484D01*
X6522444Y-7095150D02*
X6522444Y-7228484D01*
X6474825Y-7018960D02*
X6427206Y-7161817D01*
X6427206Y-7161817D02*
X6551015Y-7161817D01*
X6608158Y-7028484D02*
X6731967Y-7028484D01*
X6731967Y-7028484D02*
X6665301Y-7104674D01*
X6665301Y-7104674D02*
X6693872Y-7104674D01*
X6693872Y-7104674D02*
X6712920Y-7114198D01*
X6712920Y-7114198D02*
X6722444Y-7123722D01*
X6722444Y-7123722D02*
X6731967Y-7142769D01*
X6731967Y-7142769D02*
X6731967Y-7190388D01*
X6731967Y-7190388D02*
X6722444Y-7209436D01*
X6722444Y-7209436D02*
X6712920Y-7218960D01*
X6712920Y-7218960D02*
X6693872Y-7228484D01*
X6693872Y-7228484D02*
X6636729Y-7228484D01*
X6636729Y-7228484D02*
X6617682Y-7218960D01*
X6617682Y-7218960D02*
X6608158Y-7209436D01*
X6798634Y-7028484D02*
X6922444Y-7028484D01*
X6922444Y-7028484D02*
X6855777Y-7104674D01*
X6855777Y-7104674D02*
X6884348Y-7104674D01*
X6884348Y-7104674D02*
X6903396Y-7114198D01*
X6903396Y-7114198D02*
X6912920Y-7123722D01*
X6912920Y-7123722D02*
X6922444Y-7142769D01*
X6922444Y-7142769D02*
X6922444Y-7190388D01*
X6922444Y-7190388D02*
X6912920Y-7209436D01*
X6912920Y-7209436D02*
X6903396Y-7218960D01*
X6903396Y-7218960D02*
X6884348Y-7228484D01*
X6884348Y-7228484D02*
X6827206Y-7228484D01*
X6827206Y-7228484D02*
X6808158Y-7218960D01*
X6808158Y-7218960D02*
X6798634Y-7209436D01*
X6998634Y-7028484D02*
X6998634Y-7066579D01*
X7074825Y-7028484D02*
X7074825Y-7066579D01*
X7370063Y-7304674D02*
X7360539Y-7295150D01*
X7360539Y-7295150D02*
X7341491Y-7266579D01*
X7341491Y-7266579D02*
X7331968Y-7247531D01*
X7331968Y-7247531D02*
X7322444Y-7218960D01*
X7322444Y-7218960D02*
X7312920Y-7171341D01*
X7312920Y-7171341D02*
X7312920Y-7133246D01*
X7312920Y-7133246D02*
X7322444Y-7085627D01*
X7322444Y-7085627D02*
X7331968Y-7057055D01*
X7331968Y-7057055D02*
X7341491Y-7038008D01*
X7341491Y-7038008D02*
X7360539Y-7009436D01*
X7360539Y-7009436D02*
X7370063Y-6999912D01*
X7436729Y-7047531D02*
X7446253Y-7038008D01*
X7446253Y-7038008D02*
X7465301Y-7028484D01*
X7465301Y-7028484D02*
X7512920Y-7028484D01*
X7512920Y-7028484D02*
X7531968Y-7038008D01*
X7531968Y-7038008D02*
X7541491Y-7047531D01*
X7541491Y-7047531D02*
X7551015Y-7066579D01*
X7551015Y-7066579D02*
X7551015Y-7085627D01*
X7551015Y-7085627D02*
X7541491Y-7114198D01*
X7541491Y-7114198D02*
X7427206Y-7228484D01*
X7427206Y-7228484D02*
X7551015Y-7228484D01*
X7789110Y-7228484D02*
X7789110Y-7028484D01*
X7874825Y-7228484D02*
X7874825Y-7123722D01*
X7874825Y-7123722D02*
X7865301Y-7104674D01*
X7865301Y-7104674D02*
X7846253Y-7095150D01*
X7846253Y-7095150D02*
X7817682Y-7095150D01*
X7817682Y-7095150D02*
X7798634Y-7104674D01*
X7798634Y-7104674D02*
X7789110Y-7114198D01*
X7998634Y-7228484D02*
X7979587Y-7218960D01*
X7979587Y-7218960D02*
X7970063Y-7209436D01*
X7970063Y-7209436D02*
X7960539Y-7190388D01*
X7960539Y-7190388D02*
X7960539Y-7133246D01*
X7960539Y-7133246D02*
X7970063Y-7114198D01*
X7970063Y-7114198D02*
X7979587Y-7104674D01*
X7979587Y-7104674D02*
X7998634Y-7095150D01*
X7998634Y-7095150D02*
X8027206Y-7095150D01*
X8027206Y-7095150D02*
X8046253Y-7104674D01*
X8046253Y-7104674D02*
X8055777Y-7114198D01*
X8055777Y-7114198D02*
X8065301Y-7133246D01*
X8065301Y-7133246D02*
X8065301Y-7190388D01*
X8065301Y-7190388D02*
X8055777Y-7209436D01*
X8055777Y-7209436D02*
X8046253Y-7218960D01*
X8046253Y-7218960D02*
X8027206Y-7228484D01*
X8027206Y-7228484D02*
X7998634Y-7228484D01*
X8179587Y-7228484D02*
X8160539Y-7218960D01*
X8160539Y-7218960D02*
X8151015Y-7199912D01*
X8151015Y-7199912D02*
X8151015Y-7028484D01*
X8331968Y-7218960D02*
X8312920Y-7228484D01*
X8312920Y-7228484D02*
X8274825Y-7228484D01*
X8274825Y-7228484D02*
X8255777Y-7218960D01*
X8255777Y-7218960D02*
X8246253Y-7199912D01*
X8246253Y-7199912D02*
X8246253Y-7123722D01*
X8246253Y-7123722D02*
X8255777Y-7104674D01*
X8255777Y-7104674D02*
X8274825Y-7095150D01*
X8274825Y-7095150D02*
X8312920Y-7095150D01*
X8312920Y-7095150D02*
X8331968Y-7104674D01*
X8331968Y-7104674D02*
X8341491Y-7123722D01*
X8341491Y-7123722D02*
X8341491Y-7142769D01*
X8341491Y-7142769D02*
X8246253Y-7161817D01*
X8417682Y-7218960D02*
X8436730Y-7228484D01*
X8436730Y-7228484D02*
X8474825Y-7228484D01*
X8474825Y-7228484D02*
X8493873Y-7218960D01*
X8493873Y-7218960D02*
X8503396Y-7199912D01*
X8503396Y-7199912D02*
X8503396Y-7190388D01*
X8503396Y-7190388D02*
X8493873Y-7171341D01*
X8493873Y-7171341D02*
X8474825Y-7161817D01*
X8474825Y-7161817D02*
X8446253Y-7161817D01*
X8446253Y-7161817D02*
X8427206Y-7152293D01*
X8427206Y-7152293D02*
X8417682Y-7133246D01*
X8417682Y-7133246D02*
X8417682Y-7123722D01*
X8417682Y-7123722D02*
X8427206Y-7104674D01*
X8427206Y-7104674D02*
X8446253Y-7095150D01*
X8446253Y-7095150D02*
X8474825Y-7095150D01*
X8474825Y-7095150D02*
X8493873Y-7104674D01*
X8570063Y-7304674D02*
X8579587Y-7295150D01*
X8579587Y-7295150D02*
X8598634Y-7266579D01*
X8598634Y-7266579D02*
X8608158Y-7247531D01*
X8608158Y-7247531D02*
X8617682Y-7218960D01*
X8617682Y-7218960D02*
X8627206Y-7171341D01*
X8627206Y-7171341D02*
X8627206Y-7133246D01*
X8627206Y-7133246D02*
X8617682Y-7085627D01*
X8617682Y-7085627D02*
X8608158Y-7057055D01*
X8608158Y-7057055D02*
X8598634Y-7038008D01*
X8598634Y-7038008D02*
X8579587Y-7009436D01*
X8579587Y-7009436D02*
X8570063Y-6999912D01*
D14*
X3735000Y-7461000D02*
X3795000Y-7401000D01*
X3735000Y-7341000D01*
X3675000Y-7401000D01*
X3735000Y-7461000D01*
D11*
X4160539Y-7492484D02*
X4046253Y-7492484D01*
X4103396Y-7492484D02*
X4103396Y-7292484D01*
X4103396Y-7292484D02*
X4084348Y-7321055D01*
X4084348Y-7321055D02*
X4065301Y-7340103D01*
X4065301Y-7340103D02*
X4046253Y-7349627D01*
X4246253Y-7473436D02*
X4255777Y-7482960D01*
X4255777Y-7482960D02*
X4246253Y-7492484D01*
X4246253Y-7492484D02*
X4236729Y-7482960D01*
X4236729Y-7482960D02*
X4246253Y-7473436D01*
X4246253Y-7473436D02*
X4246253Y-7492484D01*
X4331967Y-7311531D02*
X4341491Y-7302008D01*
X4341491Y-7302008D02*
X4360539Y-7292484D01*
X4360539Y-7292484D02*
X4408158Y-7292484D01*
X4408158Y-7292484D02*
X4427205Y-7302008D01*
X4427205Y-7302008D02*
X4436729Y-7311531D01*
X4436729Y-7311531D02*
X4446253Y-7330579D01*
X4446253Y-7330579D02*
X4446253Y-7349627D01*
X4446253Y-7349627D02*
X4436729Y-7378198D01*
X4436729Y-7378198D02*
X4322444Y-7492484D01*
X4322444Y-7492484D02*
X4446253Y-7492484D01*
X4570063Y-7292484D02*
X4589110Y-7292484D01*
X4589110Y-7292484D02*
X4608158Y-7302008D01*
X4608158Y-7302008D02*
X4617682Y-7311531D01*
X4617682Y-7311531D02*
X4627205Y-7330579D01*
X4627205Y-7330579D02*
X4636729Y-7368674D01*
X4636729Y-7368674D02*
X4636729Y-7416293D01*
X4636729Y-7416293D02*
X4627205Y-7454388D01*
X4627205Y-7454388D02*
X4617682Y-7473436D01*
X4617682Y-7473436D02*
X4608158Y-7482960D01*
X4608158Y-7482960D02*
X4589110Y-7492484D01*
X4589110Y-7492484D02*
X4570063Y-7492484D01*
X4570063Y-7492484D02*
X4551015Y-7482960D01*
X4551015Y-7482960D02*
X4541491Y-7473436D01*
X4541491Y-7473436D02*
X4531967Y-7454388D01*
X4531967Y-7454388D02*
X4522444Y-7416293D01*
X4522444Y-7416293D02*
X4522444Y-7368674D01*
X4522444Y-7368674D02*
X4531967Y-7330579D01*
X4531967Y-7330579D02*
X4541491Y-7311531D01*
X4541491Y-7311531D02*
X4551015Y-7302008D01*
X4551015Y-7302008D02*
X4570063Y-7292484D01*
X4760539Y-7292484D02*
X4779586Y-7292484D01*
X4779586Y-7292484D02*
X4798634Y-7302008D01*
X4798634Y-7302008D02*
X4808158Y-7311531D01*
X4808158Y-7311531D02*
X4817682Y-7330579D01*
X4817682Y-7330579D02*
X4827205Y-7368674D01*
X4827205Y-7368674D02*
X4827205Y-7416293D01*
X4827205Y-7416293D02*
X4817682Y-7454388D01*
X4817682Y-7454388D02*
X4808158Y-7473436D01*
X4808158Y-7473436D02*
X4798634Y-7482960D01*
X4798634Y-7482960D02*
X4779586Y-7492484D01*
X4779586Y-7492484D02*
X4760539Y-7492484D01*
X4760539Y-7492484D02*
X4741491Y-7482960D01*
X4741491Y-7482960D02*
X4731967Y-7473436D01*
X4731967Y-7473436D02*
X4722444Y-7454388D01*
X4722444Y-7454388D02*
X4712920Y-7416293D01*
X4712920Y-7416293D02*
X4712920Y-7368674D01*
X4712920Y-7368674D02*
X4722444Y-7330579D01*
X4722444Y-7330579D02*
X4731967Y-7311531D01*
X4731967Y-7311531D02*
X4741491Y-7302008D01*
X4741491Y-7302008D02*
X4760539Y-7292484D01*
X4912920Y-7492484D02*
X4912920Y-7359150D01*
X4912920Y-7378198D02*
X4922444Y-7368674D01*
X4922444Y-7368674D02*
X4941491Y-7359150D01*
X4941491Y-7359150D02*
X4970063Y-7359150D01*
X4970063Y-7359150D02*
X4989110Y-7368674D01*
X4989110Y-7368674D02*
X4998634Y-7387722D01*
X4998634Y-7387722D02*
X4998634Y-7492484D01*
X4998634Y-7387722D02*
X5008158Y-7368674D01*
X5008158Y-7368674D02*
X5027205Y-7359150D01*
X5027205Y-7359150D02*
X5055777Y-7359150D01*
X5055777Y-7359150D02*
X5074825Y-7368674D01*
X5074825Y-7368674D02*
X5084348Y-7387722D01*
X5084348Y-7387722D02*
X5084348Y-7492484D01*
X5179586Y-7492484D02*
X5179586Y-7359150D01*
X5179586Y-7378198D02*
X5189110Y-7368674D01*
X5189110Y-7368674D02*
X5208158Y-7359150D01*
X5208158Y-7359150D02*
X5236729Y-7359150D01*
X5236729Y-7359150D02*
X5255777Y-7368674D01*
X5255777Y-7368674D02*
X5265301Y-7387722D01*
X5265301Y-7387722D02*
X5265301Y-7492484D01*
X5265301Y-7387722D02*
X5274825Y-7368674D01*
X5274825Y-7368674D02*
X5293872Y-7359150D01*
X5293872Y-7359150D02*
X5322444Y-7359150D01*
X5322444Y-7359150D02*
X5341491Y-7368674D01*
X5341491Y-7368674D02*
X5351015Y-7387722D01*
X5351015Y-7387722D02*
X5351015Y-7492484D01*
X5741491Y-7282960D02*
X5570063Y-7540103D01*
X5998634Y-7292484D02*
X6017682Y-7292484D01*
X6017682Y-7292484D02*
X6036729Y-7302008D01*
X6036729Y-7302008D02*
X6046253Y-7311531D01*
X6046253Y-7311531D02*
X6055777Y-7330579D01*
X6055777Y-7330579D02*
X6065301Y-7368674D01*
X6065301Y-7368674D02*
X6065301Y-7416293D01*
X6065301Y-7416293D02*
X6055777Y-7454388D01*
X6055777Y-7454388D02*
X6046253Y-7473436D01*
X6046253Y-7473436D02*
X6036729Y-7482960D01*
X6036729Y-7482960D02*
X6017682Y-7492484D01*
X6017682Y-7492484D02*
X5998634Y-7492484D01*
X5998634Y-7492484D02*
X5979586Y-7482960D01*
X5979586Y-7482960D02*
X5970063Y-7473436D01*
X5970063Y-7473436D02*
X5960539Y-7454388D01*
X5960539Y-7454388D02*
X5951015Y-7416293D01*
X5951015Y-7416293D02*
X5951015Y-7368674D01*
X5951015Y-7368674D02*
X5960539Y-7330579D01*
X5960539Y-7330579D02*
X5970063Y-7311531D01*
X5970063Y-7311531D02*
X5979586Y-7302008D01*
X5979586Y-7302008D02*
X5998634Y-7292484D01*
X6151015Y-7473436D02*
X6160539Y-7482960D01*
X6160539Y-7482960D02*
X6151015Y-7492484D01*
X6151015Y-7492484D02*
X6141491Y-7482960D01*
X6141491Y-7482960D02*
X6151015Y-7473436D01*
X6151015Y-7473436D02*
X6151015Y-7492484D01*
X6284348Y-7292484D02*
X6303396Y-7292484D01*
X6303396Y-7292484D02*
X6322444Y-7302008D01*
X6322444Y-7302008D02*
X6331967Y-7311531D01*
X6331967Y-7311531D02*
X6341491Y-7330579D01*
X6341491Y-7330579D02*
X6351015Y-7368674D01*
X6351015Y-7368674D02*
X6351015Y-7416293D01*
X6351015Y-7416293D02*
X6341491Y-7454388D01*
X6341491Y-7454388D02*
X6331967Y-7473436D01*
X6331967Y-7473436D02*
X6322444Y-7482960D01*
X6322444Y-7482960D02*
X6303396Y-7492484D01*
X6303396Y-7492484D02*
X6284348Y-7492484D01*
X6284348Y-7492484D02*
X6265301Y-7482960D01*
X6265301Y-7482960D02*
X6255777Y-7473436D01*
X6255777Y-7473436D02*
X6246253Y-7454388D01*
X6246253Y-7454388D02*
X6236729Y-7416293D01*
X6236729Y-7416293D02*
X6236729Y-7368674D01*
X6236729Y-7368674D02*
X6246253Y-7330579D01*
X6246253Y-7330579D02*
X6255777Y-7311531D01*
X6255777Y-7311531D02*
X6265301Y-7302008D01*
X6265301Y-7302008D02*
X6284348Y-7292484D01*
X6522444Y-7359150D02*
X6522444Y-7492484D01*
X6474825Y-7282960D02*
X6427206Y-7425817D01*
X6427206Y-7425817D02*
X6551015Y-7425817D01*
X6608158Y-7292484D02*
X6741491Y-7292484D01*
X6741491Y-7292484D02*
X6655777Y-7492484D01*
X6808158Y-7311531D02*
X6817682Y-7302008D01*
X6817682Y-7302008D02*
X6836729Y-7292484D01*
X6836729Y-7292484D02*
X6884348Y-7292484D01*
X6884348Y-7292484D02*
X6903396Y-7302008D01*
X6903396Y-7302008D02*
X6912920Y-7311531D01*
X6912920Y-7311531D02*
X6922444Y-7330579D01*
X6922444Y-7330579D02*
X6922444Y-7349627D01*
X6922444Y-7349627D02*
X6912920Y-7378198D01*
X6912920Y-7378198D02*
X6798634Y-7492484D01*
X6798634Y-7492484D02*
X6922444Y-7492484D01*
X6998634Y-7292484D02*
X6998634Y-7330579D01*
X7074825Y-7292484D02*
X7074825Y-7330579D01*
X7370063Y-7568674D02*
X7360539Y-7559150D01*
X7360539Y-7559150D02*
X7341491Y-7530579D01*
X7341491Y-7530579D02*
X7331968Y-7511531D01*
X7331968Y-7511531D02*
X7322444Y-7482960D01*
X7322444Y-7482960D02*
X7312920Y-7435341D01*
X7312920Y-7435341D02*
X7312920Y-7397246D01*
X7312920Y-7397246D02*
X7322444Y-7349627D01*
X7322444Y-7349627D02*
X7331968Y-7321055D01*
X7331968Y-7321055D02*
X7341491Y-7302008D01*
X7341491Y-7302008D02*
X7360539Y-7273436D01*
X7360539Y-7273436D02*
X7370063Y-7263912D01*
X7531968Y-7359150D02*
X7531968Y-7492484D01*
X7484348Y-7282960D02*
X7436729Y-7425817D01*
X7436729Y-7425817D02*
X7560539Y-7425817D01*
X7789110Y-7492484D02*
X7789110Y-7292484D01*
X7874825Y-7492484D02*
X7874825Y-7387722D01*
X7874825Y-7387722D02*
X7865301Y-7368674D01*
X7865301Y-7368674D02*
X7846253Y-7359150D01*
X7846253Y-7359150D02*
X7817682Y-7359150D01*
X7817682Y-7359150D02*
X7798634Y-7368674D01*
X7798634Y-7368674D02*
X7789110Y-7378198D01*
X7998634Y-7492484D02*
X7979587Y-7482960D01*
X7979587Y-7482960D02*
X7970063Y-7473436D01*
X7970063Y-7473436D02*
X7960539Y-7454388D01*
X7960539Y-7454388D02*
X7960539Y-7397246D01*
X7960539Y-7397246D02*
X7970063Y-7378198D01*
X7970063Y-7378198D02*
X7979587Y-7368674D01*
X7979587Y-7368674D02*
X7998634Y-7359150D01*
X7998634Y-7359150D02*
X8027206Y-7359150D01*
X8027206Y-7359150D02*
X8046253Y-7368674D01*
X8046253Y-7368674D02*
X8055777Y-7378198D01*
X8055777Y-7378198D02*
X8065301Y-7397246D01*
X8065301Y-7397246D02*
X8065301Y-7454388D01*
X8065301Y-7454388D02*
X8055777Y-7473436D01*
X8055777Y-7473436D02*
X8046253Y-7482960D01*
X8046253Y-7482960D02*
X8027206Y-7492484D01*
X8027206Y-7492484D02*
X7998634Y-7492484D01*
X8179587Y-7492484D02*
X8160539Y-7482960D01*
X8160539Y-7482960D02*
X8151015Y-7463912D01*
X8151015Y-7463912D02*
X8151015Y-7292484D01*
X8331968Y-7482960D02*
X8312920Y-7492484D01*
X8312920Y-7492484D02*
X8274825Y-7492484D01*
X8274825Y-7492484D02*
X8255777Y-7482960D01*
X8255777Y-7482960D02*
X8246253Y-7463912D01*
X8246253Y-7463912D02*
X8246253Y-7387722D01*
X8246253Y-7387722D02*
X8255777Y-7368674D01*
X8255777Y-7368674D02*
X8274825Y-7359150D01*
X8274825Y-7359150D02*
X8312920Y-7359150D01*
X8312920Y-7359150D02*
X8331968Y-7368674D01*
X8331968Y-7368674D02*
X8341491Y-7387722D01*
X8341491Y-7387722D02*
X8341491Y-7406769D01*
X8341491Y-7406769D02*
X8246253Y-7425817D01*
X8417682Y-7482960D02*
X8436730Y-7492484D01*
X8436730Y-7492484D02*
X8474825Y-7492484D01*
X8474825Y-7492484D02*
X8493873Y-7482960D01*
X8493873Y-7482960D02*
X8503396Y-7463912D01*
X8503396Y-7463912D02*
X8503396Y-7454388D01*
X8503396Y-7454388D02*
X8493873Y-7435341D01*
X8493873Y-7435341D02*
X8474825Y-7425817D01*
X8474825Y-7425817D02*
X8446253Y-7425817D01*
X8446253Y-7425817D02*
X8427206Y-7416293D01*
X8427206Y-7416293D02*
X8417682Y-7397246D01*
X8417682Y-7397246D02*
X8417682Y-7387722D01*
X8417682Y-7387722D02*
X8427206Y-7368674D01*
X8427206Y-7368674D02*
X8446253Y-7359150D01*
X8446253Y-7359150D02*
X8474825Y-7359150D01*
X8474825Y-7359150D02*
X8493873Y-7368674D01*
X8570063Y-7568674D02*
X8579587Y-7559150D01*
X8579587Y-7559150D02*
X8598634Y-7530579D01*
X8598634Y-7530579D02*
X8608158Y-7511531D01*
X8608158Y-7511531D02*
X8617682Y-7482960D01*
X8617682Y-7482960D02*
X8627206Y-7435341D01*
X8627206Y-7435341D02*
X8627206Y-7397246D01*
X8627206Y-7397246D02*
X8617682Y-7349627D01*
X8617682Y-7349627D02*
X8608158Y-7321055D01*
X8608158Y-7321055D02*
X8598634Y-7302008D01*
X8598634Y-7302008D02*
X8579587Y-7273436D01*
X8579587Y-7273436D02*
X8570063Y-7263912D01*
D15*
X3665000Y-7600000D02*
X3795000Y-7730000D01*
X3795000Y-7600000D02*
X3665000Y-7730000D01*
X3795000Y-7665000D02*
G75*
G03*
X3665000Y-7665000I-65000J0D01*
G01*
X3665000Y-7665000D02*
G75*
G03*
X3795000Y-7665000I65000J0D01*
G01*
D11*
X4160539Y-7756484D02*
X4046253Y-7756484D01*
X4103396Y-7756484D02*
X4103396Y-7556484D01*
X4103396Y-7556484D02*
X4084348Y-7585055D01*
X4084348Y-7585055D02*
X4065301Y-7604103D01*
X4065301Y-7604103D02*
X4046253Y-7613627D01*
X4246253Y-7737436D02*
X4255777Y-7746960D01*
X4255777Y-7746960D02*
X4246253Y-7756484D01*
X4246253Y-7756484D02*
X4236729Y-7746960D01*
X4236729Y-7746960D02*
X4246253Y-7737436D01*
X4246253Y-7737436D02*
X4246253Y-7756484D01*
X4322444Y-7556484D02*
X4446253Y-7556484D01*
X4446253Y-7556484D02*
X4379586Y-7632674D01*
X4379586Y-7632674D02*
X4408158Y-7632674D01*
X4408158Y-7632674D02*
X4427205Y-7642198D01*
X4427205Y-7642198D02*
X4436729Y-7651722D01*
X4436729Y-7651722D02*
X4446253Y-7670769D01*
X4446253Y-7670769D02*
X4446253Y-7718388D01*
X4446253Y-7718388D02*
X4436729Y-7737436D01*
X4436729Y-7737436D02*
X4427205Y-7746960D01*
X4427205Y-7746960D02*
X4408158Y-7756484D01*
X4408158Y-7756484D02*
X4351015Y-7756484D01*
X4351015Y-7756484D02*
X4331967Y-7746960D01*
X4331967Y-7746960D02*
X4322444Y-7737436D01*
X4570063Y-7556484D02*
X4589110Y-7556484D01*
X4589110Y-7556484D02*
X4608158Y-7566008D01*
X4608158Y-7566008D02*
X4617682Y-7575531D01*
X4617682Y-7575531D02*
X4627205Y-7594579D01*
X4627205Y-7594579D02*
X4636729Y-7632674D01*
X4636729Y-7632674D02*
X4636729Y-7680293D01*
X4636729Y-7680293D02*
X4627205Y-7718388D01*
X4627205Y-7718388D02*
X4617682Y-7737436D01*
X4617682Y-7737436D02*
X4608158Y-7746960D01*
X4608158Y-7746960D02*
X4589110Y-7756484D01*
X4589110Y-7756484D02*
X4570063Y-7756484D01*
X4570063Y-7756484D02*
X4551015Y-7746960D01*
X4551015Y-7746960D02*
X4541491Y-7737436D01*
X4541491Y-7737436D02*
X4531967Y-7718388D01*
X4531967Y-7718388D02*
X4522444Y-7680293D01*
X4522444Y-7680293D02*
X4522444Y-7632674D01*
X4522444Y-7632674D02*
X4531967Y-7594579D01*
X4531967Y-7594579D02*
X4541491Y-7575531D01*
X4541491Y-7575531D02*
X4551015Y-7566008D01*
X4551015Y-7566008D02*
X4570063Y-7556484D01*
X4760539Y-7556484D02*
X4779586Y-7556484D01*
X4779586Y-7556484D02*
X4798634Y-7566008D01*
X4798634Y-7566008D02*
X4808158Y-7575531D01*
X4808158Y-7575531D02*
X4817682Y-7594579D01*
X4817682Y-7594579D02*
X4827205Y-7632674D01*
X4827205Y-7632674D02*
X4827205Y-7680293D01*
X4827205Y-7680293D02*
X4817682Y-7718388D01*
X4817682Y-7718388D02*
X4808158Y-7737436D01*
X4808158Y-7737436D02*
X4798634Y-7746960D01*
X4798634Y-7746960D02*
X4779586Y-7756484D01*
X4779586Y-7756484D02*
X4760539Y-7756484D01*
X4760539Y-7756484D02*
X4741491Y-7746960D01*
X4741491Y-7746960D02*
X4731967Y-7737436D01*
X4731967Y-7737436D02*
X4722444Y-7718388D01*
X4722444Y-7718388D02*
X4712920Y-7680293D01*
X4712920Y-7680293D02*
X4712920Y-7632674D01*
X4712920Y-7632674D02*
X4722444Y-7594579D01*
X4722444Y-7594579D02*
X4731967Y-7575531D01*
X4731967Y-7575531D02*
X4741491Y-7566008D01*
X4741491Y-7566008D02*
X4760539Y-7556484D01*
X4912920Y-7756484D02*
X4912920Y-7623150D01*
X4912920Y-7642198D02*
X4922444Y-7632674D01*
X4922444Y-7632674D02*
X4941491Y-7623150D01*
X4941491Y-7623150D02*
X4970063Y-7623150D01*
X4970063Y-7623150D02*
X4989110Y-7632674D01*
X4989110Y-7632674D02*
X4998634Y-7651722D01*
X4998634Y-7651722D02*
X4998634Y-7756484D01*
X4998634Y-7651722D02*
X5008158Y-7632674D01*
X5008158Y-7632674D02*
X5027205Y-7623150D01*
X5027205Y-7623150D02*
X5055777Y-7623150D01*
X5055777Y-7623150D02*
X5074825Y-7632674D01*
X5074825Y-7632674D02*
X5084348Y-7651722D01*
X5084348Y-7651722D02*
X5084348Y-7756484D01*
X5179586Y-7756484D02*
X5179586Y-7623150D01*
X5179586Y-7642198D02*
X5189110Y-7632674D01*
X5189110Y-7632674D02*
X5208158Y-7623150D01*
X5208158Y-7623150D02*
X5236729Y-7623150D01*
X5236729Y-7623150D02*
X5255777Y-7632674D01*
X5255777Y-7632674D02*
X5265301Y-7651722D01*
X5265301Y-7651722D02*
X5265301Y-7756484D01*
X5265301Y-7651722D02*
X5274825Y-7632674D01*
X5274825Y-7632674D02*
X5293872Y-7623150D01*
X5293872Y-7623150D02*
X5322444Y-7623150D01*
X5322444Y-7623150D02*
X5341491Y-7632674D01*
X5341491Y-7632674D02*
X5351015Y-7651722D01*
X5351015Y-7651722D02*
X5351015Y-7756484D01*
X5741491Y-7546960D02*
X5570063Y-7804103D01*
X5998634Y-7556484D02*
X6017682Y-7556484D01*
X6017682Y-7556484D02*
X6036729Y-7566008D01*
X6036729Y-7566008D02*
X6046253Y-7575531D01*
X6046253Y-7575531D02*
X6055777Y-7594579D01*
X6055777Y-7594579D02*
X6065301Y-7632674D01*
X6065301Y-7632674D02*
X6065301Y-7680293D01*
X6065301Y-7680293D02*
X6055777Y-7718388D01*
X6055777Y-7718388D02*
X6046253Y-7737436D01*
X6046253Y-7737436D02*
X6036729Y-7746960D01*
X6036729Y-7746960D02*
X6017682Y-7756484D01*
X6017682Y-7756484D02*
X5998634Y-7756484D01*
X5998634Y-7756484D02*
X5979586Y-7746960D01*
X5979586Y-7746960D02*
X5970063Y-7737436D01*
X5970063Y-7737436D02*
X5960539Y-7718388D01*
X5960539Y-7718388D02*
X5951015Y-7680293D01*
X5951015Y-7680293D02*
X5951015Y-7632674D01*
X5951015Y-7632674D02*
X5960539Y-7594579D01*
X5960539Y-7594579D02*
X5970063Y-7575531D01*
X5970063Y-7575531D02*
X5979586Y-7566008D01*
X5979586Y-7566008D02*
X5998634Y-7556484D01*
X6151015Y-7737436D02*
X6160539Y-7746960D01*
X6160539Y-7746960D02*
X6151015Y-7756484D01*
X6151015Y-7756484D02*
X6141491Y-7746960D01*
X6141491Y-7746960D02*
X6151015Y-7737436D01*
X6151015Y-7737436D02*
X6151015Y-7756484D01*
X6284348Y-7556484D02*
X6303396Y-7556484D01*
X6303396Y-7556484D02*
X6322444Y-7566008D01*
X6322444Y-7566008D02*
X6331967Y-7575531D01*
X6331967Y-7575531D02*
X6341491Y-7594579D01*
X6341491Y-7594579D02*
X6351015Y-7632674D01*
X6351015Y-7632674D02*
X6351015Y-7680293D01*
X6351015Y-7680293D02*
X6341491Y-7718388D01*
X6341491Y-7718388D02*
X6331967Y-7737436D01*
X6331967Y-7737436D02*
X6322444Y-7746960D01*
X6322444Y-7746960D02*
X6303396Y-7756484D01*
X6303396Y-7756484D02*
X6284348Y-7756484D01*
X6284348Y-7756484D02*
X6265301Y-7746960D01*
X6265301Y-7746960D02*
X6255777Y-7737436D01*
X6255777Y-7737436D02*
X6246253Y-7718388D01*
X6246253Y-7718388D02*
X6236729Y-7680293D01*
X6236729Y-7680293D02*
X6236729Y-7632674D01*
X6236729Y-7632674D02*
X6246253Y-7594579D01*
X6246253Y-7594579D02*
X6255777Y-7575531D01*
X6255777Y-7575531D02*
X6265301Y-7566008D01*
X6265301Y-7566008D02*
X6284348Y-7556484D01*
X6531967Y-7556484D02*
X6436729Y-7556484D01*
X6436729Y-7556484D02*
X6427206Y-7651722D01*
X6427206Y-7651722D02*
X6436729Y-7642198D01*
X6436729Y-7642198D02*
X6455777Y-7632674D01*
X6455777Y-7632674D02*
X6503396Y-7632674D01*
X6503396Y-7632674D02*
X6522444Y-7642198D01*
X6522444Y-7642198D02*
X6531967Y-7651722D01*
X6531967Y-7651722D02*
X6541491Y-7670769D01*
X6541491Y-7670769D02*
X6541491Y-7718388D01*
X6541491Y-7718388D02*
X6531967Y-7737436D01*
X6531967Y-7737436D02*
X6522444Y-7746960D01*
X6522444Y-7746960D02*
X6503396Y-7756484D01*
X6503396Y-7756484D02*
X6455777Y-7756484D01*
X6455777Y-7756484D02*
X6436729Y-7746960D01*
X6436729Y-7746960D02*
X6427206Y-7737436D01*
X6731967Y-7756484D02*
X6617682Y-7756484D01*
X6674825Y-7756484D02*
X6674825Y-7556484D01*
X6674825Y-7556484D02*
X6655777Y-7585055D01*
X6655777Y-7585055D02*
X6636729Y-7604103D01*
X6636729Y-7604103D02*
X6617682Y-7613627D01*
X6808158Y-7575531D02*
X6817682Y-7566008D01*
X6817682Y-7566008D02*
X6836729Y-7556484D01*
X6836729Y-7556484D02*
X6884348Y-7556484D01*
X6884348Y-7556484D02*
X6903396Y-7566008D01*
X6903396Y-7566008D02*
X6912920Y-7575531D01*
X6912920Y-7575531D02*
X6922444Y-7594579D01*
X6922444Y-7594579D02*
X6922444Y-7613627D01*
X6922444Y-7613627D02*
X6912920Y-7642198D01*
X6912920Y-7642198D02*
X6798634Y-7756484D01*
X6798634Y-7756484D02*
X6922444Y-7756484D01*
X6998634Y-7556484D02*
X6998634Y-7594579D01*
X7074825Y-7556484D02*
X7074825Y-7594579D01*
X7370063Y-7832674D02*
X7360539Y-7823150D01*
X7360539Y-7823150D02*
X7341491Y-7794579D01*
X7341491Y-7794579D02*
X7331968Y-7775531D01*
X7331968Y-7775531D02*
X7322444Y-7746960D01*
X7322444Y-7746960D02*
X7312920Y-7699341D01*
X7312920Y-7699341D02*
X7312920Y-7661246D01*
X7312920Y-7661246D02*
X7322444Y-7613627D01*
X7322444Y-7613627D02*
X7331968Y-7585055D01*
X7331968Y-7585055D02*
X7341491Y-7566008D01*
X7341491Y-7566008D02*
X7360539Y-7537436D01*
X7360539Y-7537436D02*
X7370063Y-7527912D01*
X7474825Y-7642198D02*
X7455777Y-7632674D01*
X7455777Y-7632674D02*
X7446253Y-7623150D01*
X7446253Y-7623150D02*
X7436729Y-7604103D01*
X7436729Y-7604103D02*
X7436729Y-7594579D01*
X7436729Y-7594579D02*
X7446253Y-7575531D01*
X7446253Y-7575531D02*
X7455777Y-7566008D01*
X7455777Y-7566008D02*
X7474825Y-7556484D01*
X7474825Y-7556484D02*
X7512920Y-7556484D01*
X7512920Y-7556484D02*
X7531968Y-7566008D01*
X7531968Y-7566008D02*
X7541491Y-7575531D01*
X7541491Y-7575531D02*
X7551015Y-7594579D01*
X7551015Y-7594579D02*
X7551015Y-7604103D01*
X7551015Y-7604103D02*
X7541491Y-7623150D01*
X7541491Y-7623150D02*
X7531968Y-7632674D01*
X7531968Y-7632674D02*
X7512920Y-7642198D01*
X7512920Y-7642198D02*
X7474825Y-7642198D01*
X7474825Y-7642198D02*
X7455777Y-7651722D01*
X7455777Y-7651722D02*
X7446253Y-7661246D01*
X7446253Y-7661246D02*
X7436729Y-7680293D01*
X7436729Y-7680293D02*
X7436729Y-7718388D01*
X7436729Y-7718388D02*
X7446253Y-7737436D01*
X7446253Y-7737436D02*
X7455777Y-7746960D01*
X7455777Y-7746960D02*
X7474825Y-7756484D01*
X7474825Y-7756484D02*
X7512920Y-7756484D01*
X7512920Y-7756484D02*
X7531968Y-7746960D01*
X7531968Y-7746960D02*
X7541491Y-7737436D01*
X7541491Y-7737436D02*
X7551015Y-7718388D01*
X7551015Y-7718388D02*
X7551015Y-7680293D01*
X7551015Y-7680293D02*
X7541491Y-7661246D01*
X7541491Y-7661246D02*
X7531968Y-7651722D01*
X7531968Y-7651722D02*
X7512920Y-7642198D01*
X7789110Y-7756484D02*
X7789110Y-7556484D01*
X7874825Y-7756484D02*
X7874825Y-7651722D01*
X7874825Y-7651722D02*
X7865301Y-7632674D01*
X7865301Y-7632674D02*
X7846253Y-7623150D01*
X7846253Y-7623150D02*
X7817682Y-7623150D01*
X7817682Y-7623150D02*
X7798634Y-7632674D01*
X7798634Y-7632674D02*
X7789110Y-7642198D01*
X7998634Y-7756484D02*
X7979587Y-7746960D01*
X7979587Y-7746960D02*
X7970063Y-7737436D01*
X7970063Y-7737436D02*
X7960539Y-7718388D01*
X7960539Y-7718388D02*
X7960539Y-7661246D01*
X7960539Y-7661246D02*
X7970063Y-7642198D01*
X7970063Y-7642198D02*
X7979587Y-7632674D01*
X7979587Y-7632674D02*
X7998634Y-7623150D01*
X7998634Y-7623150D02*
X8027206Y-7623150D01*
X8027206Y-7623150D02*
X8046253Y-7632674D01*
X8046253Y-7632674D02*
X8055777Y-7642198D01*
X8055777Y-7642198D02*
X8065301Y-7661246D01*
X8065301Y-7661246D02*
X8065301Y-7718388D01*
X8065301Y-7718388D02*
X8055777Y-7737436D01*
X8055777Y-7737436D02*
X8046253Y-7746960D01*
X8046253Y-7746960D02*
X8027206Y-7756484D01*
X8027206Y-7756484D02*
X7998634Y-7756484D01*
X8179587Y-7756484D02*
X8160539Y-7746960D01*
X8160539Y-7746960D02*
X8151015Y-7727912D01*
X8151015Y-7727912D02*
X8151015Y-7556484D01*
X8331968Y-7746960D02*
X8312920Y-7756484D01*
X8312920Y-7756484D02*
X8274825Y-7756484D01*
X8274825Y-7756484D02*
X8255777Y-7746960D01*
X8255777Y-7746960D02*
X8246253Y-7727912D01*
X8246253Y-7727912D02*
X8246253Y-7651722D01*
X8246253Y-7651722D02*
X8255777Y-7632674D01*
X8255777Y-7632674D02*
X8274825Y-7623150D01*
X8274825Y-7623150D02*
X8312920Y-7623150D01*
X8312920Y-7623150D02*
X8331968Y-7632674D01*
X8331968Y-7632674D02*
X8341491Y-7651722D01*
X8341491Y-7651722D02*
X8341491Y-7670769D01*
X8341491Y-7670769D02*
X8246253Y-7689817D01*
X8417682Y-7746960D02*
X8436730Y-7756484D01*
X8436730Y-7756484D02*
X8474825Y-7756484D01*
X8474825Y-7756484D02*
X8493873Y-7746960D01*
X8493873Y-7746960D02*
X8503396Y-7727912D01*
X8503396Y-7727912D02*
X8503396Y-7718388D01*
X8503396Y-7718388D02*
X8493873Y-7699341D01*
X8493873Y-7699341D02*
X8474825Y-7689817D01*
X8474825Y-7689817D02*
X8446253Y-7689817D01*
X8446253Y-7689817D02*
X8427206Y-7680293D01*
X8427206Y-7680293D02*
X8417682Y-7661246D01*
X8417682Y-7661246D02*
X8417682Y-7651722D01*
X8417682Y-7651722D02*
X8427206Y-7632674D01*
X8427206Y-7632674D02*
X8446253Y-7623150D01*
X8446253Y-7623150D02*
X8474825Y-7623150D01*
X8474825Y-7623150D02*
X8493873Y-7632674D01*
X8570063Y-7832674D02*
X8579587Y-7823150D01*
X8579587Y-7823150D02*
X8598634Y-7794579D01*
X8598634Y-7794579D02*
X8608158Y-7775531D01*
X8608158Y-7775531D02*
X8617682Y-7746960D01*
X8617682Y-7746960D02*
X8627206Y-7699341D01*
X8627206Y-7699341D02*
X8627206Y-7661246D01*
X8627206Y-7661246D02*
X8617682Y-7613627D01*
X8617682Y-7613627D02*
X8608158Y-7585055D01*
X8608158Y-7585055D02*
X8598634Y-7566008D01*
X8598634Y-7566008D02*
X8579587Y-7537436D01*
X8579587Y-7537436D02*
X8570063Y-7527912D01*
X3595000Y-7829000D02*
X3795000Y-8029000D01*
X3795000Y-7829000D02*
X3595000Y-8029000D01*
X3695000Y-7829000D02*
X3695000Y-8029000D01*
X3595000Y-7929000D02*
X3795000Y-7929000D01*
X4046253Y-7839531D02*
X4055777Y-7830008D01*
X4055777Y-7830008D02*
X4074824Y-7820484D01*
X4074824Y-7820484D02*
X4122443Y-7820484D01*
X4122443Y-7820484D02*
X4141491Y-7830008D01*
X4141491Y-7830008D02*
X4151015Y-7839531D01*
X4151015Y-7839531D02*
X4160539Y-7858579D01*
X4160539Y-7858579D02*
X4160539Y-7877627D01*
X4160539Y-7877627D02*
X4151015Y-7906198D01*
X4151015Y-7906198D02*
X4036729Y-8020484D01*
X4036729Y-8020484D02*
X4160539Y-8020484D01*
X4246253Y-8001436D02*
X4255777Y-8010960D01*
X4255777Y-8010960D02*
X4246253Y-8020484D01*
X4246253Y-8020484D02*
X4236729Y-8010960D01*
X4236729Y-8010960D02*
X4246253Y-8001436D01*
X4246253Y-8001436D02*
X4246253Y-8020484D01*
X4379586Y-7820484D02*
X4398634Y-7820484D01*
X4398634Y-7820484D02*
X4417682Y-7830008D01*
X4417682Y-7830008D02*
X4427205Y-7839531D01*
X4427205Y-7839531D02*
X4436729Y-7858579D01*
X4436729Y-7858579D02*
X4446253Y-7896674D01*
X4446253Y-7896674D02*
X4446253Y-7944293D01*
X4446253Y-7944293D02*
X4436729Y-7982388D01*
X4436729Y-7982388D02*
X4427205Y-8001436D01*
X4427205Y-8001436D02*
X4417682Y-8010960D01*
X4417682Y-8010960D02*
X4398634Y-8020484D01*
X4398634Y-8020484D02*
X4379586Y-8020484D01*
X4379586Y-8020484D02*
X4360539Y-8010960D01*
X4360539Y-8010960D02*
X4351015Y-8001436D01*
X4351015Y-8001436D02*
X4341491Y-7982388D01*
X4341491Y-7982388D02*
X4331967Y-7944293D01*
X4331967Y-7944293D02*
X4331967Y-7896674D01*
X4331967Y-7896674D02*
X4341491Y-7858579D01*
X4341491Y-7858579D02*
X4351015Y-7839531D01*
X4351015Y-7839531D02*
X4360539Y-7830008D01*
X4360539Y-7830008D02*
X4379586Y-7820484D01*
X4570063Y-7820484D02*
X4589110Y-7820484D01*
X4589110Y-7820484D02*
X4608158Y-7830008D01*
X4608158Y-7830008D02*
X4617682Y-7839531D01*
X4617682Y-7839531D02*
X4627205Y-7858579D01*
X4627205Y-7858579D02*
X4636729Y-7896674D01*
X4636729Y-7896674D02*
X4636729Y-7944293D01*
X4636729Y-7944293D02*
X4627205Y-7982388D01*
X4627205Y-7982388D02*
X4617682Y-8001436D01*
X4617682Y-8001436D02*
X4608158Y-8010960D01*
X4608158Y-8010960D02*
X4589110Y-8020484D01*
X4589110Y-8020484D02*
X4570063Y-8020484D01*
X4570063Y-8020484D02*
X4551015Y-8010960D01*
X4551015Y-8010960D02*
X4541491Y-8001436D01*
X4541491Y-8001436D02*
X4531967Y-7982388D01*
X4531967Y-7982388D02*
X4522444Y-7944293D01*
X4522444Y-7944293D02*
X4522444Y-7896674D01*
X4522444Y-7896674D02*
X4531967Y-7858579D01*
X4531967Y-7858579D02*
X4541491Y-7839531D01*
X4541491Y-7839531D02*
X4551015Y-7830008D01*
X4551015Y-7830008D02*
X4570063Y-7820484D01*
X4760539Y-7820484D02*
X4779586Y-7820484D01*
X4779586Y-7820484D02*
X4798634Y-7830008D01*
X4798634Y-7830008D02*
X4808158Y-7839531D01*
X4808158Y-7839531D02*
X4817682Y-7858579D01*
X4817682Y-7858579D02*
X4827205Y-7896674D01*
X4827205Y-7896674D02*
X4827205Y-7944293D01*
X4827205Y-7944293D02*
X4817682Y-7982388D01*
X4817682Y-7982388D02*
X4808158Y-8001436D01*
X4808158Y-8001436D02*
X4798634Y-8010960D01*
X4798634Y-8010960D02*
X4779586Y-8020484D01*
X4779586Y-8020484D02*
X4760539Y-8020484D01*
X4760539Y-8020484D02*
X4741491Y-8010960D01*
X4741491Y-8010960D02*
X4731967Y-8001436D01*
X4731967Y-8001436D02*
X4722444Y-7982388D01*
X4722444Y-7982388D02*
X4712920Y-7944293D01*
X4712920Y-7944293D02*
X4712920Y-7896674D01*
X4712920Y-7896674D02*
X4722444Y-7858579D01*
X4722444Y-7858579D02*
X4731967Y-7839531D01*
X4731967Y-7839531D02*
X4741491Y-7830008D01*
X4741491Y-7830008D02*
X4760539Y-7820484D01*
X4912920Y-8020484D02*
X4912920Y-7887150D01*
X4912920Y-7906198D02*
X4922444Y-7896674D01*
X4922444Y-7896674D02*
X4941491Y-7887150D01*
X4941491Y-7887150D02*
X4970063Y-7887150D01*
X4970063Y-7887150D02*
X4989110Y-7896674D01*
X4989110Y-7896674D02*
X4998634Y-7915722D01*
X4998634Y-7915722D02*
X4998634Y-8020484D01*
X4998634Y-7915722D02*
X5008158Y-7896674D01*
X5008158Y-7896674D02*
X5027205Y-7887150D01*
X5027205Y-7887150D02*
X5055777Y-7887150D01*
X5055777Y-7887150D02*
X5074825Y-7896674D01*
X5074825Y-7896674D02*
X5084348Y-7915722D01*
X5084348Y-7915722D02*
X5084348Y-8020484D01*
X5179586Y-8020484D02*
X5179586Y-7887150D01*
X5179586Y-7906198D02*
X5189110Y-7896674D01*
X5189110Y-7896674D02*
X5208158Y-7887150D01*
X5208158Y-7887150D02*
X5236729Y-7887150D01*
X5236729Y-7887150D02*
X5255777Y-7896674D01*
X5255777Y-7896674D02*
X5265301Y-7915722D01*
X5265301Y-7915722D02*
X5265301Y-8020484D01*
X5265301Y-7915722D02*
X5274825Y-7896674D01*
X5274825Y-7896674D02*
X5293872Y-7887150D01*
X5293872Y-7887150D02*
X5322444Y-7887150D01*
X5322444Y-7887150D02*
X5341491Y-7896674D01*
X5341491Y-7896674D02*
X5351015Y-7915722D01*
X5351015Y-7915722D02*
X5351015Y-8020484D01*
X5741491Y-7810960D02*
X5570063Y-8068103D01*
X5998634Y-7820484D02*
X6017682Y-7820484D01*
X6017682Y-7820484D02*
X6036729Y-7830008D01*
X6036729Y-7830008D02*
X6046253Y-7839531D01*
X6046253Y-7839531D02*
X6055777Y-7858579D01*
X6055777Y-7858579D02*
X6065301Y-7896674D01*
X6065301Y-7896674D02*
X6065301Y-7944293D01*
X6065301Y-7944293D02*
X6055777Y-7982388D01*
X6055777Y-7982388D02*
X6046253Y-8001436D01*
X6046253Y-8001436D02*
X6036729Y-8010960D01*
X6036729Y-8010960D02*
X6017682Y-8020484D01*
X6017682Y-8020484D02*
X5998634Y-8020484D01*
X5998634Y-8020484D02*
X5979586Y-8010960D01*
X5979586Y-8010960D02*
X5970063Y-8001436D01*
X5970063Y-8001436D02*
X5960539Y-7982388D01*
X5960539Y-7982388D02*
X5951015Y-7944293D01*
X5951015Y-7944293D02*
X5951015Y-7896674D01*
X5951015Y-7896674D02*
X5960539Y-7858579D01*
X5960539Y-7858579D02*
X5970063Y-7839531D01*
X5970063Y-7839531D02*
X5979586Y-7830008D01*
X5979586Y-7830008D02*
X5998634Y-7820484D01*
X6151015Y-8001436D02*
X6160539Y-8010960D01*
X6160539Y-8010960D02*
X6151015Y-8020484D01*
X6151015Y-8020484D02*
X6141491Y-8010960D01*
X6141491Y-8010960D02*
X6151015Y-8001436D01*
X6151015Y-8001436D02*
X6151015Y-8020484D01*
X6284348Y-7820484D02*
X6303396Y-7820484D01*
X6303396Y-7820484D02*
X6322444Y-7830008D01*
X6322444Y-7830008D02*
X6331967Y-7839531D01*
X6331967Y-7839531D02*
X6341491Y-7858579D01*
X6341491Y-7858579D02*
X6351015Y-7896674D01*
X6351015Y-7896674D02*
X6351015Y-7944293D01*
X6351015Y-7944293D02*
X6341491Y-7982388D01*
X6341491Y-7982388D02*
X6331967Y-8001436D01*
X6331967Y-8001436D02*
X6322444Y-8010960D01*
X6322444Y-8010960D02*
X6303396Y-8020484D01*
X6303396Y-8020484D02*
X6284348Y-8020484D01*
X6284348Y-8020484D02*
X6265301Y-8010960D01*
X6265301Y-8010960D02*
X6255777Y-8001436D01*
X6255777Y-8001436D02*
X6246253Y-7982388D01*
X6246253Y-7982388D02*
X6236729Y-7944293D01*
X6236729Y-7944293D02*
X6236729Y-7896674D01*
X6236729Y-7896674D02*
X6246253Y-7858579D01*
X6246253Y-7858579D02*
X6255777Y-7839531D01*
X6255777Y-7839531D02*
X6265301Y-7830008D01*
X6265301Y-7830008D02*
X6284348Y-7820484D01*
X6417682Y-7820484D02*
X6551015Y-7820484D01*
X6551015Y-7820484D02*
X6465301Y-8020484D01*
X6655777Y-7906198D02*
X6636729Y-7896674D01*
X6636729Y-7896674D02*
X6627206Y-7887150D01*
X6627206Y-7887150D02*
X6617682Y-7868103D01*
X6617682Y-7868103D02*
X6617682Y-7858579D01*
X6617682Y-7858579D02*
X6627206Y-7839531D01*
X6627206Y-7839531D02*
X6636729Y-7830008D01*
X6636729Y-7830008D02*
X6655777Y-7820484D01*
X6655777Y-7820484D02*
X6693872Y-7820484D01*
X6693872Y-7820484D02*
X6712920Y-7830008D01*
X6712920Y-7830008D02*
X6722444Y-7839531D01*
X6722444Y-7839531D02*
X6731967Y-7858579D01*
X6731967Y-7858579D02*
X6731967Y-7868103D01*
X6731967Y-7868103D02*
X6722444Y-7887150D01*
X6722444Y-7887150D02*
X6712920Y-7896674D01*
X6712920Y-7896674D02*
X6693872Y-7906198D01*
X6693872Y-7906198D02*
X6655777Y-7906198D01*
X6655777Y-7906198D02*
X6636729Y-7915722D01*
X6636729Y-7915722D02*
X6627206Y-7925246D01*
X6627206Y-7925246D02*
X6617682Y-7944293D01*
X6617682Y-7944293D02*
X6617682Y-7982388D01*
X6617682Y-7982388D02*
X6627206Y-8001436D01*
X6627206Y-8001436D02*
X6636729Y-8010960D01*
X6636729Y-8010960D02*
X6655777Y-8020484D01*
X6655777Y-8020484D02*
X6693872Y-8020484D01*
X6693872Y-8020484D02*
X6712920Y-8010960D01*
X6712920Y-8010960D02*
X6722444Y-8001436D01*
X6722444Y-8001436D02*
X6731967Y-7982388D01*
X6731967Y-7982388D02*
X6731967Y-7944293D01*
X6731967Y-7944293D02*
X6722444Y-7925246D01*
X6722444Y-7925246D02*
X6712920Y-7915722D01*
X6712920Y-7915722D02*
X6693872Y-7906198D01*
X6798634Y-7820484D02*
X6931967Y-7820484D01*
X6931967Y-7820484D02*
X6846253Y-8020484D01*
X6998634Y-7820484D02*
X6998634Y-7858579D01*
X7074825Y-7820484D02*
X7074825Y-7858579D01*
X7370063Y-8096674D02*
X7360539Y-8087150D01*
X7360539Y-8087150D02*
X7341491Y-8058579D01*
X7341491Y-8058579D02*
X7331968Y-8039531D01*
X7331968Y-8039531D02*
X7322444Y-8010960D01*
X7322444Y-8010960D02*
X7312920Y-7963341D01*
X7312920Y-7963341D02*
X7312920Y-7925246D01*
X7312920Y-7925246D02*
X7322444Y-7877627D01*
X7322444Y-7877627D02*
X7331968Y-7849055D01*
X7331968Y-7849055D02*
X7341491Y-7830008D01*
X7341491Y-7830008D02*
X7360539Y-7801436D01*
X7360539Y-7801436D02*
X7370063Y-7791912D01*
X7531968Y-7887150D02*
X7531968Y-8020484D01*
X7484348Y-7810960D02*
X7436729Y-7953817D01*
X7436729Y-7953817D02*
X7560539Y-7953817D01*
X7789110Y-8020484D02*
X7789110Y-7820484D01*
X7874825Y-8020484D02*
X7874825Y-7915722D01*
X7874825Y-7915722D02*
X7865301Y-7896674D01*
X7865301Y-7896674D02*
X7846253Y-7887150D01*
X7846253Y-7887150D02*
X7817682Y-7887150D01*
X7817682Y-7887150D02*
X7798634Y-7896674D01*
X7798634Y-7896674D02*
X7789110Y-7906198D01*
X7998634Y-8020484D02*
X7979587Y-8010960D01*
X7979587Y-8010960D02*
X7970063Y-8001436D01*
X7970063Y-8001436D02*
X7960539Y-7982388D01*
X7960539Y-7982388D02*
X7960539Y-7925246D01*
X7960539Y-7925246D02*
X7970063Y-7906198D01*
X7970063Y-7906198D02*
X7979587Y-7896674D01*
X7979587Y-7896674D02*
X7998634Y-7887150D01*
X7998634Y-7887150D02*
X8027206Y-7887150D01*
X8027206Y-7887150D02*
X8046253Y-7896674D01*
X8046253Y-7896674D02*
X8055777Y-7906198D01*
X8055777Y-7906198D02*
X8065301Y-7925246D01*
X8065301Y-7925246D02*
X8065301Y-7982388D01*
X8065301Y-7982388D02*
X8055777Y-8001436D01*
X8055777Y-8001436D02*
X8046253Y-8010960D01*
X8046253Y-8010960D02*
X8027206Y-8020484D01*
X8027206Y-8020484D02*
X7998634Y-8020484D01*
X8179587Y-8020484D02*
X8160539Y-8010960D01*
X8160539Y-8010960D02*
X8151015Y-7991912D01*
X8151015Y-7991912D02*
X8151015Y-7820484D01*
X8331968Y-8010960D02*
X8312920Y-8020484D01*
X8312920Y-8020484D02*
X8274825Y-8020484D01*
X8274825Y-8020484D02*
X8255777Y-8010960D01*
X8255777Y-8010960D02*
X8246253Y-7991912D01*
X8246253Y-7991912D02*
X8246253Y-7915722D01*
X8246253Y-7915722D02*
X8255777Y-7896674D01*
X8255777Y-7896674D02*
X8274825Y-7887150D01*
X8274825Y-7887150D02*
X8312920Y-7887150D01*
X8312920Y-7887150D02*
X8331968Y-7896674D01*
X8331968Y-7896674D02*
X8341491Y-7915722D01*
X8341491Y-7915722D02*
X8341491Y-7934769D01*
X8341491Y-7934769D02*
X8246253Y-7953817D01*
X8417682Y-8010960D02*
X8436730Y-8020484D01*
X8436730Y-8020484D02*
X8474825Y-8020484D01*
X8474825Y-8020484D02*
X8493873Y-8010960D01*
X8493873Y-8010960D02*
X8503396Y-7991912D01*
X8503396Y-7991912D02*
X8503396Y-7982388D01*
X8503396Y-7982388D02*
X8493873Y-7963341D01*
X8493873Y-7963341D02*
X8474825Y-7953817D01*
X8474825Y-7953817D02*
X8446253Y-7953817D01*
X8446253Y-7953817D02*
X8427206Y-7944293D01*
X8427206Y-7944293D02*
X8417682Y-7925246D01*
X8417682Y-7925246D02*
X8417682Y-7915722D01*
X8417682Y-7915722D02*
X8427206Y-7896674D01*
X8427206Y-7896674D02*
X8446253Y-7887150D01*
X8446253Y-7887150D02*
X8474825Y-7887150D01*
X8474825Y-7887150D02*
X8493873Y-7896674D01*
X8570063Y-8096674D02*
X8579587Y-8087150D01*
X8579587Y-8087150D02*
X8598634Y-8058579D01*
X8598634Y-8058579D02*
X8608158Y-8039531D01*
X8608158Y-8039531D02*
X8617682Y-8010960D01*
X8617682Y-8010960D02*
X8627206Y-7963341D01*
X8627206Y-7963341D02*
X8627206Y-7925246D01*
X8627206Y-7925246D02*
X8617682Y-7877627D01*
X8617682Y-7877627D02*
X8608158Y-7849055D01*
X8608158Y-7849055D02*
X8598634Y-7830008D01*
X8598634Y-7830008D02*
X8579587Y-7801436D01*
X8579587Y-7801436D02*
X8570063Y-7791912D01*
X3595000Y-8149000D02*
X3795000Y-8349000D01*
X3795000Y-8149000D02*
X3595000Y-8349000D01*
X3765711Y-8319711D02*
X3765711Y-8178289D01*
X3624289Y-8178289D01*
X3624289Y-8319711D01*
X3765711Y-8319711D01*
X4036729Y-8140484D02*
X4160539Y-8140484D01*
X4160539Y-8140484D02*
X4093872Y-8216674D01*
X4093872Y-8216674D02*
X4122443Y-8216674D01*
X4122443Y-8216674D02*
X4141491Y-8226198D01*
X4141491Y-8226198D02*
X4151015Y-8235722D01*
X4151015Y-8235722D02*
X4160539Y-8254769D01*
X4160539Y-8254769D02*
X4160539Y-8302388D01*
X4160539Y-8302388D02*
X4151015Y-8321436D01*
X4151015Y-8321436D02*
X4141491Y-8330960D01*
X4141491Y-8330960D02*
X4122443Y-8340484D01*
X4122443Y-8340484D02*
X4065301Y-8340484D01*
X4065301Y-8340484D02*
X4046253Y-8330960D01*
X4046253Y-8330960D02*
X4036729Y-8321436D01*
X4246253Y-8321436D02*
X4255777Y-8330960D01*
X4255777Y-8330960D02*
X4246253Y-8340484D01*
X4246253Y-8340484D02*
X4236729Y-8330960D01*
X4236729Y-8330960D02*
X4246253Y-8321436D01*
X4246253Y-8321436D02*
X4246253Y-8340484D01*
X4379586Y-8140484D02*
X4398634Y-8140484D01*
X4398634Y-8140484D02*
X4417682Y-8150008D01*
X4417682Y-8150008D02*
X4427205Y-8159531D01*
X4427205Y-8159531D02*
X4436729Y-8178579D01*
X4436729Y-8178579D02*
X4446253Y-8216674D01*
X4446253Y-8216674D02*
X4446253Y-8264293D01*
X4446253Y-8264293D02*
X4436729Y-8302388D01*
X4436729Y-8302388D02*
X4427205Y-8321436D01*
X4427205Y-8321436D02*
X4417682Y-8330960D01*
X4417682Y-8330960D02*
X4398634Y-8340484D01*
X4398634Y-8340484D02*
X4379586Y-8340484D01*
X4379586Y-8340484D02*
X4360539Y-8330960D01*
X4360539Y-8330960D02*
X4351015Y-8321436D01*
X4351015Y-8321436D02*
X4341491Y-8302388D01*
X4341491Y-8302388D02*
X4331967Y-8264293D01*
X4331967Y-8264293D02*
X4331967Y-8216674D01*
X4331967Y-8216674D02*
X4341491Y-8178579D01*
X4341491Y-8178579D02*
X4351015Y-8159531D01*
X4351015Y-8159531D02*
X4360539Y-8150008D01*
X4360539Y-8150008D02*
X4379586Y-8140484D01*
X4570063Y-8140484D02*
X4589110Y-8140484D01*
X4589110Y-8140484D02*
X4608158Y-8150008D01*
X4608158Y-8150008D02*
X4617682Y-8159531D01*
X4617682Y-8159531D02*
X4627205Y-8178579D01*
X4627205Y-8178579D02*
X4636729Y-8216674D01*
X4636729Y-8216674D02*
X4636729Y-8264293D01*
X4636729Y-8264293D02*
X4627205Y-8302388D01*
X4627205Y-8302388D02*
X4617682Y-8321436D01*
X4617682Y-8321436D02*
X4608158Y-8330960D01*
X4608158Y-8330960D02*
X4589110Y-8340484D01*
X4589110Y-8340484D02*
X4570063Y-8340484D01*
X4570063Y-8340484D02*
X4551015Y-8330960D01*
X4551015Y-8330960D02*
X4541491Y-8321436D01*
X4541491Y-8321436D02*
X4531967Y-8302388D01*
X4531967Y-8302388D02*
X4522444Y-8264293D01*
X4522444Y-8264293D02*
X4522444Y-8216674D01*
X4522444Y-8216674D02*
X4531967Y-8178579D01*
X4531967Y-8178579D02*
X4541491Y-8159531D01*
X4541491Y-8159531D02*
X4551015Y-8150008D01*
X4551015Y-8150008D02*
X4570063Y-8140484D01*
X4760539Y-8140484D02*
X4779586Y-8140484D01*
X4779586Y-8140484D02*
X4798634Y-8150008D01*
X4798634Y-8150008D02*
X4808158Y-8159531D01*
X4808158Y-8159531D02*
X4817682Y-8178579D01*
X4817682Y-8178579D02*
X4827205Y-8216674D01*
X4827205Y-8216674D02*
X4827205Y-8264293D01*
X4827205Y-8264293D02*
X4817682Y-8302388D01*
X4817682Y-8302388D02*
X4808158Y-8321436D01*
X4808158Y-8321436D02*
X4798634Y-8330960D01*
X4798634Y-8330960D02*
X4779586Y-8340484D01*
X4779586Y-8340484D02*
X4760539Y-8340484D01*
X4760539Y-8340484D02*
X4741491Y-8330960D01*
X4741491Y-8330960D02*
X4731967Y-8321436D01*
X4731967Y-8321436D02*
X4722444Y-8302388D01*
X4722444Y-8302388D02*
X4712920Y-8264293D01*
X4712920Y-8264293D02*
X4712920Y-8216674D01*
X4712920Y-8216674D02*
X4722444Y-8178579D01*
X4722444Y-8178579D02*
X4731967Y-8159531D01*
X4731967Y-8159531D02*
X4741491Y-8150008D01*
X4741491Y-8150008D02*
X4760539Y-8140484D01*
X4912920Y-8340484D02*
X4912920Y-8207150D01*
X4912920Y-8226198D02*
X4922444Y-8216674D01*
X4922444Y-8216674D02*
X4941491Y-8207150D01*
X4941491Y-8207150D02*
X4970063Y-8207150D01*
X4970063Y-8207150D02*
X4989110Y-8216674D01*
X4989110Y-8216674D02*
X4998634Y-8235722D01*
X4998634Y-8235722D02*
X4998634Y-8340484D01*
X4998634Y-8235722D02*
X5008158Y-8216674D01*
X5008158Y-8216674D02*
X5027205Y-8207150D01*
X5027205Y-8207150D02*
X5055777Y-8207150D01*
X5055777Y-8207150D02*
X5074825Y-8216674D01*
X5074825Y-8216674D02*
X5084348Y-8235722D01*
X5084348Y-8235722D02*
X5084348Y-8340484D01*
X5179586Y-8340484D02*
X5179586Y-8207150D01*
X5179586Y-8226198D02*
X5189110Y-8216674D01*
X5189110Y-8216674D02*
X5208158Y-8207150D01*
X5208158Y-8207150D02*
X5236729Y-8207150D01*
X5236729Y-8207150D02*
X5255777Y-8216674D01*
X5255777Y-8216674D02*
X5265301Y-8235722D01*
X5265301Y-8235722D02*
X5265301Y-8340484D01*
X5265301Y-8235722D02*
X5274825Y-8216674D01*
X5274825Y-8216674D02*
X5293872Y-8207150D01*
X5293872Y-8207150D02*
X5322444Y-8207150D01*
X5322444Y-8207150D02*
X5341491Y-8216674D01*
X5341491Y-8216674D02*
X5351015Y-8235722D01*
X5351015Y-8235722D02*
X5351015Y-8340484D01*
X5741491Y-8130960D02*
X5570063Y-8388103D01*
X5998634Y-8140484D02*
X6017682Y-8140484D01*
X6017682Y-8140484D02*
X6036729Y-8150008D01*
X6036729Y-8150008D02*
X6046253Y-8159531D01*
X6046253Y-8159531D02*
X6055777Y-8178579D01*
X6055777Y-8178579D02*
X6065301Y-8216674D01*
X6065301Y-8216674D02*
X6065301Y-8264293D01*
X6065301Y-8264293D02*
X6055777Y-8302388D01*
X6055777Y-8302388D02*
X6046253Y-8321436D01*
X6046253Y-8321436D02*
X6036729Y-8330960D01*
X6036729Y-8330960D02*
X6017682Y-8340484D01*
X6017682Y-8340484D02*
X5998634Y-8340484D01*
X5998634Y-8340484D02*
X5979586Y-8330960D01*
X5979586Y-8330960D02*
X5970063Y-8321436D01*
X5970063Y-8321436D02*
X5960539Y-8302388D01*
X5960539Y-8302388D02*
X5951015Y-8264293D01*
X5951015Y-8264293D02*
X5951015Y-8216674D01*
X5951015Y-8216674D02*
X5960539Y-8178579D01*
X5960539Y-8178579D02*
X5970063Y-8159531D01*
X5970063Y-8159531D02*
X5979586Y-8150008D01*
X5979586Y-8150008D02*
X5998634Y-8140484D01*
X6151015Y-8321436D02*
X6160539Y-8330960D01*
X6160539Y-8330960D02*
X6151015Y-8340484D01*
X6151015Y-8340484D02*
X6141491Y-8330960D01*
X6141491Y-8330960D02*
X6151015Y-8321436D01*
X6151015Y-8321436D02*
X6151015Y-8340484D01*
X6351015Y-8340484D02*
X6236729Y-8340484D01*
X6293872Y-8340484D02*
X6293872Y-8140484D01*
X6293872Y-8140484D02*
X6274825Y-8169055D01*
X6274825Y-8169055D02*
X6255777Y-8188103D01*
X6255777Y-8188103D02*
X6236729Y-8197627D01*
X6541491Y-8340484D02*
X6427206Y-8340484D01*
X6484348Y-8340484D02*
X6484348Y-8140484D01*
X6484348Y-8140484D02*
X6465301Y-8169055D01*
X6465301Y-8169055D02*
X6446253Y-8188103D01*
X6446253Y-8188103D02*
X6427206Y-8197627D01*
X6655777Y-8226198D02*
X6636729Y-8216674D01*
X6636729Y-8216674D02*
X6627206Y-8207150D01*
X6627206Y-8207150D02*
X6617682Y-8188103D01*
X6617682Y-8188103D02*
X6617682Y-8178579D01*
X6617682Y-8178579D02*
X6627206Y-8159531D01*
X6627206Y-8159531D02*
X6636729Y-8150008D01*
X6636729Y-8150008D02*
X6655777Y-8140484D01*
X6655777Y-8140484D02*
X6693872Y-8140484D01*
X6693872Y-8140484D02*
X6712920Y-8150008D01*
X6712920Y-8150008D02*
X6722444Y-8159531D01*
X6722444Y-8159531D02*
X6731967Y-8178579D01*
X6731967Y-8178579D02*
X6731967Y-8188103D01*
X6731967Y-8188103D02*
X6722444Y-8207150D01*
X6722444Y-8207150D02*
X6712920Y-8216674D01*
X6712920Y-8216674D02*
X6693872Y-8226198D01*
X6693872Y-8226198D02*
X6655777Y-8226198D01*
X6655777Y-8226198D02*
X6636729Y-8235722D01*
X6636729Y-8235722D02*
X6627206Y-8245246D01*
X6627206Y-8245246D02*
X6617682Y-8264293D01*
X6617682Y-8264293D02*
X6617682Y-8302388D01*
X6617682Y-8302388D02*
X6627206Y-8321436D01*
X6627206Y-8321436D02*
X6636729Y-8330960D01*
X6636729Y-8330960D02*
X6655777Y-8340484D01*
X6655777Y-8340484D02*
X6693872Y-8340484D01*
X6693872Y-8340484D02*
X6712920Y-8330960D01*
X6712920Y-8330960D02*
X6722444Y-8321436D01*
X6722444Y-8321436D02*
X6731967Y-8302388D01*
X6731967Y-8302388D02*
X6731967Y-8264293D01*
X6731967Y-8264293D02*
X6722444Y-8245246D01*
X6722444Y-8245246D02*
X6712920Y-8235722D01*
X6712920Y-8235722D02*
X6693872Y-8226198D01*
X6922444Y-8340484D02*
X6808158Y-8340484D01*
X6865301Y-8340484D02*
X6865301Y-8140484D01*
X6865301Y-8140484D02*
X6846253Y-8169055D01*
X6846253Y-8169055D02*
X6827206Y-8188103D01*
X6827206Y-8188103D02*
X6808158Y-8197627D01*
X6998634Y-8140484D02*
X6998634Y-8178579D01*
X7074825Y-8140484D02*
X7074825Y-8178579D01*
X7370063Y-8416674D02*
X7360539Y-8407150D01*
X7360539Y-8407150D02*
X7341491Y-8378579D01*
X7341491Y-8378579D02*
X7331968Y-8359531D01*
X7331968Y-8359531D02*
X7322444Y-8330960D01*
X7322444Y-8330960D02*
X7312920Y-8283341D01*
X7312920Y-8283341D02*
X7312920Y-8245246D01*
X7312920Y-8245246D02*
X7322444Y-8197627D01*
X7322444Y-8197627D02*
X7331968Y-8169055D01*
X7331968Y-8169055D02*
X7341491Y-8150008D01*
X7341491Y-8150008D02*
X7360539Y-8121436D01*
X7360539Y-8121436D02*
X7370063Y-8111912D01*
X7531968Y-8140484D02*
X7493872Y-8140484D01*
X7493872Y-8140484D02*
X7474825Y-8150008D01*
X7474825Y-8150008D02*
X7465301Y-8159531D01*
X7465301Y-8159531D02*
X7446253Y-8188103D01*
X7446253Y-8188103D02*
X7436729Y-8226198D01*
X7436729Y-8226198D02*
X7436729Y-8302388D01*
X7436729Y-8302388D02*
X7446253Y-8321436D01*
X7446253Y-8321436D02*
X7455777Y-8330960D01*
X7455777Y-8330960D02*
X7474825Y-8340484D01*
X7474825Y-8340484D02*
X7512920Y-8340484D01*
X7512920Y-8340484D02*
X7531968Y-8330960D01*
X7531968Y-8330960D02*
X7541491Y-8321436D01*
X7541491Y-8321436D02*
X7551015Y-8302388D01*
X7551015Y-8302388D02*
X7551015Y-8254769D01*
X7551015Y-8254769D02*
X7541491Y-8235722D01*
X7541491Y-8235722D02*
X7531968Y-8226198D01*
X7531968Y-8226198D02*
X7512920Y-8216674D01*
X7512920Y-8216674D02*
X7474825Y-8216674D01*
X7474825Y-8216674D02*
X7455777Y-8226198D01*
X7455777Y-8226198D02*
X7446253Y-8235722D01*
X7446253Y-8235722D02*
X7436729Y-8254769D01*
X7789110Y-8340484D02*
X7789110Y-8140484D01*
X7874825Y-8340484D02*
X7874825Y-8235722D01*
X7874825Y-8235722D02*
X7865301Y-8216674D01*
X7865301Y-8216674D02*
X7846253Y-8207150D01*
X7846253Y-8207150D02*
X7817682Y-8207150D01*
X7817682Y-8207150D02*
X7798634Y-8216674D01*
X7798634Y-8216674D02*
X7789110Y-8226198D01*
X7998634Y-8340484D02*
X7979587Y-8330960D01*
X7979587Y-8330960D02*
X7970063Y-8321436D01*
X7970063Y-8321436D02*
X7960539Y-8302388D01*
X7960539Y-8302388D02*
X7960539Y-8245246D01*
X7960539Y-8245246D02*
X7970063Y-8226198D01*
X7970063Y-8226198D02*
X7979587Y-8216674D01*
X7979587Y-8216674D02*
X7998634Y-8207150D01*
X7998634Y-8207150D02*
X8027206Y-8207150D01*
X8027206Y-8207150D02*
X8046253Y-8216674D01*
X8046253Y-8216674D02*
X8055777Y-8226198D01*
X8055777Y-8226198D02*
X8065301Y-8245246D01*
X8065301Y-8245246D02*
X8065301Y-8302388D01*
X8065301Y-8302388D02*
X8055777Y-8321436D01*
X8055777Y-8321436D02*
X8046253Y-8330960D01*
X8046253Y-8330960D02*
X8027206Y-8340484D01*
X8027206Y-8340484D02*
X7998634Y-8340484D01*
X8179587Y-8340484D02*
X8160539Y-8330960D01*
X8160539Y-8330960D02*
X8151015Y-8311912D01*
X8151015Y-8311912D02*
X8151015Y-8140484D01*
X8331968Y-8330960D02*
X8312920Y-8340484D01*
X8312920Y-8340484D02*
X8274825Y-8340484D01*
X8274825Y-8340484D02*
X8255777Y-8330960D01*
X8255777Y-8330960D02*
X8246253Y-8311912D01*
X8246253Y-8311912D02*
X8246253Y-8235722D01*
X8246253Y-8235722D02*
X8255777Y-8216674D01*
X8255777Y-8216674D02*
X8274825Y-8207150D01*
X8274825Y-8207150D02*
X8312920Y-8207150D01*
X8312920Y-8207150D02*
X8331968Y-8216674D01*
X8331968Y-8216674D02*
X8341491Y-8235722D01*
X8341491Y-8235722D02*
X8341491Y-8254769D01*
X8341491Y-8254769D02*
X8246253Y-8273817D01*
X8417682Y-8330960D02*
X8436730Y-8340484D01*
X8436730Y-8340484D02*
X8474825Y-8340484D01*
X8474825Y-8340484D02*
X8493873Y-8330960D01*
X8493873Y-8330960D02*
X8503396Y-8311912D01*
X8503396Y-8311912D02*
X8503396Y-8302388D01*
X8503396Y-8302388D02*
X8493873Y-8283341D01*
X8493873Y-8283341D02*
X8474825Y-8273817D01*
X8474825Y-8273817D02*
X8446253Y-8273817D01*
X8446253Y-8273817D02*
X8427206Y-8264293D01*
X8427206Y-8264293D02*
X8417682Y-8245246D01*
X8417682Y-8245246D02*
X8417682Y-8235722D01*
X8417682Y-8235722D02*
X8427206Y-8216674D01*
X8427206Y-8216674D02*
X8446253Y-8207150D01*
X8446253Y-8207150D02*
X8474825Y-8207150D01*
X8474825Y-8207150D02*
X8493873Y-8216674D01*
X8570063Y-8416674D02*
X8579587Y-8407150D01*
X8579587Y-8407150D02*
X8598634Y-8378579D01*
X8598634Y-8378579D02*
X8608158Y-8359531D01*
X8608158Y-8359531D02*
X8617682Y-8330960D01*
X8617682Y-8330960D02*
X8627206Y-8283341D01*
X8627206Y-8283341D02*
X8627206Y-8245246D01*
X8627206Y-8245246D02*
X8617682Y-8197627D01*
X8617682Y-8197627D02*
X8608158Y-8169055D01*
X8608158Y-8169055D02*
X8598634Y-8150008D01*
X8598634Y-8150008D02*
X8579587Y-8121436D01*
X8579587Y-8121436D02*
X8570063Y-8111912D01*
M02*
